<svg width="18" height="18" viewBox="0 0 18 18" fill="none" xmlns="http://www.w3.org/2000/svg">
<path fill-rule="evenodd" clip-rule="evenodd" d="M4.41924 11.5679C4.60622 11.9375 4.45816 12.3887 4.08855 12.5757C3.19995 13.0252 3 13.4398 3 13.6433C3 13.7587 3.05395 13.9398 3.30203 14.1799C3.55235 14.4222 3.95381 14.6749 4.51116 14.903C5.62221 15.3579 7.20887 15.6565 9 15.6565C10.7912 15.6565 12.3778 15.3579 13.4888 14.903C14.0462 14.6749 14.4476 14.4222 14.698 14.1799C14.9461 13.9398 15 13.7587 15 13.6433C15 13.4398 14.8 13.0252 13.9114 12.5757C13.5418 12.3887 13.3938 11.9375 13.5808 11.5679C13.7677 11.1983 14.219 11.0502 14.5886 11.2372C15.5762 11.7368 16.5 12.5307 16.5 13.6433C16.5 14.291 16.1762 14.8367 15.7411 15.2578C15.3083 15.6767 14.7212 16.0194 14.0571 16.2913C12.7251 16.8365 10.9368 17.1565 9 17.1565C7.06321 17.1565 5.27487 16.8365 3.9429 16.2913C3.27874 16.0194 2.69169 15.6767 2.25887 15.2578C1.82381 14.8367 1.5 14.291 1.5 13.6433C1.5 12.5307 2.42385 11.7368 3.41145 11.2372C3.78106 11.0502 4.23226 11.1983 4.41924 11.5679Z" fill="#010101"/>
<path fill-rule="evenodd" clip-rule="evenodd" d="M9 6.65625C9.41422 6.65625 9.75 6.99204 9.75 7.40625V12.6562C9.75 13.0705 9.41422 13.4062 9 13.4062C8.58578 13.4062 8.25 13.0705 8.25 12.6562V7.40625C8.25 6.99204 8.58578 6.65625 9 6.65625Z" fill="#010101"/>
<path fill-rule="evenodd" clip-rule="evenodd" d="M5.4375 4.40625C5.4375 2.43874 7.03249 0.84375 9 0.84375C10.9675 0.84375 12.5625 2.43874 12.5625 4.40625C12.5625 6.37376 10.9675 7.96875 9 7.96875C7.03249 7.96875 5.4375 6.37376 5.4375 4.40625Z" fill="#010101"/>
</svg>
