<svg width="22" height="22" viewBox="0 0 22 22" fill="none" xmlns="http://www.w3.org/2000/svg">
<path fill-rule="evenodd" clip-rule="evenodd" d="M12.0269 1.79373C11.4323 1.29821 10.5688 1.29789 9.97384 1.79297L8.06131 3.38444C8.02015 3.4187 7.96828 3.43745 7.91473 3.43745H5.03791C4.15196 3.43745 3.43374 4.15567 3.43374 5.04162V7.91853C3.43374 7.97207 3.415 8.02393 3.38076 8.06509L1.79278 9.97412C1.29824 10.5686 1.29824 11.4313 1.79278 12.0258L3.38076 13.9349C3.415 13.976 3.43374 14.0278 3.43374 14.0813V16.9583C3.43374 17.8443 4.15196 18.5625 5.03791 18.5625H7.91474C7.96829 18.5625 8.02016 18.5813 8.06132 18.6154L9.97375 20.2069C10.5687 20.7019 11.4323 20.7016 12.0268 20.2061L13.9355 18.6155C13.9766 18.5813 14.0285 18.5625 14.0822 18.5625H16.9586C17.8445 18.5625 18.5627 17.8443 18.5627 16.9583V14.0813C18.5627 14.0278 18.5815 13.976 18.6158 13.9349L20.2037 12.0258C20.6983 11.4313 20.6983 10.5686 20.2037 9.97412L18.6158 8.06509C18.5815 8.02393 18.5627 7.97207 18.5627 7.91853V5.04162C18.5627 4.15567 17.8445 3.43745 16.9586 3.43745H14.0822C14.0285 3.43745 13.9766 3.41866 13.9355 3.38433L12.0269 1.79373ZM11.0003 14.2087C12.7722 14.2087 14.2087 12.7722 14.2087 11.0003C14.2087 9.22841 12.7722 7.792 11.0003 7.792C9.22841 7.792 7.79199 9.22841 7.79199 11.0003C7.79199 12.7722 9.22841 14.2087 11.0003 14.2087Z" fill="white"/>
</svg>
