<svg width="115" height="115" viewBox="0 0 115 115" fill="none" xmlns="http://www.w3.org/2000/svg">
<path opacity="0.1" d="M100.836 80.0738C100.836 80.0738 98.3316 83.394 95.8269 87.9493C93.569 92.0573 91.8518 97.5925 91.4726 102.214C90.4091 102.164 89.241 102.116 87.9781 102.072C80.4984 101.806 69.7001 101.64 57.6933 101.64C44.0433 101.64 31.9555 101.855 24.5298 102.186C24.2742 102.197 24.024 102.209 23.7795 102.22C14.5088 90.7297 -4.15949 70.7107 13.0204 62.4753C13.0204 62.4753 14.279 62.092 16.1659 61.2686C22.1379 58.6621 34.4102 51.6483 33.0451 38.4239C33.0451 38.4239 32.58 35.9562 32.58 32.5225C32.58 24.4935 35.1219 11.1846 52.0915 11.7921C62.3679 12.1604 71.8321 17.3898 77.5539 25.7599C83.1663 33.9696 92.1401 44.0705 99.4481 38.3038C101.135 36.9722 103.366 36.4789 105.448 37.0643C110.708 38.5418 116.684 46.1907 100.836 80.0738Z" fill="#EB8383"/>
<path d="M112.767 103.835C112.767 104.452 88.2731 104.952 58.0583 104.952C41.01 104.952 25.7832 104.793 15.7496 104.543C13.4386 104.486 11.4034 104.424 9.68488 104.357C8.55293 104.314 7.5584 104.268 6.71294 104.222C4.53767 104.101 3.34961 103.971 3.34961 103.835C3.34961 103.662 5.2779 103.499 8.71956 103.353C10.129 103.293 11.7921 103.236 13.6806 103.183C23.6172 102.902 39.7924 102.719 58.0583 102.719C74.1254 102.719 88.5749 102.86 98.5838 103.085C107.397 103.284 112.767 103.547 112.767 103.835Z" fill="#F3F3F3"/>
<path d="M79.2636 43.7158C77.7731 43.4474 74.8689 42.8956 71.2732 42.2036C71.9974 39.5326 71.7325 37.5817 71.1189 36.1876C70.3551 34.4509 68.7671 33.2151 66.9036 32.8593L53.9888 30.3979C52.8837 30.1873 51.7368 30.2908 50.7001 30.7276C47.3411 32.1412 46.9521 36.0947 46.9205 37.4616C42.2609 36.5485 39.0265 35.9128 39.0265 35.9128C39.0265 35.9128 32.9156 34.3614 31.6934 40.989L83.9644 51.4248C83.9644 51.4248 85.7972 44.8907 79.2636 43.7158ZM50.684 38.1989C50.9247 37.036 51.7353 34.5303 54.2485 34.5222C54.4742 34.5217 54.6988 34.5448 54.9204 34.583L63.7707 36.1168C64.7863 36.2922 65.709 36.8314 66.3347 37.6506C66.9493 38.4551 67.4277 39.6632 67.181 41.4131C61.8811 40.3864 55.8205 39.204 50.684 38.1989Z" fill="#010101"/>
<path d="M77.9775 53.7034H57.9472H37.9169C36.3415 53.7034 35.1054 55.0545 35.2452 56.6237L38.9538 98.246C39.165 100.617 41.1513 102.434 43.5315 102.434H57.9471H72.3627C74.7429 102.434 76.7293 100.617 76.9405 98.246L80.6491 56.6237C80.789 55.0545 79.5528 53.7034 77.9775 53.7034ZM47.3601 99.0213C47.3203 99.0237 47.2806 99.0248 47.2412 99.0248C46.1845 99.0248 45.2986 98.2002 45.2363 97.1317L43.0251 59.2399C42.9604 58.1316 43.8064 57.1807 44.9147 57.1161C46.0227 57.0519 46.9739 57.8974 47.0386 59.0057L49.2498 96.8975C49.3144 98.0058 48.4684 98.9567 47.3601 99.0213ZM59.8066 97.0146C59.8066 98.1248 58.9066 99.0247 57.7964 99.0247C56.6862 99.0247 55.7862 98.1247 55.7862 97.0146V59.1228C55.7862 58.0126 56.6862 57.1126 57.7964 57.1126C58.9066 57.1126 59.8066 58.0126 59.8066 59.1228V97.0146ZM72.8693 59.2399L70.6581 97.1317C70.5958 98.2001 69.7097 99.0248 68.6532 99.0248C68.6137 99.0248 68.5741 99.0237 68.5342 99.0213C67.4259 98.9567 66.5799 98.0058 66.6446 96.8975L68.8558 59.0057C68.9205 57.8974 69.871 57.0513 70.9796 57.1161C72.088 57.1807 72.934 58.1316 72.8693 59.2399Z" fill="#D1000C"/>
<path d="M57.7953 57.1128C56.6851 57.1128 55.7852 58.0128 55.7852 59.1229V97.0147C55.7852 98.1249 56.6851 99.0249 57.7953 99.0249C58.9055 99.0249 59.8055 98.1249 59.8055 97.0147V59.1229C59.8055 58.0128 58.9055 57.1128 57.7953 57.1128Z" fill="white"/>
<path d="M47.0385 59.0059C46.9738 57.8975 46.0226 57.052 44.9146 57.1162C43.8063 57.1809 42.9603 58.1318 43.025 59.2401L45.2362 97.1318C45.2985 98.2003 46.1844 99.025 47.2411 99.025C47.2805 99.025 47.3202 99.0238 47.36 99.0215C48.4683 98.9569 49.3143 98.006 49.2497 96.8976L47.0385 59.0059Z" fill="white"/>
<path d="M70.9791 57.1163C69.8705 57.0515 68.9199 57.8977 68.8553 59.0059L66.6441 96.8977C66.5794 98.006 67.4254 98.9569 68.5337 99.0215C68.5736 99.0239 68.6132 99.025 68.6527 99.025C69.7092 99.025 70.5952 98.2003 70.6576 97.1319L72.8688 59.2401C72.9335 58.1318 72.0875 57.181 70.9791 57.1163Z" fill="white"/>
</svg>
