<svg width="223" height="168" viewBox="0 0 223 168" fill="none" xmlns="http://www.w3.org/2000/svg">
<path d="M105.008 147.44C105.981 147.44 106.769 146.651 106.769 145.68C106.769 144.708 105.981 143.92 105.008 143.92C104.035 143.92 103.246 144.708 103.246 145.68C103.246 146.651 104.035 147.44 105.008 147.44Z" fill="#D1000C"/>
<path d="M53.8281 5.94336V13.6654Z" fill="#D1000C"/>
<path d="M53.8281 5.94336V13.6654" stroke="#D1000C" stroke-width="5.3156" stroke-linecap="round" stroke-linejoin="round"/>
<path d="M49.9453 9.80273H57.693Z" fill="#D1000C"/>
<path d="M49.9453 9.80273H57.693" stroke="#D1000C" stroke-width="5.3156" stroke-linecap="round" stroke-linejoin="round"/>
<path d="M150.232 65.632C134.406 65.632 118.295 64.9898 103.225 60.7961C88.4383 56.6969 74.862 48.7444 62.7603 39.5449C54.8376 33.5569 47.6335 28.7775 37.347 29.4954C27.2839 30.0394 17.6609 33.7932 9.89149 40.2059C-3.19347 51.6531 -1.22667 72.8666 4.01102 87.7141C11.8771 110.137 35.8156 125.758 56.1613 135.864C79.6647 147.595 105.494 154.414 131.38 158.325C154.071 161.781 183.228 164.275 202.893 149.484C220.951 135.864 225.905 104.809 221.48 83.8416C220.406 77.6475 217.105 72.0582 212.196 68.1253C199.509 58.8505 180.581 65.0464 166.324 65.3484C161.029 65.4621 155.64 65.5943 150.232 65.632Z" fill="#FBE6E6"/>
<path d="M117.482 1.39844C118.18 1.39852 118.744 1.96292 118.744 2.6582C118.744 3.3535 118.18 3.91788 117.482 3.91797C116.785 3.91797 116.22 3.35327 116.221 2.6582C116.221 1.96286 116.785 1.39844 117.482 1.39844Z" fill="#D1000C" stroke="#D1000C"/>
<path d="M25.9492 141.457V149.179Z" fill="#D1000C"/>
<path d="M25.9492 141.457V149.179" stroke="#D1000C" stroke-width="5.3156" stroke-linecap="round" stroke-linejoin="round"/>
<path d="M22.082 145.322H29.8118Z" fill="#D1000C"/>
<path d="M22.082 145.322H29.8118" stroke="#D1000C" stroke-width="5.3156" stroke-linecap="round" stroke-linejoin="round"/>
<path d="M190.141 2.6582V10.3982Z" fill="#D1000C"/>
<path d="M190.141 2.6582V10.3982" stroke="#D1000C" stroke-width="5.3156" stroke-linecap="round" stroke-linejoin="round"/>
<path d="M186.26 6.53711H194.007Z" fill="#D1000C"/>
<path d="M186.26 6.53711H194.007" stroke="#D1000C" stroke-width="5.3156" stroke-linecap="round" stroke-linejoin="round"/>
<path opacity="0.75" d="M201.999 83.0934V138.643C201.999 143.944 197.702 148.241 192.401 148.241H180.581V159.942C180.581 162.555 177.683 164.133 175.489 162.707L153.221 148.241H114.035V136.778H180.145C186.774 136.778 192.146 131.408 192.146 124.779V73.5H192.401C197.702 73.5 201.999 77.7952 201.999 83.0977V83.0934Z" fill="white"/>
<path d="M175.343 164.271C174.578 164.271 173.817 164.04 173.137 163.581L150.39 148.242H109.602V134.613H178.29C184.731 134.613 189.971 129.174 189.971 122.49V67.0293H190.901C196.713 67.0293 201.443 71.9377 201.443 77.9727V137.303C201.443 143.336 196.715 148.246 190.901 148.246H179.406V160.051C179.406 161.621 178.612 163.006 177.282 163.754C176.666 164.1 176.004 164.274 175.343 164.274V164.271ZM110.936 146.859H150.786L173.864 162.422C174.716 162.997 175.754 163.038 176.646 162.537C177.538 162.034 178.072 161.106 178.072 160.051V146.861H190.901C195.979 146.861 200.109 142.574 200.109 137.303V77.9727C200.109 72.8427 196.197 68.6454 191.306 68.4238V122.49C191.306 129.938 185.467 135.998 178.29 135.998H110.936V146.856V146.859Z" stroke="#010101" stroke-width="1.54356"/>
<path d="M180.144 43.3086H73.7653C74.5435 45.8204 74.965 48.4965 74.965 51.2656C74.965 66.0707 62.9635 78.0743 48.1563 78.0743C42.6398 78.0743 37.5145 76.4099 33.2539 73.5522V124.774C33.2539 131.404 38.6256 136.774 45.251 136.774H50.5579V123.586C50.5579 120.704 52.8946 118.367 55.7761 118.367H108.819C111.702 118.367 114.037 120.704 114.037 123.586V136.774H180.146C186.776 136.774 192.148 131.404 192.148 124.774V55.3079C192.148 48.6803 186.776 43.3086 180.146 43.3086H180.144ZM121.421 77.3458C121.421 72.7869 125.119 69.0884 129.676 69.0884C134.233 69.0884 137.936 72.7869 137.936 77.3458C137.936 81.9048 134.237 85.6033 129.676 85.6033C125.115 85.6033 121.421 81.9069 121.421 77.3458ZM164.786 102.726H127.495C126.215 102.726 125.171 101.686 125.171 100.404C125.171 99.1223 126.215 98.0803 127.495 98.0803H164.786C166.067 98.0803 167.109 99.1179 167.109 100.404C167.109 101.69 166.07 102.726 164.786 102.726ZM162.609 85.6055C158.048 85.6055 154.351 81.9091 154.351 77.348C154.351 72.7869 158.048 69.0905 162.609 69.0905C167.17 69.0905 170.864 72.7891 170.864 77.348C170.864 81.9069 167.166 85.6055 162.609 85.6055Z" fill="#D1000C"/>
<path d="M129.677 86.2534C124.768 86.2534 120.773 82.2586 120.773 77.3474C120.773 72.4361 124.768 68.4414 129.677 68.4414C134.586 68.4414 138.585 72.4361 138.585 77.3474C138.585 82.2586 134.589 86.2534 129.677 86.2534ZM129.677 69.7384C125.484 69.7384 122.07 73.1516 122.07 77.3474C122.07 81.5431 125.484 84.9564 129.677 84.9564C133.871 84.9564 137.288 81.5431 137.288 77.3474C137.288 73.1516 133.873 69.7384 129.677 69.7384Z" fill="#CCD2D6"/>
<path d="M164.79 103.374H127.5C125.861 103.374 124.527 102.042 124.527 100.404C124.527 98.7654 125.861 97.4316 127.5 97.4316H164.79C166.429 97.4316 167.762 98.7654 167.762 100.404C167.762 102.042 166.429 103.374 164.79 103.374ZM127.5 98.7308C126.577 98.7308 125.824 99.4809 125.824 100.406C125.824 101.331 126.577 102.079 127.5 102.079H164.79C165.713 102.079 166.465 101.329 166.465 100.406C166.465 99.483 165.713 98.7308 164.79 98.7308H127.5Z" fill="#CCD2D6"/>
<path d="M162.609 86.2534C157.698 86.2534 153.703 82.2586 153.703 77.3474C153.703 72.4361 157.698 68.4414 162.609 68.4414C167.52 68.4414 171.513 72.4361 171.513 77.3474C171.513 82.2586 167.518 86.2534 162.609 86.2534ZM162.609 69.7384C158.413 69.7384 155 73.1516 155 77.3474C155 81.5431 158.413 84.9564 162.609 84.9564C166.805 84.9564 170.216 81.5431 170.216 77.3474C170.216 73.1516 166.803 69.7384 162.609 69.7384Z" fill="#CCD2D6"/>
<path d="M48.1642 78.725C42.6974 78.725 37.4187 77.1232 32.8987 74.0926C25.2659 68.976 20.707 60.4439 20.707 51.2656C20.707 36.1276 33.0241 23.8105 48.1642 23.8105C54.1433 23.8105 59.8263 25.6977 64.5992 29.2687C69.2122 32.7208 72.6903 37.6386 74.3915 43.114C75.2064 45.7426 75.6214 48.4836 75.6214 51.2634C75.6214 66.4036 63.3044 78.7228 48.1642 78.7228V78.725ZM48.1642 25.1075C33.7396 25.1075 22.004 36.8409 22.004 51.2656C22.004 60.0094 26.3468 68.1394 33.6207 73.0139C37.9267 75.9019 42.9547 77.428 48.1642 77.428C62.5889 77.428 74.3245 65.6924 74.3245 51.2656C74.3245 48.6176 73.931 46.0042 73.1529 43.501C69.7353 32.5004 59.6944 25.1075 48.1642 25.1075Z" fill="white"/>
<path d="M73.771 43.3085C70.3794 32.3879 60.2002 24.459 48.1642 24.459C33.3591 24.459 21.3555 36.4604 21.3555 51.2655C21.3555 60.5563 26.083 68.7424 33.2596 73.5521C37.5224 76.412 42.6498 78.0764 48.1642 78.0764C62.9693 78.0764 74.9707 66.0728 74.9707 51.2677C74.9707 48.4965 74.5492 45.8247 73.771 43.3107V43.3085ZM43.5534 59.8235C43.5534 60.7119 42.8314 61.4339 41.943 61.4339H34.8679C33.9773 61.4339 33.2575 60.7119 33.2575 59.8235V47.0028C33.2575 46.1122 33.9773 45.3924 34.8679 45.3924H41.943C42.8314 45.3924 43.5534 46.1122 43.5534 47.0028V59.8235ZM63.4773 48.6046L60.6607 59.3458C60.3386 60.5757 59.2275 61.4318 57.9586 61.4318H46.9472L45.5745 60.2191C45.1444 59.8386 44.9001 59.2917 44.9001 58.7211V47.8955C44.9001 46.7909 45.795 45.8939 46.9018 45.8939C46.9018 45.8939 50.1529 36.9446 52.3383 36.9446C52.388 36.9446 52.4378 36.949 52.4853 36.9598C54.6729 37.3813 54.3919 45.1027 54.3919 45.1027H60.7752C62.6061 45.1027 63.942 46.8342 63.4794 48.6046H63.4773Z" fill="#D1000C"/>
<path d="M43.5498 47.003V59.8237C43.5498 60.7122 42.8278 61.4341 41.9394 61.4341H34.8643C33.9737 61.4341 33.2539 60.7122 33.2539 59.8237V47.003C33.2539 46.1124 33.9737 45.3926 34.8643 45.3926H41.9394C42.8278 45.3926 43.5498 46.1124 43.5498 47.003Z" fill="white"/>
<path opacity="0.75" d="M63.4756 48.6033L60.659 59.3445C60.3369 60.5745 59.2258 61.4305 57.9569 61.4305H46.9455L45.5729 60.2178C45.1427 59.8373 44.8984 59.2904 44.8984 58.7198V47.8943C44.8984 46.7897 45.7934 45.8926 46.9001 45.8926C46.9001 45.8926 50.1512 36.9434 52.3366 36.9434C52.3864 36.9434 52.4361 36.9477 52.4836 36.9585C54.6712 37.38 54.3902 45.1014 54.3902 45.1014H60.7736C62.6045 45.1014 63.9404 46.8329 63.4778 48.6033H63.4756Z" fill="white"/>
<path d="M129.677 68.7021C134.446 68.7021 138.322 72.5735 138.322 77.3457C138.322 82.1197 134.451 85.9912 129.677 85.9912C124.903 85.991 121.036 82.1193 121.036 77.3457C121.036 72.5717 124.907 68.7024 129.677 68.7021Z" fill="white" stroke="#010101" stroke-width="0.77178"/>
<path d="M162.61 68.7021C167.383 68.7021 171.252 72.5738 171.252 77.3457C171.252 82.1196 167.38 85.9912 162.61 85.9912C157.841 85.991 153.97 82.1195 153.97 77.3457C153.97 72.5717 157.838 68.7024 162.61 68.7021Z" fill="white" stroke="#010101" stroke-width="0.77178"/>
<path d="M164.792 97.6982C166.287 97.6983 167.499 98.9105 167.499 100.405C167.499 101.9 166.284 103.113 164.792 103.113H127.501C126.006 103.113 124.794 101.898 124.794 100.405C124.794 98.9127 126.008 97.6984 127.501 97.6982H164.792Z" fill="white" stroke="#010101" stroke-width="0.77178"/>
<path d="M88.1972 86.9025H50.5586C50.1998 86.9025 49.9102 86.6128 49.9102 86.254C49.9102 85.8951 50.1998 85.6055 50.5586 85.6055H88.1972C88.556 85.6055 88.8457 85.8951 88.8457 86.254C88.8457 86.6128 88.556 86.9025 88.1972 86.9025Z" fill="white"/>
<path d="M76.2174 95.8693H50.5586C50.1998 95.8693 49.9102 95.5796 49.9102 95.2208C49.9102 94.8619 50.1998 94.5723 50.5586 94.5723H76.2174C76.5762 94.5723 76.8659 94.8619 76.8659 95.2208C76.8659 95.5796 76.5762 95.8693 76.2174 95.8693Z" fill="white"/>
<path d="M76.2174 104.838H50.5586C50.1998 104.838 49.9102 104.548 49.9102 104.19C49.9102 103.831 50.1998 103.541 50.5586 103.541H76.2174C76.5762 103.541 76.8659 103.831 76.8659 104.19C76.8659 104.548 76.5762 104.838 76.2174 104.838Z" fill="white"/>
<path d="M114.037 123.585V153.948C114.037 156.829 111.703 159.166 108.819 159.166H76.347L68.5932 166.047C66.9006 167.547 64.2288 166.347 64.2288 164.084V159.166H55.7768C52.8953 159.166 50.5586 156.829 50.5586 153.948V123.585C50.5586 120.704 52.8953 118.367 55.7768 118.367H108.819C111.703 118.367 114.037 120.704 114.037 123.585Z" fill="#D1000C"/>
<path d="M82.2939 125.345C85.0349 125.345 87.1158 126.253 88.5889 128.036C90.071 129.831 90.8398 132.399 90.8398 135.791V140.451C90.8398 143.857 90.0746 146.423 88.5977 148.206C87.129 149.979 85.0588 150.878 82.3281 150.878C79.5963 150.878 77.488 149.971 76.0156 148.187C74.5334 146.392 73.7646 143.83 73.7646 140.449V135.771C73.7647 132.366 74.529 129.801 76.0059 128.018C77.4742 126.245 79.5516 125.345 82.2939 125.345ZM82.2939 129.147C81.7205 129.147 81.2104 129.264 80.7725 129.515C80.3882 129.735 80.0776 130.048 79.832 130.441L79.7305 130.614C79.223 131.539 78.9727 132.894 78.9355 134.624V141.174C78.9356 143.101 79.1749 144.579 79.7021 145.551C79.971 146.046 80.3285 146.435 80.7793 146.696C81.2293 146.957 81.7506 147.08 82.3281 147.08C82.9043 147.08 83.4133 146.961 83.8516 146.704C84.2898 146.447 84.6319 146.068 84.8984 145.589C85.4265 144.64 85.6734 143.209 85.6865 141.352V135.018C85.6865 133.158 85.4463 131.707 84.9199 130.715C84.6521 130.208 84.2946 129.811 83.8438 129.542C83.3935 129.274 82.8718 129.148 82.2939 129.147Z" fill="white" stroke="#010101" stroke-width="0.77178"/>
<path d="M66.8618 167.361C66.4078 167.361 65.9474 167.263 65.5086 167.067C64.3175 166.531 63.5782 165.387 63.5782 164.081V159.814H55.7768C52.5409 159.814 49.9102 157.182 49.9102 153.948V123.587C49.9102 120.351 52.543 117.721 55.7768 117.721H108.817C112.051 117.721 114.682 120.354 114.682 123.587V153.948C114.682 157.184 112.051 159.814 108.817 159.814H76.5892L69.0191 166.533C68.403 167.08 67.64 167.363 66.8596 167.363L66.8618 167.361ZM55.7768 119.016C53.2564 119.016 51.2071 121.065 51.2071 123.585V153.946C51.2071 156.466 53.2564 158.515 55.7768 158.515H64.8752V164.079C64.8752 164.881 65.3119 165.554 66.0403 165.882C66.7688 166.211 67.5621 166.09 68.1588 165.558L76.0963 158.513H108.817C111.335 158.513 113.385 156.464 113.385 153.943V123.583C113.385 121.063 111.335 119.013 108.817 119.013H55.7768V119.016Z" fill="white"/>
</svg>
