<svg width="22" height="22" viewBox="0 0 22 22" fill="none" xmlns="http://www.w3.org/2000/svg">
<path d="M8.80051 5.15249L8.58723 4.67264C8.29997 4.02629 8.15634 3.70311 7.91996 3.47469C7.76392 3.3239 7.58031 3.20457 7.37915 3.12323C7.0744 3 6.72075 3 6.01343 3C4.96024 3 4.43365 3 4.02336 3.25569C3.77172 3.4125 3.53105 3.67874 3.40033 3.94489C3.18722 4.37882 3.23557 4.8569 3.33225 5.81306C4.13456 13.7472 8.50279 18.1154 16.4369 18.9177C17.3932 19.0144 17.8712 19.0628 18.3052 18.8496C18.5713 18.719 18.8375 18.4783 18.9943 18.2267C19.25 17.8163 19.25 17.2897 19.25 16.2366C19.25 15.5292 19.25 15.1756 19.1268 14.8709C19.0455 14.6697 18.9261 14.486 18.7753 14.3301C18.5469 14.0937 18.2237 13.95 17.5774 13.6628L17.0975 13.4495C16.5312 13.1978 16.248 13.0719 15.9639 13.048C15.6618 13.0225 15.3584 13.079 15.0854 13.2111C14.8289 13.3354 14.6098 13.5545 14.1715 13.9928C13.7403 14.424 13.5248 14.6395 13.2441 14.7665C12.9708 14.89 12.5869 14.9425 12.2906 14.8969C11.9861 14.85 11.7622 14.7238 11.3146 14.4712C9.72771 13.5762 8.67379 12.5223 7.77874 10.9354C7.52626 10.4878 7.40002 10.264 7.35312 9.95939C7.30748 9.66313 7.35999 9.27915 7.48353 9.00596C7.61048 8.72521 7.82606 8.50963 8.25721 8.07848C8.69546 7.64023 8.91458 7.42111 9.03887 7.16457C9.17107 6.89168 9.22742 6.58824 9.20198 6.28608C9.17807 6.00203 9.05222 5.71884 8.80051 5.15249Z" fill="white"/>
</svg>
