<svg width="191" height="149" viewBox="0 0 191 149" fill="none" xmlns="http://www.w3.org/2000/svg">
<path d="M128.677 64.5379C115.106 64.5379 101.324 64.0037 88.4174 60.5152C75.7529 57.0896 64.1253 50.4898 53.7605 42.8373C46.9587 37.8404 40.8046 33.8806 31.9786 34.4777C23.3697 34.9147 15.133 38.0211 8.47988 43.3404C-2.7431 52.8628 -1.04255 70.478 3.42719 82.8604C10.1804 101.513 30.6668 114.476 48.1087 122.915C68.2387 132.673 90.3446 138.393 112.531 141.535C131.965 144.411 156.921 146.485 173.764 134.166C189.246 122.852 193.489 97.0183 189.699 79.576C188.778 74.4199 185.944 69.7693 181.732 66.5022C170.865 58.7868 154.654 63.9408 142.443 64.1922C137.908 64.3492 133.309 64.5379 128.677 64.5379Z" fill="#FBE6E6"/>
<path d="M180.468 39.709C181.082 39.709 181.555 40.1889 181.555 40.749C181.555 41.3092 181.082 41.7891 180.468 41.7891C179.854 41.789 179.381 41.3094 179.381 40.749C179.381 40.1889 179.854 39.7091 180.468 39.709Z" fill="#D1000C" stroke="#D1000C"/>
<path d="M112.026 28.7383C112.641 28.7383 113.113 29.2181 113.113 29.7783C113.113 30.3386 112.641 30.8184 112.026 30.8184C111.412 30.8183 110.939 30.3385 110.939 29.7783C110.94 29.2182 111.412 28.7384 112.026 28.7383Z" fill="#D1000C" stroke="#D1000C"/>
<path d="M48.6367 131.17V137.928" stroke="#D1000C" stroke-width="5.095" stroke-linecap="round" stroke-linejoin="round"/>
<path d="M45.1602 134.545H52.1238" stroke="#D1000C" stroke-width="5.095" stroke-linecap="round" stroke-linejoin="round"/>
<path d="M23.1055 2.54688V9.3046" stroke="#D1000C" stroke-width="5.095" stroke-linecap="round" stroke-linejoin="round"/>
<path d="M19.6133 5.92969H26.5932" stroke="#D1000C" stroke-width="5.095" stroke-linecap="round" stroke-linejoin="round"/>
<path d="M149.342 37.3555V44.1289V37.3555Z" fill="#D1000C"/>
<path d="M149.342 37.3555V44.1289" stroke="#D1000C" stroke-width="5.095" stroke-linecap="round" stroke-linejoin="round"/>
<path d="M145.861 40.748H152.825H145.861Z" fill="#D1000C"/>
<path d="M145.861 40.748H152.825" stroke="#D1000C" stroke-width="5.095" stroke-linecap="round" stroke-linejoin="round"/>
<path d="M86.312 127.83C93.7935 137.979 105.117 144.836 117.8 146.897C130.483 148.96 143.491 146.058 153.974 138.83C155.269 137.937 156.518 136.983 157.715 135.97L177.035 141.643L169.634 120.665C173.328 113.161 174.912 104.842 174.222 96.5531C173.532 88.2641 170.596 80.2992 165.71 73.4675C160.822 66.6354 154.162 61.1792 146.4 57.6524C138.637 54.1257 130.053 52.6539 121.515 53.3864C112.978 54.1189 104.792 57.03 97.789 61.8235C90.7856 66.6172 85.2138 73.1233 81.6392 80.6813C78.0642 88.2394 76.6135 96.5806 77.4342 104.859C78.2549 113.136 81.3178 121.056 86.3123 127.814V127.83H86.312Z" fill="white" stroke="#828282" stroke-width="2" stroke-linecap="round" stroke-linejoin="round"/>
<path d="M142.625 103.604C144.396 103.604 145.831 102.211 145.831 100.493C145.831 98.7742 144.396 97.3809 142.625 97.3809C140.853 97.3809 139.418 98.7742 139.418 100.493C139.418 102.211 140.853 103.604 142.625 103.604Z" fill="#828282"/>
<path d="M127.15 103.604C128.922 103.604 130.356 102.211 130.356 100.493C130.356 98.7742 128.922 97.3809 127.15 97.3809C125.378 97.3809 123.943 98.7742 123.943 100.493C123.943 102.211 125.378 103.604 127.15 103.604Z" fill="#828282"/>
<path d="M111.707 103.604C113.477 103.604 114.913 102.211 114.913 100.493C114.913 98.7742 113.477 97.3809 111.707 97.3809C109.936 97.3809 108.5 98.7742 108.5 100.493C108.5 102.211 109.935 103.604 111.707 103.604Z" fill="#828282"/>
<path d="M102.155 95.7616C94.6733 105.911 83.3499 112.767 70.6666 114.83C57.9834 116.891 44.975 113.99 34.493 106.761C33.1936 105.874 31.945 104.919 30.7521 103.901L11.4316 109.606L18.8327 88.6119C15.1382 81.1081 13.5556 72.7894 14.2447 64.5004C14.9338 56.2114 17.8708 48.2465 22.7573 41.4147C27.6437 34.5826 34.3058 29.1264 42.0676 25.5997C49.8294 22.0729 58.4144 20.6011 66.9515 21.3336C75.4889 22.0661 83.6747 24.9773 90.6778 29.7707C97.6812 34.5644 103.253 41.0705 106.828 48.6286C110.403 56.1867 111.854 64.5278 111.033 72.8058C110.212 81.0834 107.149 89.0032 102.155 95.7616Z" fill="#D1000C" stroke="#010101" stroke-width="2" stroke-linecap="round" stroke-linejoin="round"/>
<path d="M51 83.0469C52.3833 80.6315 54.3464 78.6262 56.699 77.2248C59.0516 75.8234 61.7145 75.0735 64.4296 75.0476C67.1448 75.0216 69.8205 75.7206 72.1979 77.0768C74.5753 78.433 76.5739 80.4006 78 82.7891" stroke="white" stroke-width="3" stroke-linecap="round" stroke-linejoin="round"/>
<path d="M81.014 63.7405C82.2749 63.7405 83.2975 62.7485 83.2975 61.5246C83.2975 60.3006 82.2752 59.3086 81.014 59.3086C79.753 59.3086 78.7305 60.3006 78.7305 61.5246C78.7305 62.7485 79.753 63.7405 81.014 63.7405Z" fill="white"/>
<path d="M44.8362 63.7405C46.0972 63.7405 47.1197 62.7485 47.1197 61.5246C47.1197 60.3006 46.0975 59.3086 44.8362 59.3086C43.5753 59.3086 42.5527 60.3006 42.5527 61.5246C42.5527 62.7485 43.5753 63.7405 44.8362 63.7405Z" fill="white"/>
</svg>
