<svg width="40" height="40" viewBox="0 0 40 40" fill="none" xmlns="http://www.w3.org/2000/svg">
<rect width="40" height="40" rx="20" fill="#F3F3F3"/>
<path d="M23.5 26.5C23.5 28.433 21.933 30 20 30C18.067 30 16.5 28.433 16.5 26.5" stroke="#010101" stroke-width="1.5" stroke-linecap="round" stroke-linejoin="round"/>
<path d="M27 19.5V20.7558C27 21.5514 27.3161 22.3145 27.8787 22.8771L28.4819 23.4803C28.8136 23.8121 29 24.262 29 24.7311C29 25.708 28.208 26.5 27.2311 26.5H12.7689C11.7919 26.5 11 25.708 11 24.7311C11 24.262 11.1864 23.8121 11.5181 23.4803L12.1213 22.8771C12.6839 22.3145 13 21.5514 13 20.7558V18C13 14.134 16.134 11 20 11" stroke="#010101" stroke-width="1.5" stroke-linecap="round" stroke-linejoin="round"/>
</svg>
