<svg width="115" height="115" viewBox="0 0 115 115" fill="none" xmlns="http://www.w3.org/2000/svg">
<path opacity="0.1" d="M100.836 80.0733C100.836 80.0733 98.3316 83.3935 95.8269 87.9488C93.569 92.0568 91.8518 97.592 91.4726 102.213C90.4091 102.163 89.241 102.116 87.9781 102.071C80.4984 101.806 69.7001 101.639 57.6933 101.639C44.0433 101.639 31.9555 101.855 24.5298 102.185C24.2742 102.197 24.024 102.208 23.7795 102.22C14.5088 90.7292 -4.15949 70.7102 13.0204 62.4748C13.0204 62.4748 14.279 62.0915 16.1659 61.2681C22.1379 58.6616 34.4102 51.6478 33.0451 38.4234C33.0451 38.4234 32.58 35.9557 32.58 32.522C32.58 24.493 35.1219 11.1842 52.0915 11.7916C62.3679 12.1599 71.8321 17.3893 77.5539 25.7595C83.1663 33.9691 92.1401 44.07 99.4481 38.3033C101.135 36.9717 103.366 36.4784 105.448 37.0638C110.708 38.5413 116.684 46.1902 100.836 80.0733Z" fill="#EB8383"/>
<path d="M112.767 103.835C112.767 104.452 88.2731 104.952 58.0583 104.952C41.01 104.952 25.7832 104.793 15.7496 104.543C13.4386 104.486 11.4034 104.423 9.68488 104.357C8.55293 104.314 7.5584 104.268 6.71294 104.221C4.53767 104.101 3.34961 103.971 3.34961 103.835C3.34961 103.662 5.2779 103.498 8.71956 103.352C10.129 103.292 11.7921 103.235 13.6806 103.182C23.6172 102.902 39.7924 102.719 58.0583 102.719C74.1254 102.719 88.5749 102.86 98.5838 103.085C107.397 103.283 112.767 103.547 112.767 103.835Z" fill="#F3F3F3"/>
<path d="M58.1488 37.4387C60.6216 37.4388 62.6263 39.4214 62.6263 41.8672V92.1353C62.6263 94.5809 60.6216 96.5637 58.1488 96.5637C57.6678 96.5637 57.1904 96.4858 56.7341 96.3354L42.3185 91.5848C40.332 90.9295 38.9922 89.0905 38.9922 87.0192V46.9831C38.9922 44.912 40.332 43.073 42.3185 42.4177L56.7341 37.667C57.1904 37.5167 57.6678 37.4387 58.1488 37.4387Z" fill="#D1000C"/>
<path d="M79.3084 85.5639V83.5014C79.3084 81.9826 78.0635 80.7514 76.5279 80.7514C74.9922 80.7514 73.7474 81.9826 73.7474 83.5014V85.5639H59.8449C58.3093 85.5639 57.0645 86.7951 57.0645 88.3139C57.0645 89.8327 58.3093 91.0639 59.8449 91.0639H73.7474C76.8187 91.0639 79.3084 88.6016 79.3084 85.5639ZM79.3084 50.5015V48.439C79.3084 45.4014 76.8187 42.939 73.7474 42.939H59.8449C58.3093 42.939 57.0645 44.1702 57.0645 45.689C57.0645 47.2078 58.3093 48.439 59.8449 48.439H73.7474V50.5015C73.7474 52.0203 74.9922 53.2515 76.5279 53.2515C78.0635 53.2515 79.3084 52.0203 79.3084 50.5015Z" fill="#D1000C"/>
<path d="M81.512 58.1819C82.5978 57.108 84.3579 57.108 85.4437 58.1819L92.3949 65.0569C92.9165 65.5728 93.2096 66.2718 93.2096 67.0011C93.2096 67.7307 92.9165 68.4298 92.3949 68.9457L85.4437 75.8207C84.3579 76.8945 82.5978 76.8945 81.512 75.8207C80.426 74.7468 80.426 73.0058 81.512 71.9319L83.7167 69.7511H69.5754C68.0397 69.7511 66.7949 68.52 66.7949 67.0011C66.7949 65.4826 68.0397 64.2511 69.5754 64.2511H83.7167L81.512 62.0707L81.3219 61.8611C80.4313 60.781 80.4941 59.1887 81.512 58.1819Z" fill="#D1000C"/>
</svg>
