<svg width="335" height="241" viewBox="0 0 335 241" fill="none" xmlns="http://www.w3.org/2000/svg">
<mask id="mask0_2725_60838" style="mask-type:luminance" maskUnits="userSpaceOnUse" x="0" y="-111" width="335" height="352">
<path d="M335 -110.001H0V240.999H335V-110.001Z" fill="white"/>
</mask>
<g mask="url(#mask0_2725_60838)">
<path d="M276.834 114.237L277.799 116.94C277.799 116.94 275.1 115.771 272.421 117.216C272.014 114.861 274.183 113.793 274.542 113.647C274.9 113.495 276.347 113.709 276.834 114.237Z" fill="url(#paint0_linear_2725_60838)"/>
<path d="M171.493 3.28828C169.896 3.10839 166.611 0.940283 165.595 -0.584044L166.807 -3.04102C167.146 -1.99955 170.358 1.21009 172.834 2.16634L171.493 3.28828Z" fill="url(#paint1_linear_2725_60838)"/>
<path d="M79.3657 65.5765L82.0696 64.7729C82.0696 64.7729 80.9005 67.0203 82.3451 69.2519C79.9898 69.59 78.9217 67.7841 78.7756 67.4857C78.6182 67.1874 78.8373 65.9822 79.3657 65.5765Z" fill="url(#paint2_linear_2725_60838)"/>
<path d="M300.2 -0.96358L302.949 0.284853C301.777 -1.95241 302.466 -3.92081 302.06 -5.09184C301.746 -5.99403 299.292 -6.90986 298.398 -7.06934C300.674 -5.60668 299.009 -2.74519 300.2 -0.96358Z" fill="url(#paint3_linear_2725_60838)"/>
<path d="M244.462 76.5517L246.984 77.8912C247.549 77.0073 248.589 76.4104 250.198 76.7795C249.66 76.2464 249.25 75.7726 247.326 75.0207C246.386 74.6516 245.196 75.4673 244.462 76.5517Z" fill="url(#paint4_linear_2725_60838)"/>
<path d="M248.792 81.0364L251.542 82.285C250.37 80.0477 251.059 78.0792 250.653 76.9082C250.338 76.006 247.885 75.0901 246.991 74.9307C249.267 76.3888 247.602 79.2503 248.792 81.0364Z" fill="url(#paint5_linear_2725_60838)"/>
<path d="M34.2426 51.2104H36.5092C37.4806 50.4825 37.4807 47.7636 34.7823 46.6895H31.6719C34.8461 47.5393 35.5378 49.9788 34.2426 51.2104Z" fill="url(#paint6_linear_2725_60838)"/>
<path d="M129.399 90.3759C129.946 88.889 132.819 86.2162 134.535 85.5693L136.638 87.2584C135.549 87.3572 131.687 89.738 130.178 91.8986L129.399 90.3759Z" fill="url(#paint7_linear_2725_60838)"/>
<path d="M19.9082 21.8607C19.9795 20.1495 21.1563 18.3174 22.6228 17.7554C22.0478 18.4882 21.5486 21.7024 22.1771 23.1805L19.9082 21.8607Z" fill="url(#paint8_linear_2725_60838)"/>
<path d="M134.7 -2.9847L133.019 -1.69417C136.415 -1.76257 135.622 1.42519 138.251 1.47991L140.258 -0.102465C136.707 0.33989 137.453 -3.55019 134.7 -2.9847Z" fill="url(#paint9_linear_2725_60838)"/>
<path d="M157.069 145.246C158.182 146.698 158.68 149.093 158.13 150.671C157.994 149.632 156.135 146.626 154.735 145.9L157.069 145.246Z" fill="url(#paint10_linear_2725_60838)"/>
<path d="M106.349 0.575684L108.587 1.44202C108.587 1.44202 106.052 2.55465 105.056 5.09661C103.406 4.05872 104.273 2.05329 104.43 1.74105C104.588 1.4244 105.705 0.602071 106.349 0.575684Z" fill="url(#paint11_linear_2725_60838)"/>
<path d="M256.082 32.464L257.662 34.0303C258.972 34.0734 261.335 31.731 260.388 28.9433L258.223 26.7974C259.692 29.7192 258.054 32.3011 256.082 32.464Z" fill="url(#paint12_linear_2725_60838)"/>
<path d="M327.568 4.43414L328.834 6.00047C329.883 6.04358 331.771 3.70612 331.013 0.913517L329.279 -1.23242C330.459 1.68952 329.147 4.27128 327.568 4.43414Z" fill="url(#paint13_linear_2725_60838)"/>
<path d="M120.35 39.7573C120.315 41.3188 118.594 44.6731 117.279 45.7852L114.921 44.811C115.847 44.3973 118.533 41.0252 119.21 38.5518L120.35 39.7573Z" fill="url(#paint14_linear_2725_60838)"/>
<path d="M58.976 12.3492C60.2649 13.4348 64.2175 14.3896 66.0601 14.0794L66.9623 11.4041C65.9598 11.8887 61.3054 11.7239 58.8184 10.522L58.976 12.3492Z" fill="url(#paint15_linear_2725_60838)"/>
<path d="M330.283 40.1876L331.286 42.1681C331.924 38.6284 335.109 40.0334 335.712 37.3095L334.471 34.9346C334.193 38.7099 330.264 37.2235 330.283 40.1876Z" fill="url(#paint16_linear_2725_60838)"/>
<path d="M174.584 39.032L175.548 41.0579C175.548 41.0579 172.849 40.1818 170.17 41.2643C169.764 39.4995 171.932 38.6992 172.291 38.5896C172.649 38.4717 174.096 38.6318 174.584 39.032Z" fill="url(#paint17_linear_2725_60838)"/>
<path d="M240.639 -0.594486L241.604 2.10886C241.604 2.10886 238.905 0.939877 236.225 2.38432C235.819 0.0293719 237.988 -1.03856 238.346 -1.18469C238.704 -1.33644 240.147 -1.1228 240.639 -0.594486Z" fill="url(#paint18_linear_2725_60838)"/>
<path d="M219.888 37.5137C221.077 36.1127 223.073 35.4465 224.412 36.0784C223.545 36.2695 221.073 38.6257 220.497 40.3598L219.888 37.5137Z" fill="url(#paint19_linear_2725_60838)"/>
<path d="M211.787 2.38428C213.204 3.54703 213.927 5.53917 213.357 6.9052C213.142 6.03924 210.743 3.60395 209.028 3.06729L211.787 2.38428Z" fill="url(#paint20_linear_2725_60838)"/>
<path d="M300.621 16.0015L302.231 20.055C302.231 20.055 297.731 18.302 293.266 20.4681C292.59 16.938 296.206 15.3387 296.801 15.113C297.4 14.8872 299.804 15.2138 300.621 16.0015Z" fill="url(#paint21_linear_2725_60838)"/>
<path d="M239.429 51.7788L236.048 56.5453C236.499 59.9467 243.594 65.0232 250.416 61.3535L255.05 54.8191C248.108 59.9003 240.71 56.7952 239.429 51.7788Z" fill="url(#paint22_linear_2725_60838)"/>
<path d="M1.71035 30.8925L0.90625 32.92C0.90625 32.92 3.15542 32.0433 5.38864 33.1266C5.727 31.3604 3.91973 30.5595 3.62117 30.4499C3.32261 30.336 2.12037 30.4963 1.71035 30.8925Z" fill="url(#paint23_linear_2725_60838)"/>
<path d="M294.992 74.5751V76.84C294.264 77.8107 291.543 77.8106 290.468 75.1143V72.0063C291.314 75.1781 293.76 75.8693 294.992 74.5751Z" fill="url(#paint24_linear_2725_60838)"/>
<path d="M85.218 27.9486L85.9646 30.4141C83.028 27.9161 81.9217 31.6195 79.5906 29.7895L78.7256 26.7974C81.5848 29.7787 83.1236 25.4235 85.218 27.9486Z" fill="url(#paint25_linear_2725_60838)"/>
<path d="M194.163 17.7554C191.307 17.8743 188.254 19.8328 187.312 22.2763C188.536 21.32 193.898 20.4918 196.36 21.5351L194.163 17.7554Z" fill="url(#paint26_linear_2725_60838)"/>
<path d="M151.944 20.7686L149.235 25.0608C151.023 26.0176 152.231 27.7902 151.484 30.5333C152.564 29.6128 153.526 28.9157 155.045 25.6441C155.784 24.0447 154.133 22.017 151.944 20.7686Z" fill="url(#paint27_linear_2725_60838)"/>
<path d="M142.855 28.1201L140.329 32.7997C144.862 30.8039 148.843 31.9795 151.209 31.2869C153.033 30.7493 154.885 26.5754 155.213 25.0581C152.254 28.9266 146.462 26.0924 142.855 28.1201Z" fill="url(#paint28_linear_2725_60838)"/>
<path d="M28.0527 88.6117V90.5001C28.926 91.3106 32.1946 91.3107 33.482 89.0601V86.4731C32.464 89.1118 29.5298 89.6895 28.0527 88.6117Z" fill="url(#paint29_linear_2725_60838)"/>
<path d="M182.897 77.8617C182.572 76.961 183.009 74.7027 183.664 73.8149L185.502 73.9184C184.958 74.3365 183.862 76.7844 183.953 78.3359L182.897 77.8617Z" fill="url(#paint30_linear_2725_60838)"/>
<path d="M72.3914 125.821L71.8704 127.162C71.8704 127.162 71.2013 125.643 69.6768 125.046C70.2993 124.057 71.502 124.573 71.6926 124.671C71.8832 124.765 72.3745 125.438 72.3914 125.821Z" fill="url(#paint31_linear_2725_60838)"/>
<path d="M272.37 1.04297L271.849 2.38394C271.849 2.38394 271.18 0.864854 269.655 0.267867C270.278 -0.721172 271.481 -0.204443 271.671 -0.10643C271.862 -0.0128728 272.353 0.655377 272.37 1.04297Z" fill="url(#paint32_linear_2725_60838)"/>
<path d="M288.659 53.0387L287.964 54.8267C287.964 54.8267 287.072 52.8012 285.039 52.0053C285.869 50.6865 287.473 51.3755 287.727 51.5062C287.975 51.6369 288.636 52.5279 288.659 53.0387Z" fill="url(#paint33_linear_2725_60838)"/>
<path d="M100.443 105.999L100.31 109.982C96.6507 104.492 92.5834 108.981 89.584 104.837L89.8118 100.036C93.0627 106.151 98.2642 101.033 100.443 105.999Z" fill="url(#paint34_linear_2725_60838)"/>
</g>
<defs>
<linearGradient id="paint0_linear_2725_60838" x1="272.372" y1="115.404" x2="277.803" y2="115.404" gradientUnits="userSpaceOnUse">
<stop stop-color="#FF7A7A"/>
<stop offset="0.234" stop-color="#F65353"/>
<stop offset="0.5269" stop-color="#EB2727"/>
<stop offset="1" stop-color="#B30707"/>
</linearGradient>
<linearGradient id="paint1_linear_2725_60838" x1="171.813" y1="3.32401" x2="165.839" y2="-1.94228" gradientUnits="userSpaceOnUse">
<stop stop-color="#6FE55E"/>
<stop offset="0.4892" stop-color="#2AD02A"/>
<stop offset="0.7908" stop-color="#19AD19"/>
<stop offset="1" stop-color="#0F9A0F"/>
</linearGradient>
<linearGradient id="paint2_linear_2725_60838" x1="80.5322" y1="69.2933" x2="80.5322" y2="64.7706" gradientUnits="userSpaceOnUse">
<stop stop-color="#E873EB"/>
<stop offset="0.0665" stop-color="#E46DE6"/>
<stop offset="0.5376" stop-color="#C849C8"/>
<stop offset="0.97" stop-color="#AA21AA"/>
<stop offset="1" stop-color="#A81EA8"/>
</linearGradient>
<linearGradient id="paint3_linear_2725_60838" x1="301.016" y1="-0.492941" x2="300.315" y2="-6.45388" gradientUnits="userSpaceOnUse">
<stop stop-color="#FFB82D"/>
<stop offset="0.5" stop-color="#FF9A00"/>
<stop offset="1" stop-color="#F2760E"/>
</linearGradient>
<linearGradient id="paint4_linear_2725_60838" x1="245.985" y1="77.775" x2="248.108" y2="75.8679" gradientUnits="userSpaceOnUse">
<stop stop-color="#FFF6A9"/>
<stop offset="0.5" stop-color="#FFD617"/>
<stop offset="1" stop-color="#FF9B04"/>
</linearGradient>
<linearGradient id="paint5_linear_2725_60838" x1="249.608" y1="81.504" x2="248.907" y2="75.5429" gradientUnits="userSpaceOnUse">
<stop stop-color="#FFB82D"/>
<stop offset="0.5" stop-color="#FF9A00"/>
<stop offset="1" stop-color="#F2760E"/>
</linearGradient>
<linearGradient id="paint6_linear_2725_60838" x1="34.3879" y1="51.2096" x2="34.3879" y2="46.6883" gradientUnits="userSpaceOnUse">
<stop stop-color="#FFF6A9"/>
<stop offset="0.5" stop-color="#FFD617"/>
<stop offset="1" stop-color="#FF9B04"/>
</linearGradient>
<linearGradient id="paint7_linear_2725_60838" x1="129.289" y1="90.6717" x2="135.739" y2="86.0146" gradientUnits="userSpaceOnUse">
<stop stop-color="#FFF6A9"/>
<stop offset="0.5" stop-color="#FFD617"/>
<stop offset="1" stop-color="#FF9B04"/>
</linearGradient>
<linearGradient id="paint8_linear_2725_60838" x1="21.2651" y1="23.1801" x2="21.2651" y2="17.755" gradientUnits="userSpaceOnUse">
<stop stop-color="#FF7A7A"/>
<stop offset="0.234" stop-color="#F65353"/>
<stop offset="0.5269" stop-color="#EB2727"/>
<stop offset="1" stop-color="#B30707"/>
</linearGradient>
<linearGradient id="paint9_linear_2725_60838" x1="133.826" y1="-2.94874" x2="139.67" y2="0.813107" gradientUnits="userSpaceOnUse">
<stop stop-color="#00E5F7"/>
<stop offset="0.4731" stop-color="#0093E7"/>
<stop offset="1" stop-color="#0066DE"/>
</linearGradient>
<linearGradient id="paint10_linear_2725_60838" x1="155.315" y1="145.204" x2="159.669" y2="148.816" gradientUnits="userSpaceOnUse">
<stop stop-color="#00E5F7"/>
<stop offset="0.4731" stop-color="#0093E7"/>
<stop offset="1" stop-color="#0066DE"/>
</linearGradient>
<linearGradient id="paint11_linear_2725_60838" x1="103.967" y1="4.12765" x2="107.498" y2="0.407232" gradientUnits="userSpaceOnUse">
<stop stop-color="#E873EB"/>
<stop offset="0.0665" stop-color="#E46DE6"/>
<stop offset="0.5376" stop-color="#C849C8"/>
<stop offset="0.97" stop-color="#AA21AA"/>
<stop offset="1" stop-color="#A81EA8"/>
</linearGradient>
<linearGradient id="paint12_linear_2725_60838" x1="256.181" y1="32.5644" x2="260.073" y2="28.6373" gradientUnits="userSpaceOnUse">
<stop stop-color="#FF7A7A"/>
<stop offset="0.234" stop-color="#F65353"/>
<stop offset="0.5269" stop-color="#EB2727"/>
<stop offset="1" stop-color="#B30707"/>
</linearGradient>
<linearGradient id="paint13_linear_2725_60838" x1="327.65" y1="4.53483" x2="331.455" y2="1.46011" gradientUnits="userSpaceOnUse">
<stop stop-color="#6FE55E"/>
<stop offset="0.4892" stop-color="#2AD02A"/>
<stop offset="0.7908" stop-color="#19AD19"/>
<stop offset="1" stop-color="#0F9A0F"/>
</linearGradient>
<linearGradient id="paint14_linear_2725_60838" x1="120.355" y1="39.4451" x2="115.701" y2="45.4197" gradientUnits="userSpaceOnUse">
<stop stop-color="#FF7A7A"/>
<stop offset="0.234" stop-color="#F65353"/>
<stop offset="0.5269" stop-color="#EB2727"/>
<stop offset="1" stop-color="#B30707"/>
</linearGradient>
<linearGradient id="paint15_linear_2725_60838" x1="58.7177" y1="12.1314" x2="66.8853" y2="12.6344" gradientUnits="userSpaceOnUse">
<stop stop-color="#6FE55E"/>
<stop offset="0.4892" stop-color="#2AD02A"/>
<stop offset="0.7908" stop-color="#19AD19"/>
<stop offset="1" stop-color="#0F9A0F"/>
</linearGradient>
<linearGradient id="paint16_linear_2725_60838" x1="330.137" y1="41.103" x2="335.222" y2="35.6406" gradientUnits="userSpaceOnUse">
<stop stop-color="#FF7A7A"/>
<stop offset="0.234" stop-color="#F65353"/>
<stop offset="0.5269" stop-color="#EB2727"/>
<stop offset="1" stop-color="#B30707"/>
</linearGradient>
<linearGradient id="paint17_linear_2725_60838" x1="170.121" y1="39.9051" x2="175.553" y2="39.9051" gradientUnits="userSpaceOnUse">
<stop stop-color="#FF7A7A"/>
<stop offset="0.234" stop-color="#F65353"/>
<stop offset="0.5269" stop-color="#EB2727"/>
<stop offset="1" stop-color="#B30707"/>
</linearGradient>
<linearGradient id="paint18_linear_2725_60838" x1="236.172" y1="0.572841" x2="241.604" y2="0.572841" gradientUnits="userSpaceOnUse">
<stop stop-color="#FF7A7A"/>
<stop offset="0.234" stop-color="#F65353"/>
<stop offset="0.5269" stop-color="#EB2727"/>
<stop offset="1" stop-color="#B30707"/>
</linearGradient>
<linearGradient id="paint19_linear_2725_60838" x1="219.894" y1="39.6658" x2="224.256" y2="35.9001" gradientUnits="userSpaceOnUse">
<stop stop-color="#00E5F7"/>
<stop offset="0.4731" stop-color="#0093E7"/>
<stop offset="1" stop-color="#0066DE"/>
</linearGradient>
<linearGradient id="paint20_linear_2725_60838" x1="209.683" y1="2.44621" x2="213.647" y2="6.62818" gradientUnits="userSpaceOnUse">
<stop stop-color="#00E5F7"/>
<stop offset="0.4731" stop-color="#0093E7"/>
<stop offset="1" stop-color="#0066DE"/>
</linearGradient>
<linearGradient id="paint21_linear_2725_60838" x1="293.184" y1="17.754" x2="302.233" y2="17.754" gradientUnits="userSpaceOnUse">
<stop stop-color="#E873EB"/>
<stop offset="0.0665" stop-color="#E46DE6"/>
<stop offset="0.5376" stop-color="#C849C8"/>
<stop offset="0.97" stop-color="#AA21AA"/>
<stop offset="1" stop-color="#A81EA8"/>
</linearGradient>
<linearGradient id="paint22_linear_2725_60838" x1="239.215" y1="52.0814" x2="251.046" y2="60.4691" gradientUnits="userSpaceOnUse">
<stop stop-color="#6FE55E"/>
<stop offset="0.4892" stop-color="#2AD02A"/>
<stop offset="0.7908" stop-color="#19AD19"/>
<stop offset="1" stop-color="#0F9A0F"/>
</linearGradient>
<linearGradient id="paint23_linear_2725_60838" x1="5.43044" y1="31.7689" x2="0.90426" y2="31.7689" gradientUnits="userSpaceOnUse">
<stop stop-color="#6FE55E"/>
<stop offset="0.4892" stop-color="#2AD02A"/>
<stop offset="0.7908" stop-color="#19AD19"/>
<stop offset="1" stop-color="#0F9A0F"/>
</linearGradient>
<linearGradient id="paint24_linear_2725_60838" x1="294.991" y1="74.7207" x2="290.467" y2="74.7207" gradientUnits="userSpaceOnUse">
<stop stop-color="#E873EB"/>
<stop offset="0.0665" stop-color="#E46DE6"/>
<stop offset="0.5376" stop-color="#C849C8"/>
<stop offset="0.97" stop-color="#AA21AA"/>
<stop offset="1" stop-color="#A81EA8"/>
</linearGradient>
<linearGradient id="paint25_linear_2725_60838" x1="85.9646" y1="28.6079" x2="78.7229" y2="28.6079" gradientUnits="userSpaceOnUse">
<stop stop-color="#FF7A7A"/>
<stop offset="0.234" stop-color="#F65353"/>
<stop offset="0.5269" stop-color="#EB2727"/>
<stop offset="1" stop-color="#B30707"/>
</linearGradient>
<linearGradient id="paint26_linear_2725_60838" x1="196.363" y1="20.0177" x2="187.312" y2="20.0177" gradientUnits="userSpaceOnUse">
<stop stop-color="#6FE55E"/>
<stop offset="0.4892" stop-color="#2AD02A"/>
<stop offset="0.7908" stop-color="#19AD19"/>
<stop offset="1" stop-color="#0F9A0F"/>
</linearGradient>
<linearGradient id="paint27_linear_2725_60838" x1="149.919" y1="23.2997" x2="153.152" y2="26.9042" gradientUnits="userSpaceOnUse">
<stop stop-color="#FFF6A9"/>
<stop offset="0.5" stop-color="#FFD617"/>
<stop offset="1" stop-color="#FF9B04"/>
</linearGradient>
<linearGradient id="paint28_linear_2725_60838" x1="141.967" y1="29.6083" x2="153.902" y2="28.2032" gradientUnits="userSpaceOnUse">
<stop stop-color="#FFB82D"/>
<stop offset="0.5" stop-color="#FF9A00"/>
<stop offset="1" stop-color="#F2760E"/>
</linearGradient>
<linearGradient id="paint29_linear_2725_60838" x1="28.0547" y1="88.7306" x2="33.485" y2="88.7306" gradientUnits="userSpaceOnUse">
<stop stop-color="#00E5F7"/>
<stop offset="0.4731" stop-color="#0093E7"/>
<stop offset="1" stop-color="#0066DE"/>
</linearGradient>
<linearGradient id="paint30_linear_2725_60838" x1="182.964" y1="78.0418" x2="184.282" y2="73.5576" gradientUnits="userSpaceOnUse">
<stop stop-color="#00E5F7"/>
<stop offset="0.4731" stop-color="#0093E7"/>
<stop offset="1" stop-color="#0066DE"/>
</linearGradient>
<linearGradient id="paint31_linear_2725_60838" x1="70.2596" y1="124.395" x2="72.4887" y2="126.514" gradientUnits="userSpaceOnUse">
<stop stop-color="#6FE55E"/>
<stop offset="0.4892" stop-color="#2AD02A"/>
<stop offset="0.7908" stop-color="#19AD19"/>
<stop offset="1" stop-color="#0F9A0F"/>
</linearGradient>
<linearGradient id="paint32_linear_2725_60838" x1="270.238" y1="-0.384651" x2="272.467" y2="1.73429" gradientUnits="userSpaceOnUse">
<stop stop-color="#6FE55E"/>
<stop offset="0.4892" stop-color="#2AD02A"/>
<stop offset="0.7908" stop-color="#19AD19"/>
<stop offset="1" stop-color="#0F9A0F"/>
</linearGradient>
<linearGradient id="paint33_linear_2725_60838" x1="285.814" y1="51.139" x2="288.786" y2="53.9647" gradientUnits="userSpaceOnUse">
<stop stop-color="#6FE55E"/>
<stop offset="0.4892" stop-color="#2AD02A"/>
<stop offset="0.7908" stop-color="#19AD19"/>
<stop offset="1" stop-color="#0F9A0F"/>
</linearGradient>
<linearGradient id="paint34_linear_2725_60838" x1="101.359" y1="107.429" x2="88.8778" y2="102.306" gradientUnits="userSpaceOnUse">
<stop stop-color="#FF7A7A"/>
<stop offset="0.234" stop-color="#F65353"/>
<stop offset="0.5269" stop-color="#EB2727"/>
<stop offset="1" stop-color="#B30707"/>
</linearGradient>
</defs>
</svg>
