<svg width="200" height="145" viewBox="0 0 200 145" fill="none" xmlns="http://www.w3.org/2000/svg">
<path d="M117.85 62.8267C105.417 62.9048 92.7897 62.2953 80.979 58.8418C69.1682 55.3882 58.7227 48.8718 49.2268 41.2616C43.0099 36.308 37.3567 32.37 29.285 32.9636C21.3929 33.4006 13.844 36.5016 7.75571 41.8083C-2.51174 51.2783 -0.95398 68.7801 3.14119 81.0941C9.31347 99.6432 28.0978 112.52 44.0483 120.911C62.4913 130.615 82.7446 136.257 103.057 139.492C120.862 142.336 143.727 144.414 159.143 132.163C173.313 120.927 177.2 95.2363 173.728 77.8906C172.882 72.7675 170.293 68.1447 166.443 64.889C156.487 57.2319 141.65 62.3419 130.462 62.6075C126.382 62.7017 122.094 62.8112 117.85 62.8267Z" fill="#FBE6E6"/>
<path d="M57.2227 2.17773V8.89728" stroke="#D1000C" stroke-width="4.3565" stroke-linecap="round" stroke-linejoin="round"/>
<path d="M54.0371 5.53711H60.4172" stroke="#D1000C" stroke-width="4.3565" stroke-linecap="round" stroke-linejoin="round"/>
<path d="M178.27 136.111V142.831" stroke="#D1000C" stroke-width="4.3565" stroke-linecap="round" stroke-linejoin="round"/>
<path d="M175.078 139.475H181.458" stroke="#D1000C" stroke-width="4.3565" stroke-linecap="round" stroke-linejoin="round"/>
<path d="M9.01697 107.092C9.82022 107.092 10.4714 106.407 10.4714 105.561C10.4714 104.715 9.82022 104.029 9.01697 104.029C8.21373 104.029 7.5625 104.715 7.5625 105.561C7.5625 106.407 8.21344 107.092 9.01697 107.092Z" fill="#D1000C"/>
<path d="M132.826 9.1196C133.629 9.1196 134.28 8.43389 134.28 7.58812C134.28 6.74234 133.629 6.05664 132.826 6.05664C132.023 6.05664 131.371 6.74234 131.371 7.58812C131.371 8.43359 132.023 9.1196 132.826 9.1196Z" fill="#D1000C"/>
<path d="M51.0528 20.1777H130.137C132.104 20.1777 133.991 21.0009 135.383 22.4663C136.773 23.9316 137.555 25.9189 137.555 27.9912V127.081C137.555 129.153 136.773 131.141 135.383 132.607C133.991 134.071 132.104 134.894 130.137 134.894H40.9188C38.9512 134.894 37.0642 134.071 35.6729 132.607C34.2816 131.141 33.5 129.153 33.5 127.081V38.8518L51.0528 20.1777Z" fill="white" stroke="#010101" stroke-linecap="round" stroke-linejoin="round"/>
<path d="M136.728 68.7168H55.1816V136.1H136.728V68.7168Z" fill="#010101"/>
<path d="M33.0234 39.1015H47.4011C48.2447 39.0976 49.0521 38.7418 49.6473 38.1122C50.2425 37.4822 50.5766 36.6304 50.5766 35.7419V20.4277L33.0234 39.1015Z" fill="#010101"/>
<path d="M136.322 47.1973H55.6652C52.5268 47.1973 49.9824 49.877 49.9824 53.1823V71.3564C49.9824 74.662 52.5268 77.3415 55.6652 77.3415H136.322C139.46 77.3415 142.004 74.662 142.004 71.3564V53.1823C142.005 49.877 139.46 47.1973 136.322 47.1973Z" fill="#D1000C" stroke="#010101" stroke-linecap="round" stroke-linejoin="round"/>
<path d="M68.5 65.5059C70.1568 65.5059 71.5 64.1628 71.5 62.5059C71.5 60.8489 70.1569 59.5059 68.5 59.5059C66.8431 59.5059 65.5 60.8489 65.5 62.5059C65.5 64.1628 66.8431 65.5059 68.5 65.5059Z" fill="white"/>
<path d="M81.7266 65.3105C83.3833 65.3105 84.7266 63.9675 84.7266 62.3105C84.7266 60.6536 83.3835 59.3105 81.7266 59.3105C80.0696 59.3105 78.7266 60.6536 78.7266 62.3105C78.7266 63.9675 80.0696 65.3105 81.7266 65.3105Z" fill="white"/>
<path d="M93.7266 65.3105C95.3833 65.3105 96.7266 63.9675 96.7266 62.3105C96.7266 60.6536 95.3835 59.3105 93.7266 59.3105C92.0696 59.3105 90.7266 60.6536 90.7266 62.3105C90.7266 63.9675 92.0696 65.3105 93.7266 65.3105Z" fill="white"/>
<path d="M136.32 79.6074H55.6632C52.5248 79.6074 49.9805 82.2868 49.9805 85.5925V103.767C49.9805 107.072 52.5248 109.752 55.6632 109.752H136.32C139.458 109.752 142.003 107.072 142.003 103.767V85.5925C142.003 82.2868 139.458 79.6074 136.32 79.6074Z" fill="#D1000C" stroke="#010101" stroke-linecap="round" stroke-linejoin="round"/>
<path d="M65.6543 98.7324C67.311 98.7324 68.6543 97.3893 68.6543 95.7324C68.6543 94.0755 67.3112 92.7324 65.6543 92.7324C63.9974 92.7324 62.6543 94.0755 62.6543 95.7324C62.6543 97.3893 63.9974 98.7324 65.6543 98.7324Z" fill="white"/>
<path d="M81.2324 98.7324C82.8892 98.7324 84.2324 97.3893 84.2324 95.7324C84.2324 94.0755 82.8893 92.7324 81.2324 92.7324C79.5755 92.7324 78.2324 94.0755 78.2324 95.7324C78.2324 97.3893 79.5755 98.7324 81.2324 98.7324Z" fill="white"/>
<path d="M96.7949 98.7324C98.4517 98.7324 99.7949 97.3893 99.7949 95.7324C99.7949 94.0755 98.4518 92.7324 96.7949 92.7324C95.138 92.7324 93.7949 94.0755 93.7949 95.7324C93.7949 97.3893 95.138 98.7324 96.7949 98.7324Z" fill="white"/>
<path d="M136.32 112.033H55.6632C52.5248 112.033 49.9805 114.713 49.9805 118.018V136.192C49.9805 139.497 52.5248 142.177 55.6632 142.177H136.32C139.458 142.177 142.003 139.497 142.003 136.192V118.018C142.003 114.713 139.458 112.033 136.32 112.033Z" fill="#D1000C" stroke="#010101" stroke-linecap="round" stroke-linejoin="round"/>
<path d="M65.6543 132.139C67.311 132.139 68.6543 130.796 68.6543 129.139C68.6543 127.482 67.3112 126.139 65.6543 126.139C63.9974 126.139 62.6543 127.482 62.6543 129.139C62.6543 130.796 63.9974 132.139 65.6543 132.139Z" fill="white"/>
<path d="M81.2324 132.139C82.8892 132.139 84.2324 130.796 84.2324 129.139C84.2324 127.482 82.8893 126.139 81.2324 126.139C79.5755 126.139 78.2324 127.482 78.2324 129.139C78.2324 130.796 79.5755 132.139 81.2324 132.139Z" fill="white"/>
<path d="M96.7949 132.139C98.4517 132.139 99.7949 130.796 99.7949 129.139C99.7949 127.482 98.4518 126.139 96.7949 126.139C95.138 126.139 93.7949 127.482 93.7949 129.139C93.7949 130.796 95.138 132.139 96.7949 132.139Z" fill="white"/>
<path d="M143.623 85.2593C160.611 85.2593 174.381 70.7558 174.381 52.865C174.381 34.9742 160.611 20.4707 143.623 20.4707C126.636 20.4707 112.865 34.9742 112.865 52.865C112.865 70.7558 126.636 85.2593 143.623 85.2593Z" fill="white" stroke="#010101" stroke-width="5.32" stroke-linecap="round" stroke-linejoin="round"/>
<path d="M165.467 76.373L173.657 84.9991" stroke="#010101" stroke-width="5.1253" stroke-linecap="round" stroke-linejoin="round"/>
<path d="M172.742 80.8094L170.2 83.6107C169.056 84.8709 169.098 86.8691 170.295 88.0738L192.39 110.318C193.586 111.523 195.483 111.478 196.626 110.218L199.169 107.416C200.313 106.156 200.27 104.158 199.074 102.953L176.98 80.7088C175.784 79.5041 173.886 79.5493 172.742 80.8094Z" fill="#010101"/>
</svg>
