<svg width="220" height="220" viewBox="0 0 220 220" fill="none" xmlns="http://www.w3.org/2000/svg">
<g clip-path="url(#clip0_2725_85670)">
<mask id="mask0_2725_85670" style="mask-type:luminance" maskUnits="userSpaceOnUse" x="0" y="0" width="220" height="220">
<path d="M220 220H0V0H220V220Z" fill="white"/>
</mask>
<g mask="url(#mask0_2725_85670)">
<path d="M20.0633 204.764C20.0633 204.764 0.0641937 167.855 12.195 131.175C20.1029 107.267 44.3491 82.3047 67.6284 98.7288C77.5658 105.739 107.163 92.9538 119.376 69.8527C143.109 24.9628 218.939 62.2528 203.859 131.175C196.562 164.529 222.41 171.495 207.377 204.835L20.0633 204.764Z" fill="#FFEDEE"/>
<path d="M22.0781 50.5077L48.8609 26.377L173.604 51.3877" stroke="#828282" stroke-width="6" stroke-miterlimit="9.06351" stroke-linecap="round"/>
<path fill-rule="evenodd" clip-rule="evenodd" d="M55.0827 62.0312V204.599H42.6406V62.0312H55.0827ZM54.0366 62.6428H43.6856L48.8611 67.8183L54.0366 62.6428ZM48.4288 68.2517L43.2533 63.0762V73.4262L48.4288 68.2517ZM54.47 63.0762L49.2956 68.2517L54.47 73.4262V63.0762ZM48.8622 68.684L43.6867 73.8596H54.0366L48.8622 68.684ZM54.0377 74.4733H43.6878L48.8622 79.6478L54.0377 74.4733ZM48.4299 80.0812L43.2544 74.9056V85.2567L48.4299 80.0812ZM54.4722 74.9056L49.2967 80.0812L54.4722 85.2556V74.9056ZM48.8633 80.5156L43.6889 85.6901H54.0388L48.8633 80.5156ZM54.0377 86.3028H43.6878L48.8633 91.4783L54.0377 86.3028ZM48.4288 91.9106L43.2544 86.7362V97.086L48.4288 91.9106ZM54.47 86.7362L49.2956 91.9106L54.47 97.086V86.7362ZM48.8622 92.344L43.6867 97.5195H54.0366L48.8622 92.344ZM54.0377 98.1321H43.6878L48.8622 103.307L54.0377 98.1321ZM48.4299 103.74L43.2544 98.5644V108.915L48.4299 103.74ZM54.4722 98.5644L49.2967 103.74L54.4722 108.914V98.5644ZM48.8633 104.172L43.6878 109.348H54.0388L48.8633 104.172ZM54.0377 109.962H43.6878L48.8633 115.136L54.0377 109.962ZM48.4288 115.57L43.2544 110.395V120.745L48.4288 115.57ZM54.47 110.396L49.2945 115.57L54.47 120.746V110.396ZM48.8611 116.004L43.6867 121.179H54.0366L48.8611 116.004ZM54.0366 121.792H43.6856L48.8611 126.966L54.0366 121.792ZM48.4288 127.401L43.2533 122.225V132.575L48.4288 127.401ZM54.47 122.227L49.2956 127.401L54.47 132.576V122.227ZM48.8622 127.834L43.6867 133.01H54.0366L48.8622 127.834ZM54.0377 133.623H43.6878L48.8622 138.797L54.0377 133.623ZM48.4299 139.231L43.2544 134.056V144.407L48.4299 139.231ZM54.4722 134.056L49.2967 139.231L54.4722 144.406V134.056ZM48.8633 139.665L43.6889 144.839H54.0388L48.8633 139.665ZM54.0377 145.453H43.6878L48.8633 150.629L54.0377 145.453ZM48.4288 151.061L43.2544 145.886V156.236L48.4288 151.061ZM54.47 145.885L49.2956 151.061L54.47 156.235V145.885ZM48.8622 151.494L43.6867 156.669H54.0366L48.8622 151.494ZM54.0377 157.282H43.6878L48.8622 162.458L54.0377 157.282ZM48.4299 162.89L43.2544 157.716V168.066L48.4299 162.89ZM54.4722 157.715L49.2967 162.89L54.4722 168.066V157.715ZM48.8633 163.323L43.6878 168.498H54.0388L48.8633 163.323ZM54.0377 169.111H43.6878L48.8633 174.285L54.0377 169.111ZM48.4288 174.72L43.2544 169.544V179.894L48.4288 174.72ZM54.47 169.545L49.2945 174.72L54.47 179.895V169.545ZM48.8611 175.153L43.6867 180.329H54.0366L48.8611 175.153ZM54.0366 180.941H43.6856L48.8611 186.116L54.0366 180.941ZM48.4288 186.55L43.2533 181.375V191.725L48.4288 186.55ZM54.47 181.376L49.2956 186.55L54.47 191.726V181.376ZM48.8622 186.984L43.6867 192.159H54.0366L48.8622 186.984ZM54.0377 192.772H43.6878L48.8622 197.946L54.0377 192.772ZM48.4299 198.381L43.2544 193.205V203.556L48.4299 198.381ZM54.4722 193.205L49.2967 198.381L54.4722 203.555V193.205ZM48.8633 198.814L43.6889 203.988H54.0388L48.8633 198.814Z" fill="#D49207"/>
<path fill-rule="evenodd" clip-rule="evenodd" d="M42.6406 62.0312V204.599H55.0827V62.0312H42.6406ZM48.8622 67.8183L43.6867 62.6428H54.0366L48.8622 67.8183ZM49.2956 68.2528L54.4711 63.0774V73.4273L49.2956 68.2528ZM49.2956 80.0812L54.4711 74.9067V85.2567L49.2956 80.0812ZM49.2956 91.9106L54.47 86.7362V97.086L49.2956 91.9106ZM49.2956 103.741L54.4711 98.5656V108.915L49.2956 103.741ZM49.2956 115.57L54.47 110.396V120.746L49.2956 115.57ZM49.2956 127.4L54.4711 122.225V132.575L49.2956 127.4ZM49.2956 139.229L54.47 134.055V144.405L49.2956 139.229ZM49.2956 151.059L54.4711 145.883V156.234L49.2956 151.059ZM49.2956 162.888L54.4711 157.713V168.062L49.2956 162.888ZM49.2956 174.719L54.47 169.543V179.893L49.2956 174.719ZM49.2956 186.548L54.4711 181.374V191.723L49.2956 186.548ZM49.2956 198.377L54.47 193.203V203.553L49.2956 198.377ZM48.8622 198.811L54.0377 203.985H43.6878L48.8622 198.811ZM48.4288 198.377L43.2533 203.553V193.203L48.4288 198.377ZM54.0377 192.768L48.8622 197.944L43.6878 192.768H54.0377ZM43.6878 192.156L48.8622 186.981L54.0377 192.156H43.6878ZM48.4288 186.548L43.2544 191.722V181.372L48.4288 186.548ZM54.0366 180.94L48.8622 186.115L43.6867 180.94H54.0366ZM43.6867 180.326L48.8622 175.152L54.0366 180.326H43.6867ZM48.4288 174.719L43.2533 179.893V169.543L48.4288 174.719ZM54.0377 169.111L48.8622 174.285L43.6878 169.111H54.0377ZM43.6867 168.498L48.8622 163.323L54.0377 168.498H43.6867ZM48.4277 162.889L43.2533 168.065V157.714L48.4277 162.889ZM54.0355 157.281L48.8611 162.456L43.6856 157.281H54.0355ZM43.6856 156.669L48.86 151.493L54.0355 156.669H43.6856ZM48.4277 151.06L43.2522 156.235V145.885L48.4277 151.06ZM54.0366 145.451L48.8611 150.626L43.6856 145.451H54.0366ZM43.6867 144.838L48.8622 139.663L54.0366 144.838H43.6867ZM48.4288 139.229L43.2533 144.405V134.055L48.4288 139.229ZM54.0377 133.62L48.8622 138.796L43.6878 133.62H54.0377ZM43.6878 133.008L48.8622 127.833L54.0377 133.008H43.6878ZM48.4288 127.4L43.2544 132.574V122.224L48.4288 127.4ZM54.0366 121.791L48.8622 126.966L43.6867 121.791H54.0366ZM43.6867 121.178L48.8622 116.004L54.0366 121.178H43.6867ZM48.4288 115.57L43.2533 120.745V110.395L48.4288 115.57ZM54.0377 109.963L48.8622 115.137L43.6878 109.963H54.0377ZM43.6867 109.35L48.8622 104.174L54.0377 109.35H43.6867ZM48.4277 103.741L43.2533 108.917V98.5656L48.4277 103.741ZM54.0355 98.1322L48.8611 103.308L43.6856 98.1322H54.0355ZM43.6856 97.5206L48.86 92.3451L54.0355 97.5206H43.6856ZM48.4277 91.9117L43.2522 97.0872V86.7373L48.4277 91.9117ZM54.0366 86.3028L48.8611 91.4783L43.6856 86.3028H54.0366ZM43.6867 85.6901L48.8622 80.5156L54.0366 85.6901H43.6867ZM48.4288 80.0823L43.2533 85.2578V74.9067L48.4288 80.0823ZM54.0377 74.4744L48.8622 79.6489L43.6878 74.4744H54.0377ZM43.6878 73.8606L48.8622 68.6851L54.0377 73.8606H43.6878ZM48.4288 68.2528L43.2544 73.4273V63.0774L48.4288 68.2528Z" stroke="#828282" stroke-miterlimit="9.06351"/>
<path fill-rule="evenodd" clip-rule="evenodd" d="M174.442 51.1703L174.439 51.1736C174.381 51.1164 174.301 51.0801 174.215 51.0801H101.951V61.9745H185.245L174.442 51.1703ZM164.685 61.3618L169.085 56.9607L173.486 61.3618H164.685ZM164.685 51.6928H173.486L169.086 56.0939L164.685 51.6928ZM164.252 52.1262L168.652 56.5273L164.252 60.9273V52.1262ZM159.238 56.5273L163.639 52.1262V60.9284L159.238 56.5273ZM158.805 56.9607L163.205 61.3618H154.404L158.805 56.9607ZM154.404 51.6928H163.206L158.805 56.0939L154.404 51.6928ZM153.97 52.1262L158.371 56.5262L153.97 60.9273V52.1262ZM148.956 56.5273L153.357 52.1262V60.9284L148.956 56.5273ZM148.523 56.9596L152.924 61.3607H144.122L148.523 56.9596ZM144.122 51.6928H152.924L148.523 56.0928L144.122 51.6928ZM143.688 52.1262L148.09 56.5273L143.688 60.9284V52.1262ZM138.675 56.5262L143.076 52.1262V60.9273L138.675 56.5262ZM138.241 56.9596L142.642 61.3607H133.84L138.241 56.9596ZM133.841 51.6917H142.642L138.241 56.0928L133.841 51.6917ZM133.409 52.1251L137.809 56.5262L133.409 60.9262V52.1251ZM128.395 56.5262L132.795 52.1251V60.9273L128.395 56.5262ZM127.962 56.9596L132.363 61.3596H123.562L127.962 56.9596ZM123.561 51.6928H132.362L127.962 56.0939L123.561 51.6928ZM123.127 52.1262L127.527 56.5262L123.127 60.9273V52.1262ZM118.113 56.5273L122.515 52.1262V60.9273L118.113 56.5273ZM117.68 56.9607L122.08 61.3618H113.279L117.68 56.9607ZM113.279 51.6939H122.081L117.68 56.0939L113.279 51.6939ZM112.846 52.1273L117.247 56.5284L112.846 60.9295V52.1273ZM107.832 56.5273L112.233 52.1273V60.9284L107.832 56.5273ZM107.398 56.9607L111.799 61.3618H102.997L107.398 56.9607ZM102.998 51.6928H111.799L107.398 56.0939L102.998 51.6928ZM106.966 56.5262L102.565 60.9273V52.1262L106.966 56.5262ZM169.52 56.5262L173.921 52.1251V60.9262L169.52 56.5262ZM174.532 52.1262L183.768 61.3607H174.532V52.1262Z" stroke="#828282" stroke-miterlimit="9.06351"/>
<path fill-rule="evenodd" clip-rule="evenodd" d="M43.2531 61.9745H22.0781V51.0801H43.2531V61.9745ZM33.4048 61.3618H42.207L37.8059 56.9607L33.4048 61.3618ZM37.8059 56.095L42.207 51.6939H33.4048L37.8059 56.095ZM32.9714 60.9295L37.3725 56.5284L32.9714 52.1273V60.9295ZM32.3587 60.9295V52.1284L27.9587 56.5295L32.3587 60.9295ZM23.1231 61.3618H31.9253L27.5242 56.9618L23.1231 61.3618ZM27.5242 56.0939L31.9242 51.6939H23.1231L27.5242 56.0939ZM22.6897 52.1262V60.9273L27.0908 56.5262L22.6897 52.1262ZM42.6393 60.9284V52.1262L38.2382 56.5273L42.6393 60.9284Z" stroke="#828282" stroke-miterlimit="9.06351"/>
<path fill-rule="evenodd" clip-rule="evenodd" d="M81.8586 61.9745H60.6836V51.0801H81.8586V61.9745ZM72.0103 61.3618H80.8114L76.4114 56.9607L72.0103 61.3618ZM76.4103 56.095L80.8114 51.6939H72.0103L76.4103 56.095ZM71.5758 60.9295L75.9769 56.5284L71.5758 52.1273V60.9295ZM70.9631 60.9295V52.1284L66.562 56.5295L70.9631 60.9295ZM61.7286 61.3618H70.5297L66.1297 56.9618L61.7286 61.3618ZM66.1286 56.0939L70.5297 51.6939H61.7286L66.1286 56.0939ZM61.2941 52.1262V60.9273L65.6952 56.5262L61.2941 52.1262ZM81.2426 60.9284V52.1262L76.8426 56.5273L81.2426 60.9284Z" stroke="#828282" stroke-miterlimit="9.06351"/>
<path fill-rule="evenodd" clip-rule="evenodd" d="M61.3039 61.9745H40.1289V51.0801H61.3039V61.9745ZM51.4567 61.3618H60.2578L55.8567 56.9607L51.4567 61.3618ZM55.8578 56.095L60.2589 51.6939H51.4567L55.8578 56.095ZM51.0244 60.9295L55.4244 56.5284L51.0244 52.1273V60.9295ZM50.4117 60.9295V52.1284L46.0106 56.5295L50.4117 60.9295ZM41.1772 61.3618H49.9783L45.5772 56.9618L41.1772 61.3618ZM45.5783 56.0939L49.9794 51.6939H41.1772L45.5783 56.0939ZM40.7449 52.1262V60.9273L45.1449 56.5262L40.7449 52.1262ZM60.6945 60.9284V52.1262L56.2934 56.5273L60.6945 60.9284Z" stroke="#828282" stroke-miterlimit="9.06351"/>
<path fill-rule="evenodd" clip-rule="evenodd" d="M102.501 61.9745H81.3262V51.0801H102.501V61.9745ZM92.6529 61.3618H101.455L97.054 56.9607L92.6529 61.3618ZM97.054 56.095L101.455 51.6939H92.6529L97.054 56.095ZM92.2195 60.9295L96.6206 56.5284L92.2195 52.1273V60.9295ZM91.6068 60.9295V52.1284L87.2068 56.5295L91.6068 60.9295ZM82.3712 61.3618H91.1734L86.7723 56.9618L82.3712 61.3618ZM86.7723 56.0939L91.1723 51.6939H82.3712L86.7723 56.0939ZM81.9378 52.1262V60.9273L86.3389 56.5262L81.9378 52.1262ZM101.887 60.9284V52.1262L97.4863 56.5273L101.887 60.9284Z" stroke="#828282" stroke-miterlimit="9.06351"/>
<path fill-rule="evenodd" clip-rule="evenodd" d="M42.5762 38.7412L42.64 38.6081V38.3716H42.7533L48.8605 25.6699L54.9688 38.3716H55.0821V38.6081L55.1459 38.7412L55.0821 38.805V50.8137H42.64V38.805L42.5762 38.7412ZM54.4694 39.4177L49.2939 44.5932L54.4694 49.7676V39.4177ZM43.2527 39.4177V49.7687L48.4271 44.5932L43.2527 39.4177ZM48.8616 45.0266L43.6861 50.201H54.036L48.8616 45.0266ZM48.8616 44.1598L54.0371 38.9854H43.6872L48.8616 44.1598ZM43.4342 38.3716H54.289L48.8616 27.0834L43.4342 38.3716Z" stroke="#828282" stroke-miterlimit="9.06351"/>
<path d="M53.0948 26.6753C53.0948 29.0139 51.1995 30.9092 48.8609 30.9092C46.5234 30.9092 44.627 29.0139 44.627 26.6753C44.627 24.3367 46.5234 22.4414 48.8609 22.4414C51.1995 22.4414 53.0948 24.3367 53.0948 26.6753Z" fill="#010101"/>
<path d="M55.7869 63.5324H41.9346C40.9996 62.5974 40.476 62.0738 39.541 61.1399V51.8163C40.476 50.8824 40.9996 50.3577 41.9346 49.4238H55.7869C56.7219 50.3577 57.2455 50.8824 58.1805 51.8163V61.1399C57.2455 62.0738 56.7219 62.5974 55.7869 63.5324Z" fill="#010101"/>
<path d="M27.4401 63.5832H16.7151L15.2598 62.1279V50.9299C15.8285 50.3612 16.1464 50.0433 16.7151 49.4746H27.4401L28.8954 50.9299V62.1279C28.3278 62.6966 28.0088 63.0145 27.4401 63.5832Z" fill="#010101"/>
<path d="M169.475 61.9766H168.74V70.3234H169.475V61.9766Z" fill="#010101"/>
<path d="M170.825 61.9766H170.09V70.3234H170.825V61.9766Z" fill="#010101"/>
<path d="M171.924 75.5775C171.66 75.5775 171.447 75.7919 171.447 76.0559C171.447 76.9744 170.699 77.7213 169.781 77.7213C168.862 77.7213 168.115 76.9744 168.115 76.0559C168.115 75.1374 168.862 74.3905 169.781 74.3905H170.259V71.998H169.302V73.4775C168.084 73.703 167.158 74.7733 167.158 76.0559C167.158 77.5013 168.335 78.6784 169.781 78.6784C171.227 78.6784 172.403 77.5013 172.403 76.0559C172.403 75.7919 172.19 75.5775 171.924 75.5775Z" fill="#010101"/>
<path d="M171.663 71.4884C171.663 72.5268 170.821 73.3694 169.781 73.3694C168.743 73.3694 167.9 72.5268 167.9 71.4884C167.9 70.4489 168.743 69.6074 169.781 69.6074C170.821 69.6074 171.663 70.4489 171.663 71.4884Z" fill="#010101"/>
<path d="M59.5049 204.598H38.2188V199.429C38.2188 198.142 39.2615 197.1 40.5485 197.1H57.1751C58.4621 197.1 59.5049 198.142 59.5049 199.429V204.598Z" fill="#010101"/>
<path d="M148.993 28.2578H71.0023C66.8487 28.2578 63.4805 31.6249 63.4805 35.7796V197.666C63.4805 201.82 66.8487 205.188 71.0023 205.188H148.993C153.148 205.188 156.516 201.82 156.516 197.666V35.7796C156.516 31.6249 153.148 28.2578 148.993 28.2578Z" fill="#010101"/>
<path d="M148.647 30.8457H71.3503C68.223 30.8457 65.6875 33.3812 65.6875 36.5085V196.935C65.6875 200.062 68.223 202.598 71.3503 202.598H148.647C151.775 202.598 154.31 200.062 154.31 196.935V36.5085C154.31 33.3812 151.775 30.8457 148.647 30.8457Z" fill="white"/>
<path fill-rule="evenodd" clip-rule="evenodd" d="M89.8409 85.3089C91.7758 83.5005 93.9219 81.9858 96.211 80.7813L96.1901 73.5334L107.874 70.8516L111.016 77.3823C113.602 77.4681 116.194 77.8949 118.724 78.6803L123.83 73.5433L133.988 79.909L131.594 86.7444C133.403 88.6793 134.917 90.8265 136.122 93.1156L143.368 93.0947L146.05 104.779L139.52 107.922C139.433 110.507 139.007 113.097 138.223 115.626L143.357 120.734L136.992 130.893L130.158 128.498C128.222 130.307 126.076 131.821 123.787 133.026L123.808 140.273L112.123 142.954L108.982 136.424C106.397 136.337 103.804 135.91 101.275 135.126L96.1681 140.264L86.0085 133.897L88.4043 127.062C86.5959 125.127 85.0812 122.981 83.8767 120.69L76.631 120.711L73.9492 109.027L80.4788 105.884C80.5657 103.299 80.9925 100.709 81.7757 98.18L76.6398 93.0716L83.0044 82.9131L89.8409 85.3089ZM97.8104 98.6816C94.0385 104.701 96.5091 115.149 102.528 118.92C108.548 122.691 118.995 120.218 122.767 114.201C126.538 108.182 124.067 97.7345 118.048 93.9637C112.029 90.1918 101.581 92.6624 97.8104 98.6816Z" fill="#F3F3F3"/>
<path d="M189.545 86.6144C189.545 86.6144 182.788 91.34 180.544 89.9166C178.299 88.4932 178.73 88.3678 178.73 88.3678C178.73 88.3678 181.787 87.4691 181.973 86.8652C182.045 86.6364 182.073 85.9665 182.081 85.224C182.095 84.0151 182.056 82.6137 182.056 82.6137L189.155 78.9199C189.155 78.9199 189.142 79.0871 189.122 79.3643C189.122 79.3651 189.122 79.3654 189.121 79.3654C189.054 80.3257 188.966 81.3388 189.079 82.617C189.227 84.267 189.545 86.6144 189.545 86.6144Z" fill="#FBC0A4"/>
<path d="M189.154 78.9199C189.154 78.9199 189.141 79.0871 189.121 79.3643C189.121 79.3651 189.121 79.3654 189.12 79.3654C187.855 83.9722 184.409 84.6872 183.653 84.7455C182.898 84.8016 182.08 85.224 182.08 85.224C182.094 84.0151 182.055 82.6137 182.055 82.6137L189.154 78.9199Z" fill="#F69D7D"/>
<path d="M189.509 76.0506C189 72.1687 185.989 67.2022 182.682 67.4211C179.376 67.6389 178.095 68.2373 178.242 72.15C178.499 79.0162 179.071 80.2658 180.174 81.9906C180.975 83.2424 182.811 83.9519 183.578 83.9013C187.589 83.6362 190.004 79.8291 189.509 76.0506Z" fill="#FBC0A4"/>
<path d="M190.717 78.0625C190.143 78.717 189.561 78.3155 189.561 78.3155C189.101 77.5059 189.508 76.0517 189.508 76.0517C189.434 75.2872 189.951 74.13 191.007 74.4237C191.108 74.4515 191.214 74.4933 191.324 74.5491C192.592 75.1915 191.477 77.1946 190.717 78.0625Z" fill="#FBC0A4"/>
<path d="M191.244 75.4901C191.37 75.9488 191.128 76.3745 190.853 76.7639C190.568 77.1687 190.452 77.2468 190.334 77.3249C190.216 77.403 190.105 77.4151 190.046 77.2864C189.988 77.1621 190.078 77.0246 190.148 76.908C190.217 76.7903 190.449 76.5648 190.335 76.49C190.282 76.4548 190.163 76.3668 190.174 76.2612C190.189 76.1237 190.191 76.0401 190.204 75.9015C190.221 75.7222 190.278 75.5253 190.331 75.4252C190.417 75.2591 190.569 75.0952 190.757 75.1018C190.953 75.1073 191.192 75.3009 191.244 75.4901Z" fill="#F69D7D"/>
<path d="M190.877 68.4101C190.881 68.4673 190.883 68.53 190.885 68.5982C190.891 68.9029 190.664 69.3363 190.798 69.8863C191.374 72.2436 191.1 72.6011 191.008 74.4238C189.952 74.1301 189.435 75.2873 189.508 76.0518C189.508 76.0518 188.999 73.1236 187.363 72.3657C187.363 72.3657 187.266 71.7266 187.294 71.3185C187.3 71.2349 187.291 71.1139 187.272 70.9742C187.266 70.9273 187.259 70.8781 187.251 70.8268C187.168 70.2944 186.996 69.6058 186.996 69.6058L190.819 67.9668C190.819 67.9668 190.859 68.1021 190.877 68.4101Z" fill="#2D2525"/>
<path d="M191.078 68.2844C190.291 69.0555 189.165 70.4921 187.251 70.8265C187.251 70.8265 186.89 70.8705 186.316 70.8881C185.981 70.898 185.574 70.8991 185.126 70.876C183.712 70.8034 180.589 72.0871 178.564 71.6889C178.556 71.6874 178.548 71.686 178.541 71.6845C178.344 71.6464 178.153 71.6027 177.97 71.5536C176.454 71.1411 179.103 64.6984 180.67 64.8128C181.304 64.859 181.1 64.2529 182.163 64.2683C182.981 64.2793 184.744 64.0351 186.22 64.0901C186.666 64.1077 189.321 64.0263 191.078 68.2844Z" fill="#3E3533"/>
<path d="M178.706 71.4588C178.654 71.4808 178.597 71.5688 178.541 71.6843C178.392 71.9945 178.256 72.5049 178.256 72.5049C178.12 72.1936 178.027 71.8273 177.971 71.5534C177.922 71.3103 177.898 71.1387 177.898 71.1387C177.898 71.1387 178.899 71.3741 178.706 71.4588Z" fill="#3E3533"/>
<g opacity="0.3">
<path d="M181.145 67.9805C181.145 67.9805 182.704 69.174 185.464 68.8946C185.464 68.8946 183.152 69.5029 181.145 67.9805Z" fill="black"/>
</g>
<g opacity="0.3">
<path d="M182.822 67.0078C182.822 67.0078 183.376 68.3355 185.444 68.5863C185.444 68.5863 183.546 68.5863 182.822 67.0078Z" fill="black"/>
</g>
<path d="M185.335 80.2352C185.273 80.1813 185.087 80.2682 184.807 80.3771C184.529 80.4871 184.145 80.6136 183.712 80.6565C183.277 80.6994 182.877 80.651 182.583 80.5982C182.288 80.5454 182.09 80.497 182.04 80.5619C182.016 80.5938 182.033 80.6488 182.095 80.7192C182.155 80.7907 182.262 80.8754 182.413 80.9568C182.562 81.0382 182.758 81.1119 182.989 81.1603C183.219 81.2076 183.485 81.2263 183.762 81.1988C184.041 81.1702 184.298 81.1009 184.515 81.0085C184.733 80.9161 184.911 80.805 185.043 80.695C185.175 80.5861 185.264 80.4827 185.31 80.4002C185.357 80.3188 185.365 80.2605 185.335 80.2352Z" fill="#3E3533"/>
<path d="M186.969 74.3727C186.958 74.3625 186.946 74.3529 186.934 74.3441C186.285 73.8348 185.572 73.6918 184.878 73.9437C184.818 73.9646 184.755 73.9932 184.707 74.0823C184.616 74.2539 184.614 74.4398 184.637 74.7082C185.435 74.2561 186.271 74.2363 187.069 74.6532C187.09 74.5619 187.082 74.5564 187.05 74.4849C187.028 74.4332 186.999 74.4002 186.969 74.3727Z" fill="#3E3533"/>
<path d="M179.155 75.0102C179.166 74.9985 179.176 74.9875 179.186 74.9772C179.759 74.3832 180.446 74.1434 181.168 74.2974C181.231 74.3106 181.297 74.3293 181.356 74.4118C181.47 74.5691 181.497 74.7539 181.512 75.0223C180.659 74.6835 179.829 74.7781 179.094 75.3017C179.062 75.2137 179.07 75.2071 179.09 75.1323C179.106 75.0773 179.13 75.041 179.155 75.0102Z" fill="#3E3533"/>
<path d="M185.092 75.8859C185.137 76.2698 185.431 76.5503 185.748 76.5129C186.066 76.4755 186.287 76.1345 186.242 75.7506C186.197 75.3667 185.904 75.0851 185.586 75.1225C185.268 75.1599 185.047 75.502 185.092 75.8859Z" fill="#3E3533"/>
<path d="M179.928 76.3203C179.973 76.7042 180.268 76.9858 180.586 76.9484C180.903 76.911 181.125 76.57 181.079 76.185C181.034 75.8022 180.74 75.5206 180.422 75.558C180.104 75.5954 179.883 75.9364 179.928 76.3203Z" fill="#3E3533"/>
<path d="M182.863 76.0789C182.85 76.0327 182.849 75.9865 182.86 75.9403C182.885 75.8292 182.948 75.6697 183.082 75.9579C183.237 76.2912 183.341 77.9544 183.231 78.5836C183.206 78.7277 183.286 78.8685 183.425 78.9147L183.667 78.9972C183.743 79.0236 183.809 79.0775 183.84 79.1523C183.874 79.2359 183.858 79.336 183.618 79.3657C183.181 79.4218 182.62 79.0335 182.744 78.6111C182.865 78.1975 183.128 77.1041 182.863 76.0789Z" fill="#F69D7D"/>
<path d="M178.498 195.785C178.498 195.785 178.676 198.294 178.498 199.709C178.321 201.122 183.66 201.159 183.66 201.159V195.785H178.498Z" fill="#FBC0A4"/>
<path d="M183.94 200.241L183.875 204.453L183.869 204.598C183.872 204.762 183.741 204.896 183.576 204.896H180.887C180.756 204.896 180.58 204.823 180.545 204.696L180.477 204.521C180.47 204.497 180.46 204.474 180.449 204.453C180.374 204.32 180.204 204.265 180.061 204.338C179.622 204.564 178.733 204.634 177.446 204.806C177.03 204.862 176.569 204.896 176.068 204.896H170.593C170.593 204.896 170.464 204.878 170.324 204.806C170.05 204.664 169.739 204.313 170.306 203.477C170.948 202.531 176.587 203.504 177.987 199.29C177.987 199.29 178.274 198.699 178.697 199.29C179.093 199.846 182.66 200.234 183.755 200.078C183.853 200.064 183.942 200.141 183.94 200.241Z" fill="#010101"/>
<g opacity="0.35">
<path d="M183.875 204.451L183.869 204.595C183.871 204.759 183.74 204.894 183.575 204.894H180.887C180.756 204.894 180.58 204.821 180.545 204.694L180.477 204.518C180.469 204.494 180.46 204.472 180.449 204.451H183.875Z" fill="black"/>
</g>
<g opacity="0.35">
<path d="M177.447 204.805C177.03 204.862 176.569 204.896 176.068 204.896H170.594C170.594 204.896 170.464 204.877 170.324 204.805H177.447Z" fill="black"/>
</g>
<path d="M193.088 195.785C193.088 195.785 193.264 198.294 193.088 199.709C192.911 201.122 198.25 201.159 198.25 201.159V195.785H193.088Z" fill="#FBC0A4"/>
<path d="M198.53 200.241L198.465 204.453L198.458 204.598C198.462 204.762 198.33 204.896 198.166 204.896H195.477C195.345 204.896 195.169 204.823 195.135 204.696L195.067 204.521C195.06 204.497 195.05 204.474 195.039 204.453C194.964 204.32 194.793 204.265 194.65 204.338C194.211 204.564 193.323 204.634 192.037 204.806C191.619 204.862 191.158 204.896 190.658 204.896H185.183C185.183 204.896 185.053 204.878 184.914 204.806C184.639 204.664 184.329 204.313 184.897 203.477C185.538 202.531 191.178 203.504 192.577 199.29C192.577 199.29 192.864 198.699 193.286 199.29C193.683 199.846 197.251 200.234 198.344 200.078C198.443 200.064 198.531 200.141 198.53 200.241Z" fill="#010101"/>
<g opacity="0.35">
<path d="M198.466 204.451L198.459 204.595C198.462 204.759 198.33 204.894 198.166 204.894H195.478C195.346 204.894 195.17 204.821 195.136 204.694L195.068 204.518C195.06 204.494 195.051 204.472 195.039 204.451H198.466Z" fill="black"/>
</g>
<g opacity="0.35">
<path d="M192.037 204.805C191.619 204.862 191.158 204.896 190.658 204.896H185.182C185.182 204.896 185.053 204.877 184.914 204.805H192.037Z" fill="black"/>
</g>
<path d="M198.514 198.265C198.517 198.416 198.395 198.539 198.246 198.539H192.274C192.141 198.539 192.029 198.444 192.009 198.313C191.738 196.535 189.931 184.589 188.389 172.066C187.297 163.196 185.872 156.332 185.015 152.64C184.558 150.678 184.264 149.611 184.264 149.611C183.742 151.207 183.375 153.255 183.123 155.448V155.449C182.567 160.291 182.586 165.845 182.802 168.828C183.095 172.894 183.896 195.496 183.993 198.261C183.999 198.414 183.878 198.539 183.725 198.539H177.899C177.773 198.539 177.665 198.454 177.637 198.331C176.613 193.9 169.746 168.131 170.734 159.136C171.529 151.889 172.889 139.605 173.419 134.815C173.439 134.634 173.458 134.464 173.475 134.306C173.58 133.362 173.64 132.82 173.64 132.82L174.447 119.223L177.214 119.008L177.471 118.988L184.004 118.482L184.047 118.479L195.349 117.604L198.589 127.812C198.589 127.812 198.31 131.999 198.247 134.335C198.241 134.509 198.236 134.688 198.231 134.871C198.118 139.1 197.956 145.67 197.893 151.231C197.793 159.816 198.448 194.822 198.514 198.265Z" fill="#424242"/>
<g opacity="0.15">
<path d="M185.014 152.64C184.558 150.679 184.263 149.612 184.263 149.612C183.742 151.208 183.374 153.255 183.123 155.449L183.122 155.45C183.122 155.45 183.486 149.151 182.902 144.62C182.317 140.089 182.578 138.14 181.961 137.36C181.354 136.594 179.927 134.933 179.883 134.881C179.946 134.926 182.322 136.643 182.658 137.556C182.999 138.481 185.014 152.64 185.014 152.64Z" fill="black"/>
</g>
<path d="M172.581 112.958C172.583 115.328 172.559 117.779 172.48 119.72C172.426 121.027 172.208 123.62 172.033 124.068C171.543 125.319 172.082 129.339 175.219 128.776C176.463 128.552 177.907 129.31 180.283 129.01C184.043 128.535 188.291 129.296 190.007 127.671C193.228 124.621 195.902 125.13 197.96 125.227C197.96 125.227 196.365 116.064 196.815 110.22C197.266 104.375 198.59 89.2339 198.59 89.2339C198.59 89.2339 193.008 86.9052 190.099 85.9295C189.886 85.8602 189.653 85.9086 189.487 86.0571C186.821 88.4265 184.639 88.949 181.966 86.8491C181.836 86.7468 181.668 86.6995 181.502 86.7204C180.173 86.8964 174.161 87.827 171.91 90.4065L172.48 104.375C172.48 104.375 172.558 107.757 172.578 111.676C172.58 112.099 172.581 112.526 172.581 112.958Z" fill="#D1000C"/>
<path d="M172.23 124.149C172.23 124.149 180.132 124.559 185.231 121.793C185.231 121.793 180.554 124.997 172.23 124.149Z" fill="#010101"/>
<g opacity="0.15">
<path d="M195.746 118.859C196.123 118.02 196.481 117.205 196.791 116.473C196.799 116.642 196.807 116.812 196.817 116.982C196.521 117.675 196.192 118.425 195.852 119.189C194.464 122.304 192.883 125.65 192.551 126.352C192.513 126.432 192.531 126.527 192.595 126.588L196.866 130.626C196.953 130.709 197.093 130.698 197.166 130.604C197.392 130.316 197.879 129.689 198.522 128.842C198.513 128.979 198.504 129.126 198.494 129.283C197.873 130.103 197.4 130.707 197.18 130.989C197.105 131.083 196.965 131.094 196.878 131.011L192.304 126.604C192.24 126.543 192.222 126.449 192.26 126.368C192.605 125.641 194.308 122.069 195.746 118.859Z" fill="black"/>
</g>
<path d="M193.593 132.638C193.753 132.685 194.839 131.905 195.309 131.464C195.311 131.463 195.312 131.462 195.313 131.461C195.359 131.418 195.403 131.377 195.445 131.34C195.901 130.927 197.454 129.096 197.497 129.046C196.298 128.546 193.646 127.401 192.843 126.719C192.762 126.857 192.661 127.022 192.554 127.18C192.497 127.262 192.441 127.339 192.385 127.412C192.26 127.575 192.137 127.703 192.039 127.749C191.693 127.911 191.205 127.972 191.205 127.972V127.974C191.069 129.223 191.939 132.143 193.593 132.638Z" fill="#FBC0A4"/>
<path d="M195.32 131.5C195.32 131.5 194.657 129.394 193.66 128.791C193.66 128.791 194.919 129.391 195.32 131.5Z" fill="#F69D7D"/>
<path d="M206.699 115.56C206.577 116.249 206.192 117.175 205.639 118.232C203.325 122.676 198.086 129.434 197.168 130.605C197.095 130.698 196.955 130.709 196.868 130.627L192.597 126.589C192.533 126.527 192.515 126.433 192.553 126.352C193.171 125.049 198.09 114.626 198.09 113.502C198.09 111.818 196.826 110.136 196.826 110.136C194.375 105.386 198.06 90.5494 198.589 89.247C198.616 89.181 198.973 89.3603 198.973 89.3603C198.973 89.3603 200.941 90.182 201.378 91.6791C201.815 93.1762 207.384 111.693 206.699 115.56Z" fill="#D1000C"/>
<path d="M196.825 110.135C196.776 111.195 196.832 101.803 198.588 95.5703C198.588 95.5703 197.048 104.638 196.825 110.135Z" fill="#010101"/>
<path d="M171.865 97.3668C169.9 95.9764 169.431 93.2462 170.821 91.2794C172.212 89.3137 174.942 88.8451 176.908 90.2355C178.873 91.6259 179.342 94.3561 177.953 96.3229C176.562 98.2886 173.831 98.7572 171.865 97.3668Z" fill="#D1000C"/>
<path d="M160.878 109.529L161.15 109.095C161.934 107.842 167.228 98.968 170.15 92.4659L170.49 91.873L178.624 94.8541L178.484 95.2743C176.342 101.121 167.705 112.903 167.336 113.426L167.022 113.874L160.877 109.529H160.878Z" fill="#D1000C"/>
<path d="M161.988 114.469C160.587 113.478 160.031 111.662 160.638 110.054C161.373 108.104 163.557 107.118 165.505 107.853C165.808 107.968 166.091 108.118 166.354 108.304C167.755 109.295 168.312 111.111 167.705 112.72C166.97 114.669 164.786 115.655 162.838 114.92C162.536 114.806 162.25 114.654 161.988 114.469Z" fill="#D1000C"/>
<path d="M146.898 109.144L145.138 108.801L145.016 115.129L147.287 114.944L146.898 109.144Z" fill="#E19A06"/>
<path d="M159.417 109.833C159.897 107.423 162.249 105.853 164.659 106.335C167.069 106.816 168.639 109.167 168.158 111.578C167.677 113.988 165.325 115.557 162.915 115.076C160.506 114.595 158.936 112.244 159.417 109.833Z" fill="#D1000C"/>
<path d="M153.032 108.018C153.991 107.8 154.968 107.578 155.93 107.373C159.737 106.562 161.973 106.403 162.066 106.397L163.133 106.248L163.229 115.126H162.707C162.097 115.127 145.947 115.924 145.947 115.924L145.871 108.395C145.871 108.395 150.071 108.691 153.032 108.018Z" fill="#D1000C"/>
<path d="M162.854 106.424C162.854 106.424 164.706 106.817 165.393 107.592C165.393 107.592 164.786 106.471 162.854 106.424Z" fill="#010101"/>
<path d="M172.377 106.141C172.232 103.075 172.189 98.7854 172.74 95.3457C172.74 95.3457 172.448 100.891 172.512 105.938C172.467 106.006 172.422 106.074 172.377 106.141Z" fill="#010101"/>
<path d="M147.725 194.931C146.386 190.717 146.848 186.088 148.991 182.226C149.339 181.598 150.016 180.778 151.115 179.64C152.336 178.384 152.77 176.565 152.268 174.894L141.601 113.64C141.356 112.096 140.356 110.759 138.92 110.056C133.58 107.441 130.255 103.154 129.296 97.6485C128.553 93.3563 129.449 89.2445 131.792 86.0336C133.884 83.1923 136.845 81.1595 140.346 80.1563C140.852 80.0078 141.396 80.12 141.805 80.45C142.214 80.7822 142.433 81.2915 142.395 81.8184L141.692 91.5512C142.344 92.4917 142.78 93.1187 143.433 94.0581C145.026 94.5234 146.721 94.5267 148.331 94.057C148.967 93.2683 149.432 92.6908 150.069 91.9021L150.703 83.1516C150.744 82.5785 152.012 81.572 152.522 81.3234C153.022 81.0759 152.752 81.572 153.223 81.8646C157.045 84.2285 159.648 87.9487 160.551 92.3399C161.436 96.6706 160.486 101.226 157.946 104.839C157.534 105.427 156.773 106.171 155.559 107.185C154.212 108.305 153.589 110.067 153.91 111.782L164.311 171.743C164.718 173.251 165.854 174.475 167.358 175.022C172.945 177.057 176.705 180.968 178.241 186.341C179.435 190.53 178.981 194.714 176.991 198.154C175.211 201.201 172.482 203.537 169.107 204.905C168.62 205.106 168.067 205.051 167.625 204.768C167.183 204.48 166.911 203.998 166.894 203.468L166.57 193.97C165.685 192.983 165.108 192.342 164.223 191.354C162.8 191.155 161.345 191.311 159.984 191.816C159.328 192.794 158.857 193.496 158.203 194.474L159.24 203.168C159.261 203.743 158.316 204.257 157.682 204.479C157.155 204.664 156.621 204.812 156.123 204.571C152.07 202.625 149.088 199.202 147.725 194.931Z" fill="#828282"/>
<path d="M148.586 194.465C147.248 190.251 147.709 185.622 149.852 181.76C150.201 181.132 150.877 180.311 151.977 179.174C153.198 177.918 153.631 176.098 153.129 174.427L142.463 113.173C142.218 111.63 141.217 110.293 139.78 109.59C134.441 106.974 131.116 102.688 130.158 97.1822C129.414 92.89 130.309 88.7782 132.654 85.5673C134.746 82.726 137.706 80.6932 141.207 79.69C141.714 79.5404 142.257 79.6537 142.667 79.9837C143.075 80.3159 143.295 80.8252 143.255 81.3521L142.552 91.0849C143.206 92.0254 143.641 92.6513 144.294 93.5918C145.887 94.0571 147.582 94.0604 149.192 93.5907C149.828 92.802 150.294 92.2245 150.93 91.4358L151.565 82.6853C151.604 82.1122 152.012 81.5721 152.523 81.3235C153.022 81.076 153.614 81.1057 154.084 81.3983C157.906 83.7622 160.51 87.4824 161.413 91.8736C162.296 96.2043 161.347 100.759 158.807 104.373C158.395 104.96 157.635 105.705 156.42 106.719C155.074 107.839 154.45 109.601 154.772 111.316L165.173 171.277C165.58 172.785 166.716 174.008 168.219 174.556C173.806 176.591 177.567 180.502 179.103 185.874C180.297 190.064 179.842 194.247 177.851 197.688C176.072 200.735 173.344 203.07 169.968 204.439C169.48 204.64 168.928 204.585 168.486 204.301C168.045 204.014 167.772 203.531 167.756 203.002L167.432 193.504C166.546 192.517 165.97 191.876 165.084 190.888C163.66 190.69 162.206 190.845 160.844 191.35C160.189 192.328 159.719 193.03 159.063 194.007L159.352 202.558C159.373 203.132 159.024 203.712 158.543 204.013C158.072 204.312 157.482 204.345 156.983 204.104C152.932 202.158 149.949 198.735 148.586 194.465Z" fill="#828282"/>
<g opacity="0.6">
<path d="M146.64 117.852L154.478 170.117C154.602 170.942 155.388 171.498 156.207 171.34L160.677 170.477C161.46 170.325 161.979 169.575 161.844 168.789L152.921 116.759C152.782 115.952 152.011 115.414 151.207 115.564L147.822 116.192C147.045 116.336 146.522 117.071 146.64 117.852Z" fill="#F3F3F3"/>
</g>
<path d="M140.088 110.851L140.527 111.985L139.481 112.192C139.481 112.192 139.077 111.743 139.295 111.224C139.372 111.042 139.625 110.861 139.921 110.705C139.977 110.753 140.033 110.802 140.088 110.851Z" fill="#FBC0A4"/>
<path d="M139.297 111.224C139.297 111.224 138.768 111.907 138.987 112.417C139.206 112.928 138.804 113.401 139.195 113.989C139.584 114.579 138.708 114.705 139.608 115.436C140.509 116.167 140.295 116.418 141.117 116.543C141.941 116.67 144.634 114.506 144.696 114.021C144.756 113.537 144.294 113.465 144.294 113.465C144.294 113.465 144.83 112.966 144.124 112.61C144.124 112.61 145.093 112.371 145.009 111.837C144.927 111.301 143.851 111.43 143.851 111.43C143.851 111.43 144.104 110.743 142.99 110.623C141.874 110.503 141.3 110.853 140.783 110.697C140.266 110.541 139.297 111.224 139.297 111.224Z" fill="#FBC0A4"/>
<path d="M144.295 113.465C144.295 113.465 141.253 115.181 140.899 115.186C140.545 115.192 140.889 115.692 144.295 113.465Z" fill="#F69D7D"/>
<path d="M144.123 112.61C144.123 112.61 143.96 112.446 143.307 112.753C142.652 113.061 140.724 113.782 140.88 113.652C141.037 113.521 142.615 112.982 143.293 112.656C143.973 112.33 144.123 112.61 144.123 112.61Z" fill="#F69D7D"/>
<path d="M143.852 111.429C143.852 111.429 141.613 111.908 141.189 112.064C140.763 112.221 140.271 112.299 140.437 112.171C140.602 112.045 143.719 111.377 143.852 111.429Z" fill="#F69D7D"/>
<path d="M144.145 111.578C144.078 111.6 144.034 111.662 144.035 111.732C144.036 111.91 144.066 112.349 144.212 112.359C144.41 112.373 144.898 112.256 144.882 112.01C144.867 111.765 144.814 111.587 144.493 111.559C144.315 111.542 144.223 111.552 144.145 111.578Z" fill="#FBE3D8"/>
<path d="M143.641 112.825C143.588 112.86 143.565 112.924 143.581 112.985C143.625 113.139 143.754 113.51 143.883 113.485C144.058 113.451 144.452 113.235 144.38 113.026C144.309 112.816 144.222 112.677 143.937 112.727C143.779 112.756 143.702 112.785 143.641 112.825Z" fill="#FBE3D8"/>
<path d="M144.011 113.816C143.98 113.853 143.979 113.907 144.005 113.947C144.073 114.05 144.258 114.293 144.346 114.245C144.467 114.178 144.706 113.925 144.603 113.787C144.501 113.651 144.403 113.567 144.205 113.673C144.096 113.731 144.046 113.772 144.011 113.816Z" fill="#FBE3D8"/>
<path d="M143.237 110.819C143.186 110.826 143.144 110.865 143.134 110.917C143.11 111.05 143.069 111.378 143.174 111.407C143.32 111.445 143.696 111.429 143.72 111.245C143.744 111.061 143.73 110.923 143.497 110.856C143.368 110.818 143.299 110.812 143.237 110.819Z" fill="#FBE3D8"/>
<path d="M141.042 110.867C141.042 110.867 140.905 111.337 141.233 111.647C141.233 111.647 141.007 111.364 141.042 110.867Z" fill="#F69D7D"/>
<path d="M141.221 112.348C141.221 112.348 141.134 112.891 141.544 113.191C141.544 113.191 141.252 112.908 141.221 112.348Z" fill="#F69D7D"/>
<path d="M141.164 113.971C141.164 113.971 141.077 114.514 141.487 114.814C141.487 114.814 141.196 114.531 141.164 113.971Z" fill="#F69D7D"/>
<path d="M142.033 115.152C142.033 115.152 142.034 115.636 142.433 115.84C142.433 115.84 142.139 115.634 142.033 115.152Z" fill="#F69D7D"/>
<path d="M176.009 73.2658C178.572 73.1866 182.057 73.0689 184.437 72.7169C186.819 72.366 194.146 71.882 191.846 71.1747C191.846 71.1747 191.426 66.6702 189.582 65.0477C187.741 63.4263 183.016 60.5564 178.586 65.7528C178.586 65.7528 177.809 66.4722 177.199 70.0197C177.125 70.4451 177.055 70.9133 176.988 71.4244C176.962 71.6261 176.936 71.8347 176.911 72.0503C176.911 72.0503 173.446 73.345 176.009 73.2658Z" fill="#D1000C"/>
<path d="M189.72 65.3356C189.72 65.3356 188.183 64.4248 187.153 65.3796C186.168 66.2948 185.482 64.1399 188.206 64.0167C188.447 64.0057 188.683 64.0827 188.874 64.2301C189.357 64.6041 190.231 65.3334 189.72 65.3356Z" fill="#010101"/>
<path d="M187.455 63.7968C187.455 63.7968 185.466 63.8309 184.791 64.9375C184.117 66.0441 183.379 64.7296 184.645 64.0344C185.911 63.3392 186.736 63.0961 187.042 63.1742C187.349 63.2512 188.286 63.8804 187.455 63.7968Z" fill="#010101"/>
<path d="M185.644 62.9513C185.644 62.9513 183.201 63.6399 182.599 64.741C181.998 65.8432 181.268 64.7014 182.458 63.8687C183.648 63.0349 184.172 62.6796 184.423 62.6653C184.674 62.6499 186.168 62.7808 185.644 62.9513Z" fill="#010101"/>
<path d="M183.308 62.8438C183.308 62.8438 181.305 63.7953 180.822 64.9085C180.338 66.0206 179.766 64.5949 180.805 63.7886C181.843 62.9823 182.524 62.9042 183.308 62.8438Z" fill="#010101"/>
<path d="M176.988 71.4253C177.876 72.2217 182.265 71.8191 184.111 71.609C184.564 71.5573 184.89 71.1481 184.837 70.6949C184.784 70.2417 184.373 69.915 183.919 69.9711C180.441 70.4023 177.199 70.0206 177.199 70.0206C177.125 70.4459 177.055 70.9142 176.988 71.4253Z" fill="#010101"/>
<path d="M191.197 71.5023L191.025 70.2043C191.014 70.1262 190.943 70.0701 190.865 70.0767L189.071 70.2318C188.987 70.2384 188.926 70.3143 188.937 70.3979L189.115 71.7421C189.115 71.7421 190.516 71.6695 191.197 71.5023Z" fill="#010101"/>
<path d="M19.3992 202.968C19.8007 202.998 20.2517 203.065 20.739 203.145C20.9227 201.214 21.9743 192.533 25.9321 192.881C30.3838 193.272 25.9321 196.705 24.6737 198.737C23.742 200.243 22.7586 202.401 22.3087 203.42C22.671 203.483 23.0435 203.542 23.4263 203.599C24.017 202.166 26.2126 197.35 29.0044 197.63C32.2813 197.958 30.9646 199.889 28.6414 201.037C26.9364 201.879 24.8431 203.077 23.8487 203.657C24.6924 203.765 25.5713 203.838 26.4634 203.822C28.7525 203.779 29.8712 204.313 30.3035 204.6H16.9363C16.2543 204.142 17.3202 203.132 18.5159 202.973C17.7855 201.106 15.6086 200.202 14.3447 199.473C12.995 198.696 15.1862 194.942 17.5468 196.741C19.5345 198.256 19.4696 201.866 19.3992 202.968Z" fill="#D1000C"/>
<path d="M10.0605 204.6H209.937V206.108H10.0605V204.6Z" fill="#1D2227"/>
</g>
<rect x="91.5" y="34" width="37" height="6" rx="3" fill="#010101"/>
</g>
<defs>
<clipPath id="clip0_2725_85670">
<rect width="220" height="220" fill="white"/>
</clipPath>
</defs>
</svg>
