<svg width="22" height="22" viewBox="0 0 22 22" fill="none" xmlns="http://www.w3.org/2000/svg">
<path d="M14.0821 17.8749L16.9586 17.8749C17.4649 17.8749 17.8753 17.4646 17.8753 16.9583L17.8753 14.0814C17.8753 13.8672 17.9503 13.6598 18.0872 13.4951L19.6752 11.5862C19.9578 11.2464 19.9578 10.7535 19.6752 10.4137L18.0872 8.50475C17.9503 8.3401 17.8753 8.1327 17.8753 7.91853L17.8753 5.04163C17.8753 4.53536 17.4649 4.12496 16.9586 4.12496L14.0822 4.12496C13.8677 4.12496 13.6601 4.04977 13.4953 3.91247L11.5868 2.32187C11.2471 2.03871 10.7535 2.03853 10.4135 2.32143L8.50108 3.9129C8.33642 4.04993 8.12896 4.12496 7.91473 4.12496L5.03792 4.12496C4.53166 4.12496 4.12125 4.53536 4.12125 5.04163L4.12125 7.91853C4.12125 8.1327 4.04626 8.3401 3.9093 8.50475L2.32132 10.4137C2.03873 10.7535 2.03873 11.2464 2.32132 11.5862L3.9093 13.4951C4.04626 13.6598 4.12125 13.8672 4.12125 14.0814L4.12125 16.9583C4.12125 17.4646 4.53166 17.8749 5.03792 17.8749L7.91475 17.8749C8.12896 17.8749 8.33641 17.9499 8.50108 18.087L10.4135 19.6784C10.7534 19.9613 11.247 19.9611 11.5867 19.6779L13.4953 18.0874C13.6601 17.9501 13.8677 17.8749 14.0821 17.8749Z" stroke="#828282" stroke-width="1.5" stroke-linejoin="round"/>
<path d="M14.2087 10.9993C14.2087 12.7713 12.7722 14.2077 11.0003 14.2077C9.22841 14.2077 7.79199 12.7713 7.79199 10.9993C7.79199 9.22743 9.22841 7.79102 11.0003 7.79102C12.7722 7.79102 14.2087 9.22743 14.2087 10.9993Z" stroke="#828282" stroke-width="1.5" stroke-linejoin="round"/>
</svg>
