<svg width="18" height="18" viewBox="0 0 18 18" fill="none" xmlns="http://www.w3.org/2000/svg">
<path d="M16.5 9.00002C16.5 13.142 13.1422 16.5 9 16.5C4.85785 16.5 1.5 13.142 1.5 9.00002C1.5 4.85785 4.85785 1.5 9 1.5C13.1422 1.5 16.5 4.85785 16.5 9.00002Z" stroke="#010101" stroke-width="1.5" stroke-linecap="round" stroke-linejoin="round"/>
<path d="M11.7678 6.75L12.8707 8.02727C13.4611 8.71089 12.9578 9.74919 12.036 9.74964L11.25 9.75002" stroke="#010101" stroke-linecap="round" stroke-linejoin="round"/>
<path d="M6.75 6V9.74851" stroke="#010101" stroke-linecap="round" stroke-linejoin="round"/>
<path d="M7.125 13.1248H8.25M7.125 13.1248H6M7.125 13.1248C6.875 12.8747 6.52492 12.2246 7.125 11.6248C7.5996 11.1503 8.25 11.6254 8.25 11.6254" stroke="#010101" stroke-linecap="round" stroke-linejoin="round"/>
<path d="M9 9.75V9.7575" stroke="#010101" stroke-linecap="round" stroke-linejoin="round"/>
</svg>
