<svg width="20" height="20" viewBox="0 0 20 20" fill="none" xmlns="http://www.w3.org/2000/svg">
<g clip-path="url(#clip0_2179_27649)">
<path d="M16.68 1.66663C15.7522 1.66663 15 3.9052 15 6.66663H16.68C17.4897 6.66663 17.8945 6.66663 18.1451 6.38708C18.3957 6.10753 18.3521 5.7394 18.2648 5.00313C18.0345 3.05948 17.4119 1.66663 16.68 1.66663Z" stroke="#5B8EFA" stroke-width="1.5"/>
<path d="M15.0003 6.71184V15.5381C15.0003 16.7979 15.0003 17.4277 14.6153 17.6756C13.9862 18.0809 13.0137 17.2311 12.5246 16.9227C12.1204 16.6678 11.9184 16.5404 11.6941 16.533C11.4517 16.525 11.2461 16.6473 10.8094 16.9227L9.21699 17.927C8.78741 18.1978 8.57266 18.3333 8.33366 18.3333C8.09467 18.3333 7.87988 18.1978 7.45033 17.927L5.85793 16.9227C5.45378 16.6678 5.25171 16.5404 5.02743 16.533C4.78509 16.525 4.57943 16.6473 4.14272 16.9227C3.65362 17.2311 2.68105 18.0809 2.05195 17.6756C1.66699 17.4277 1.66699 16.7979 1.66699 15.5381V6.71184C1.66699 4.3335 1.66699 3.14433 2.39923 2.40548C3.13146 1.66663 4.30997 1.66663 6.66699 1.66663H16.667" stroke="#5B8EFA" stroke-width="1.5" stroke-linecap="round" stroke-linejoin="round"/>
<path d="M5 5H11.6667" stroke="#5B8EFA" stroke-width="1.5" stroke-linecap="round" stroke-linejoin="round"/>
<path d="M6.66667 8.33337H5" stroke="#5B8EFA" stroke-width="1.5" stroke-linecap="round" stroke-linejoin="round"/>
<path d="M10.417 9.06254C9.72666 9.06254 9.16699 9.55221 9.16699 10.1563C9.16699 10.7604 9.72666 11.25 10.417 11.25C11.1073 11.25 11.667 11.7397 11.667 12.3438C11.667 12.9479 11.1073 13.4375 10.417 13.4375M10.417 9.06254C10.9612 9.06254 11.4242 9.36687 11.5958 9.79171M10.417 9.06254V8.33337M10.417 13.4375C9.87274 13.4375 9.40974 13.1332 9.23816 12.7084M10.417 13.4375V14.1667" stroke="#5B8EFA" stroke-width="1.5" stroke-linecap="round"/>
</g>
<defs>
<clipPath id="clip0_2179_27649">
<rect width="20" height="20" fill="white"/>
</clipPath>
</defs>
</svg>
