<svg width="20" height="20" viewBox="0 0 20 20" fill="none" xmlns="http://www.w3.org/2000/svg">
<path d="M9.99984 1.04175C14.9474 1.04175 18.9582 5.05253 18.9582 10.0001C18.9582 14.9477 14.9474 18.9584 9.99984 18.9584C5.05229 18.9584 1.0415 14.9477 1.0415 10.0001C1.0415 5.05253 5.05229 1.04175 9.99984 1.04175ZM9.99984 8.75008C9.53959 8.75008 9.1665 9.12316 9.1665 9.58341V13.3334C9.1665 13.7937 9.53959 14.1667 9.99984 14.1667C10.4601 14.1667 10.8332 13.7937 10.8332 13.3334V9.58341C10.8332 9.12316 10.4601 8.75008 9.99984 8.75008ZM9.99984 5.83179C9.53959 5.83179 9.1665 6.20488 9.1665 6.66512V6.67326C9.1665 7.1335 9.53959 7.50659 9.99984 7.50659C10.4601 7.50659 10.8332 7.1335 10.8332 6.67326V6.66512C10.8332 6.20488 10.4601 5.83179 9.99984 5.83179Z" fill="#828282"/>
</svg>
