<svg width="22" height="22" viewBox="0 0 22 22" fill="none" xmlns="http://www.w3.org/2000/svg">
<path d="M10.7708 1.375C15.96 1.375 20.1667 5.58166 20.1667 10.7708C20.1667 15.96 15.96 20.1667 10.7708 20.1667C9.17657 20.1667 7.67347 19.7685 6.35669 19.0665C4.73038 18.3664 3.13094 18.7007 2.12248 18.789C1.86621 18.8114 1.61899 18.6886 1.48153 18.4712C1.34418 18.2538 1.33975 17.9778 1.46989 17.7559C1.63803 17.4692 1.86999 16.8443 1.98731 16.0703C2.10367 15.3023 2.09465 14.464 1.85302 13.7374C1.54266 12.8041 1.375 11.8063 1.375 10.7708C1.375 5.58166 5.58166 1.375 10.7708 1.375ZM7.11222 9.85417C6.60607 9.85426 6.19556 10.2646 6.19556 10.7708C6.19556 11.277 6.60607 11.6874 7.11222 11.6875H7.12028L7.21428 11.683C7.67646 11.6361 8.03695 11.2454 8.03695 10.7708C8.03695 10.2963 7.67646 9.90559 7.21428 9.85866L7.12028 9.85417H7.11222ZM10.7744 9.85417C10.2684 9.85444 9.85774 10.2647 9.85774 10.7708C9.85774 11.2769 10.2684 11.6872 10.7744 11.6875H10.7834C11.2895 11.6873 11.7001 11.2769 11.7001 10.7708C11.7001 10.2647 11.2895 9.85435 10.7834 9.85417H10.7744ZM14.4375 9.85417C13.9313 9.85426 13.5208 10.2646 13.5208 10.7708C13.5208 11.277 13.9313 11.6874 14.4375 11.6875H14.4456C14.9518 11.6875 15.3622 11.2771 15.3622 10.7708C15.3622 10.2646 14.9518 9.85417 14.4456 9.85417H14.4375Z" fill="white"/>
</svg>
