<svg width="139" height="140" viewBox="0 0 139 140" fill="none" xmlns="http://www.w3.org/2000/svg">
<g clip-path="url(#clip0_2725_87660)">
<path d="M120.648 -8.07031H18.2826C7.63525 -8.07031 -0.996094 -2.34578 -0.996094 4.71579V131.354C-0.996094 138.416 7.63525 144.14 18.2826 144.14H120.648C131.295 144.14 139.926 138.416 139.926 131.354V4.71579C139.926 -2.34578 131.295 -8.07031 120.648 -8.07031Z" fill="#FFECEC"/>
<path d="M69.4635 -8.26172H65.4727V144.265H69.4635V-8.26172Z" fill="white"/>
<path d="M46.1577 -8.26172H44.6602V144.265H46.1577V-8.26172Z" fill="white"/>
<path d="M139.996 45.057V43.5156L-0.926483 43.5156V45.057L139.996 45.057Z" fill="white"/>
<path d="M139.996 78.9672V77.4258H-0.524994V78.9672H139.996Z" fill="white"/>
<path d="M104.084 -8.26172H102.586V144.265H104.084V-8.26172Z" fill="white"/>
<path d="M94.3267 -8.26172H90.3359V144.265H94.3267V-8.26172Z" fill="white"/>
<path d="M139.996 25.0189V21.5508L-0.926483 21.5508V25.0189L139.996 25.0189Z" fill="white"/>
<path d="M139.996 111.334V107.48H-0.524994V111.334H139.996Z" fill="white"/>
<path d="M46.261 109.684H44.5547V77.3731H66.6165V43.5824H91.4807V24.2344H93.191V45.224H68.3268V79.0147H46.261V109.684Z" fill="#010101"/>
<g opacity="0.61">
<path d="M61.566 111.535C61.6121 103.361 54.7452 96.6985 46.2284 96.6543C37.7117 96.61 30.7701 103.201 30.7241 111.375C30.678 119.549 37.5448 126.212 46.0616 126.256C54.5783 126.3 61.5199 119.709 61.566 111.535Z" fill="#FFC9C8"/>
</g>
<g opacity="0.61">
<path d="M55.9767 114.538C57.7339 109.335 54.7638 103.75 49.3429 102.064C43.9219 100.377 38.1029 103.228 36.3457 108.431C34.5885 113.634 37.5586 119.219 42.9795 120.905C48.4005 122.592 54.2195 119.741 55.9767 114.538Z" fill="white"/>
<path d="M53.1225 121.214C51.1146 122.537 48.743 123.259 46.3077 123.288C43.8724 123.318 41.4828 122.653 39.441 121.379C37.3992 120.105 35.797 118.278 34.8369 116.13C33.8769 113.981 33.6021 111.608 34.0474 109.31C34.4927 107.012 35.6381 104.892 37.3386 103.219C39.0392 101.545 41.2186 100.394 43.6012 99.909C45.9838 99.4245 48.4625 99.629 50.724 100.497C52.9855 101.364 54.9282 102.856 56.3063 104.783C58.1509 107.369 58.8516 110.55 58.2547 113.631C57.6578 116.711 55.8121 119.439 53.1225 121.214ZM41.4472 104.884C40.091 105.778 39.0416 107.039 38.4317 108.506C37.8218 109.973 37.6787 111.581 38.0206 113.126C38.3624 114.671 39.1738 116.084 40.3522 117.186C41.5306 118.289 43.0231 119.031 44.6411 119.32C46.2591 119.609 47.9299 119.43 49.4424 118.808C50.9548 118.185 52.2411 117.146 53.1385 115.822C54.0359 114.498 54.5042 112.949 54.4842 111.369C54.4642 109.79 53.9568 108.252 53.0261 106.949C52.4072 106.084 51.6167 105.344 50.6999 104.772C49.783 104.199 48.7576 103.806 47.6824 103.614C46.6072 103.423 45.5031 103.436 44.4332 103.654C43.3634 103.871 42.3487 104.289 41.4472 104.884Z" fill="#FFA3A3"/>
</g>
<path d="M41.6523 106.574L44.6274 119.028L46.671 113.591L41.6523 106.574Z" fill="#D1000C"/>
<path d="M41.6523 106.574L52.6933 113.715L46.671 113.591L41.6523 106.574Z" fill="#D1000C"/>
<g opacity="0.61">
<path d="M92.4118 31.4611C96.6714 31.4611 100.124 28.1469 100.124 24.0587C100.124 19.9704 96.6714 16.6562 92.4118 16.6562C88.1523 16.6562 84.6992 19.9704 84.6992 24.0587C84.6992 28.1469 88.1523 31.4611 92.4118 31.4611Z" fill="#FFC9C8"/>
</g>
<g opacity="0.61">
<path d="M96.6653 21.2571C97.2432 22.0644 97.5586 23.0181 97.5717 23.9975C97.5848 24.9769 97.295 25.9381 96.7389 26.7594C96.1827 27.5806 95.3853 28.2252 94.4475 28.6114C93.5096 28.9977 92.4735 29.1083 91.4702 28.9293C90.4668 28.7503 89.5413 28.2897 88.8107 27.6058C88.0802 26.9218 87.5773 26.0453 87.3659 25.0871C87.1544 24.1288 87.2438 23.1319 87.6227 22.2225C88.0017 21.313 88.6531 20.5318 89.4947 19.9777C90.6225 19.2352 92.0113 18.9529 93.3559 19.1928C94.7005 19.4327 95.8909 20.1752 96.6653 21.2571Z" fill="white"/>
<path d="M95.8944 28.9343C94.889 29.5945 93.7022 29.9537 92.4841 29.9665C91.2661 29.9793 90.0714 29.6451 89.0512 29.0063C88.031 28.3674 87.2311 27.4525 86.7527 26.3772C86.2743 25.302 86.1388 24.1148 86.3634 22.9657C86.5881 21.8166 87.1627 20.7572 88.0146 19.9215C88.8666 19.0859 89.9576 18.5115 91.1497 18.271C92.3418 18.0304 93.5814 18.1346 94.7119 18.5703C95.8423 19.006 96.8127 19.7537 97.5003 20.7188C98.4202 22.0133 98.7677 23.6051 98.4666 25.1451C98.1656 26.6852 97.2406 28.0478 95.8944 28.9343ZM90.0527 20.7689C89.3747 21.2159 88.8501 21.8457 88.545 22.5789C88.24 23.312 88.1683 24.1155 88.339 24.8878C88.5096 25.66 88.915 26.3664 89.5039 26.9175C90.0928 27.4687 90.8387 27.8399 91.6473 27.9842C92.456 28.1286 93.2911 28.0396 94.047 27.7285C94.803 27.4174 95.4458 26.8982 95.8944 26.2364C96.3429 25.5747 96.577 24.8002 96.567 24.0108C96.557 23.2214 96.3033 22.4526 95.8381 21.8016C95.2125 20.9296 94.2522 20.3313 93.1678 20.1377C92.0833 19.9441 90.9631 20.1711 90.0527 20.7689Z" fill="#FFA3A3"/>
</g>
<path d="M94.0622 24.0759C94.0622 24.3899 93.9652 24.6968 93.7834 24.9579C93.6016 25.219 93.3433 25.4225 93.041 25.5427C92.7388 25.6628 92.4062 25.6943 92.0853 25.633C91.7645 25.5717 91.4697 25.4205 91.2384 25.1985C91.0071 24.9765 90.8495 24.6936 90.7857 24.3856C90.7219 24.0777 90.7546 23.7584 90.8798 23.4683C91.005 23.1782 91.217 22.9303 91.4891 22.7558C91.7611 22.5814 92.0809 22.4883 92.408 22.4883C92.8464 22.4893 93.2665 22.6569 93.5765 22.9544C93.8865 23.2519 94.0611 23.6551 94.0622 24.0759Z" fill="#D1000C"/>
</g>
<defs>
<clipPath id="clip0_2725_87660">
<rect width="139" height="140" rx="10" fill="white"/>
</clipPath>
</defs>
</svg>
