<svg width="10" height="10" viewBox="0 0 10 10" fill="none" xmlns="http://www.w3.org/2000/svg">
<g clip-path="url(#clip0_2210_5622)">
<path fill-rule="evenodd" clip-rule="evenodd" d="M4.23278 0.489435C4.55224 -0.163145 5.44775 -0.163145 5.76722 0.489435L6.84356 2.68838C6.86141 2.72486 6.89497 2.75026 6.9338 2.7567L9.27346 3.14464C9.96741 3.25971 10.2439 4.14503 9.7477 4.66308L8.07278 6.41154C8.04502 6.44052 8.03224 6.48149 8.03839 6.5219L8.40756 8.96216C8.51697 9.6854 7.79263 10.2328 7.16609 9.90047L5.05585 8.78124C5.02078 8.76262 4.97922 8.76262 4.94414 8.78124L2.83392 9.90047C2.20734 10.2328 1.48304 9.6854 1.59245 8.96216L1.96163 6.5219C1.96774 6.48149 1.95495 6.44052 1.92721 6.41154L0.252282 4.66308C-0.243937 4.14503 0.0325895 3.25971 0.726541 3.14464L3.06618 2.7567C3.10502 2.75026 3.13857 2.72486 3.15643 2.68838L4.23278 0.489435Z" fill="#FFC033"/>
</g>
<defs>
<clipPath id="clip0_2210_5622">
<rect width="10" height="10" fill="white"/>
</clipPath>
</defs>
</svg>
