<svg width="38" height="38" viewBox="0 0 38 38" fill="none" xmlns="http://www.w3.org/2000/svg">
<circle cx="19" cy="19" r="19" fill="#D1000C"/>
<path d="M19.6398 11.2084H18.3616C17.7065 11.2084 17.379 11.2084 17.0853 11.311C16.9059 11.3737 16.7374 11.4639 16.5857 11.5784C16.3373 11.7659 16.1557 12.0384 15.7923 12.5834C15.6062 12.8625 15.3319 13.274 15.2226 13.3889C14.9517 13.6735 14.5965 13.8636 14.2093 13.9311C14.0531 13.9584 13.8853 13.9584 13.5499 13.9584C12.6515 13.9584 12.2023 13.9584 11.835 14.0623C10.9162 14.3224 10.198 15.0405 9.93795 15.9594C9.83398 16.3266 9.83398 16.7759 9.83398 17.6743V21.2917C9.83398 23.8844 9.83398 25.1808 10.6394 25.9862C11.4449 26.7917 12.7413 26.7917 15.334 26.7917H22.6673C25.26 26.7917 26.5564 26.7917 27.3619 25.9862C28.1673 25.1808 28.1673 23.8844 28.1673 21.2917V17.6743C28.1673 16.7759 28.1673 16.3266 28.0634 15.9594C27.8032 15.0405 27.0851 14.3224 26.1663 14.0623C25.799 13.9584 25.3499 13.9584 24.4514 13.9584C24.1159 13.9584 23.9482 13.9584 23.792 13.9311C23.4048 13.8636 23.0496 13.6735 22.7787 13.3889C22.6694 13.274 22.3951 12.8625 22.209 12.5834C21.8456 12.0384 21.664 11.7659 21.4156 11.5784C21.2639 11.4639 21.0954 11.3737 20.916 11.311C20.6223 11.2084 20.2948 11.2084 19.6398 11.2084Z" stroke="white" stroke-width="1.5" stroke-linecap="round" stroke-linejoin="round"/>
<path d="M22.6673 19.9167C22.6673 21.9417 21.0257 23.5833 19.0007 23.5833C16.9756 23.5833 15.334 21.9417 15.334 19.9167C15.334 17.8917 16.9756 16.25 19.0007 16.25C21.0257 16.25 22.6673 17.8917 22.6673 19.9167Z" stroke="white" stroke-width="1.5" stroke-linecap="round" stroke-linejoin="round"/>
<path d="M25.416 16.7084V16.7184" stroke="white" stroke-width="1.5" stroke-linecap="round" stroke-linejoin="round"/>
</svg>
