<svg width="16" height="16" viewBox="0 0 16 16" fill="none" xmlns="http://www.w3.org/2000/svg">
<g clip-path="url(#clip0_2210_5660)">
<path d="M15.0866 7.62432L15.1994 7.73038V7.40801C15.1994 6.69811 14.7016 6.12017 14.0903 6.12017H13.1127C12.4287 3.27057 10.0986 1.73804 6.63221 1.73804C4.42486 1.73804 4.14132 1.73804 2.05089 1.73804C2.05089 1.73804 2.67852 2.26545 2.67852 3.92618V6.12184H1.52264C1.29798 6.12184 1.0871 6.03499 0.912553 5.87088L0.799805 5.76481V6.08718C0.799805 6.7975 1.29757 7.37502 1.90891 7.37502H2.67894V8.62735H1.52306C1.2984 8.62735 1.08752 8.54091 0.91297 8.37639L0.800222 8.27032V8.59228C0.800222 9.30217 1.29798 9.87927 1.90933 9.87927H2.67935V12.1714C2.67935 13.7854 2.05172 14.2618 2.05172 14.2618H6.63305C10.2084 14.2618 12.4642 12.7184 13.1215 9.87802H14.477C14.7016 9.87802 14.9125 9.96446 15.0871 10.1286L15.1998 10.2346V9.91268C15.1998 9.20279 14.702 8.62527 14.0907 8.62527H13.3015C13.3148 8.42148 13.3219 8.21311 13.3219 7.99889C13.3219 7.78467 13.3144 7.57671 13.3006 7.37293H14.477C14.7012 7.37293 14.9125 7.45937 15.0871 7.6239L15.0866 7.62432ZM4.55598 2.36483H6.47103C9.04753 2.36483 10.54 3.50609 10.9851 6.12059L4.55598 6.12143V2.36483ZM6.48731 13.6363H4.55556V9.87886L10.9809 9.87802C10.5646 12.2441 9.22416 13.5686 6.48731 13.6363ZM11.1279 8.00014C11.1279 8.21436 11.1233 8.42315 11.1137 8.6261L4.55598 8.62694V7.3746L11.1142 7.37376C11.1233 7.57588 11.1279 7.78425 11.1279 8.00014Z" fill="#010101"/>
</g>
<defs>
<clipPath id="clip0_2210_5660">
<rect width="16" height="16" fill="white"/>
</clipPath>
</defs>
</svg>
