<svg width="120" height="120" viewBox="0 0 120 120" fill="none" xmlns="http://www.w3.org/2000/svg">
<path d="M99.1723 59.3645C99.1723 60.6157 98.1581 61.6299 96.907 61.6299C95.6558 61.6299 94.6416 60.6157 94.6416 59.3645C94.6416 58.1134 95.6558 57.0992 96.907 57.0992C98.1581 57.0989 99.1723 58.1132 99.1723 59.3645Z" fill="#F3F3F3"/>
<path d="M91.8855 61.071C92.8279 60.1286 92.8279 58.6007 91.8855 57.6582C90.9431 56.7158 89.4152 56.7158 88.4728 57.6582C87.5304 58.6007 87.5304 60.1286 88.4728 61.071C89.4152 62.0134 90.9431 62.0134 91.8855 61.071Z" fill="#F3F3F3"/>
<path d="M85.0096 57.6564C86.4243 57.6564 87.5712 56.5096 87.5712 55.0949C87.5712 53.6802 86.4243 52.5334 85.0096 52.5334C83.595 52.5334 82.4481 53.6802 82.4481 55.0949C82.4481 56.5096 83.595 57.6564 85.0096 57.6564Z" fill="#F3F3F3"/>
<path d="M86.5981 49.0026C86.8592 47.5481 85.8918 46.1574 84.4374 45.8963C82.9829 45.6352 81.5922 46.6026 81.3311 48.057C81.07 49.5115 82.0374 50.9022 83.4919 51.1633C84.9463 51.4244 86.337 50.457 86.5981 49.0026Z" fill="#F3F3F3"/>
<path d="M87.2366 45.5492C88.7637 45.5492 90.0016 44.3112 90.0016 42.7841C90.0016 41.2571 88.7637 40.0191 87.2366 40.0191C85.7095 40.0191 84.4716 41.2571 84.4716 42.7841C84.4716 44.3112 85.7095 45.5492 87.2366 45.5492Z" fill="#F3F3F3"/>
<path d="M94.6991 43.2989C96.2348 42.6572 96.9594 40.8921 96.3176 39.3564C95.6759 37.8208 93.9108 37.0962 92.3752 37.7379C90.8395 38.3797 90.1149 40.1448 90.7566 41.6804C91.3984 43.216 93.1635 43.9407 94.6991 43.2989Z" fill="#F3F3F3"/>
<path d="M104.041 55.541C104.318 54.3646 103.588 53.1867 102.412 52.91C101.236 52.6334 100.058 53.3629 99.7811 54.5393C99.5045 55.7157 100.234 56.8936 101.41 57.1702C102.587 57.4468 103.765 56.7174 104.041 55.541Z" fill="#F3F3F3"/>
<path d="M103.804 50.3595C104.852 49.9584 105.376 48.7841 104.975 47.7366C104.573 46.6891 103.399 46.1651 102.352 46.5662C101.304 46.9673 100.78 48.1416 101.181 49.1891C101.582 50.2365 102.757 50.7605 103.804 50.3595Z" fill="#F3F3F3"/>
<path d="M101.528 43.0098C101.692 41.9984 101.005 41.0458 99.9932 40.882C98.9818 40.7183 98.0292 41.4055 97.8655 42.4168C97.7018 43.4282 98.3889 44.3808 99.4003 44.5446C100.412 44.7083 101.364 44.0211 101.528 43.0098Z" fill="#F3F3F3"/>
<path fill-rule="evenodd" clip-rule="evenodd" d="M34.1428 31.8079C34.7013 32.4048 35.17 33.0672 35.5432 33.7738L37.781 33.7651L38.6126 37.3733L36.5968 38.3455C36.5709 39.144 36.4399 39.9449 36.1987 40.7266L37.7867 42.3024L35.8233 45.4416L33.7115 44.7041C33.1147 45.2633 32.4518 45.7315 31.7452 46.1043L31.7536 48.3425L28.1459 49.1741L27.1735 47.1583C26.375 47.1322 25.5743 47.0009 24.7924 46.7595L23.2168 48.3475L20.0769 46.3843L20.8147 44.2723C20.2555 43.6755 19.7875 43.0131 19.4145 42.3063L17.1763 42.3147L16.3447 38.7065L18.3609 37.7345C18.3871 36.936 18.5183 36.1354 18.7593 35.3537L17.1717 33.7779L19.1349 30.6384L21.2467 31.3762C21.8435 30.817 22.5064 30.3485 23.213 29.9758L23.2046 27.7375L26.8123 26.9059L27.7845 28.9219C28.583 28.9479 29.3836 29.0791 30.1655 29.3203L31.7411 27.7325L34.8803 29.6955L34.1428 31.8079ZM29.7273 34.7616C27.8675 33.5986 25.4167 34.1633 24.2534 36.0235C23.0903 37.8835 23.6555 40.3344 25.5151 41.4972C27.3753 42.6603 29.8257 42.0953 30.989 40.2355C32.1523 38.3753 31.5875 35.9249 29.7273 34.7616Z" fill="#E0E0E0"/>
<path fill-rule="evenodd" clip-rule="evenodd" d="M36.3228 16.6325C36.6319 16.963 36.8913 17.3297 37.098 17.7209L38.3369 17.7161L38.7972 19.7136L37.6812 20.2519C37.6668 20.694 37.5943 21.1375 37.4606 21.5703L38.3397 22.4427L37.2525 24.1807L36.0833 23.7725C35.7528 24.0821 35.3858 24.3413 34.9946 24.5477L34.9994 25.7868L33.0021 26.2474L32.4638 25.1314C32.0217 25.117 31.5785 25.0443 31.1457 24.9106L30.2733 25.7899L28.535 24.703L28.9435 23.5337C28.6339 23.2032 28.3747 22.8365 28.1683 22.4451L26.9292 22.4496L26.4686 20.4519L27.5849 19.9138C27.5993 19.4717 27.6722 19.0284 27.8054 18.5957L26.9263 17.7233L28.0133 15.985L29.1825 16.3935C29.513 16.0839 29.88 15.8244 30.2712 15.618L30.2664 14.3789L32.2637 13.9183L32.802 15.0346C33.2441 15.049 33.6873 15.1217 34.1203 15.2551L34.9927 14.376L36.7308 15.4627L36.3228 16.6325ZM33.8781 18.2679C32.8485 17.6239 31.4916 17.9367 30.8477 18.9665C30.2037 19.9963 30.5167 21.3531 31.5463 21.997C32.5761 22.6409 33.9329 22.3282 34.5768 21.2983C35.2207 20.2685 34.908 18.9118 33.8781 18.2679Z" fill="#E0E0E0"/>
<path d="M18.9423 20.3249C18.9442 20.3215 18.9786 20.3407 19.0422 20.3808C19.1065 20.4194 19.1958 20.4869 19.2975 20.5877C19.4994 20.7842 19.7552 21.1488 19.8099 21.6689C19.8351 21.9252 19.8118 22.2168 19.6995 22.5019C19.587 22.7841 19.4012 23.0678 19.1269 23.2785C18.9932 23.3873 18.8379 23.4758 18.6702 23.5418C18.5031 23.6102 18.3214 23.6534 18.1342 23.6659C17.7596 23.6993 17.3631 23.6028 17.0235 23.3945C16.6873 23.1804 16.4269 22.866 16.293 22.5144C16.2222 22.3404 16.1816 22.158 16.1698 21.978C16.1557 21.7982 16.1674 21.6197 16.2066 21.4519C16.2759 21.1128 16.4494 20.8217 16.6542 20.5968C16.8615 20.3712 17.1133 20.2224 17.355 20.1329C17.8465 19.9545 18.2864 20.0246 18.5514 20.1201C18.6865 20.1674 18.7863 20.2183 18.849 20.2591C18.9121 20.2992 18.9445 20.3217 18.9423 20.3249C18.9358 20.3366 18.8048 20.2452 18.5372 20.1624C18.2744 20.0817 17.8489 20.0277 17.3826 20.208C17.1534 20.2985 16.916 20.4437 16.7226 20.6606C16.5315 20.8769 16.3702 21.1538 16.3078 21.474C16.2721 21.6324 16.2625 21.8006 16.2769 21.9698C16.2889 22.1393 16.328 22.3106 16.3954 22.4738C16.5229 22.8038 16.7674 23.0976 17.083 23.2989C17.4022 23.4943 17.7733 23.5857 18.1256 23.5557C18.3018 23.5449 18.4729 23.5051 18.6306 23.4417C18.789 23.3808 18.9358 23.2985 19.0626 23.1969C19.3232 23.0009 19.5015 22.7345 19.6122 22.4681C19.7223 22.1993 19.7492 21.9223 19.7302 21.6765C19.6882 21.1783 19.4535 20.8193 19.2656 20.6184C19.0741 20.4137 18.9344 20.3357 18.9423 20.3249Z" fill="#E0E0E0"/>
<path d="M20.9234 18.9998C20.922 19.0001 20.9275 18.9799 20.94 18.9396C20.9546 18.8947 20.9738 18.835 20.9983 18.7589C21.054 18.5928 21.1336 18.3547 21.2368 18.0463L21.2443 18.0674C20.8819 17.844 20.406 17.5505 19.8304 17.1958L19.866 17.1917C19.6526 17.4084 19.4157 17.6494 19.1623 17.9071L19.1484 17.9213L19.1289 17.9155C18.8064 17.8174 18.449 17.7533 18.0696 17.7422L18.0472 17.7415L18.0374 17.7211C17.9006 17.4396 17.7525 17.135 17.5984 16.818L17.6436 16.8396C17.1343 16.9584 16.5936 17.0844 16.0262 17.2169L16.0608 17.1734C16.0627 17.4842 16.0646 17.8265 16.0668 18.1774L16.067 18.2057L16.042 18.2189C15.7478 18.3746 15.444 18.5844 15.1716 18.8414L15.1502 18.8616L15.1221 18.852C14.8284 18.75 14.5044 18.6372 14.1744 18.5227L14.2336 18.5018C13.9576 18.9446 13.66 19.422 13.355 19.9114L13.3476 19.8463C13.5696 20.0662 13.8134 20.3078 14.0606 20.5524L14.0836 20.5752L14.074 20.6062C13.9754 20.9263 13.9101 21.2897 13.8986 21.6602L13.8976 21.6931L13.8679 21.7075C13.5847 21.8443 13.2758 21.9936 12.9638 22.1443L12.9936 22.0822C13.1119 22.5946 13.2388 23.1437 13.3675 23.7005L13.3125 23.657C13.6296 23.6558 13.9718 23.6544 14.3167 23.653L14.3508 23.6527L14.3666 23.683C14.5248 23.9832 14.7345 24.2846 14.9856 24.552L14.9858 24.5522L14.986 24.5525C14.9916 24.5782 14.974 24.4954 14.9983 24.6098L14.998 24.6108L14.9973 24.6127L14.9961 24.6166L14.9935 24.624L14.9882 24.6389L14.9776 24.6686L14.9568 24.7282L14.9152 24.8472L14.8322 25.0848C14.777 25.243 14.722 25.4004 14.6671 25.5571L14.6438 25.4909C15.1197 25.7887 15.5892 26.0825 16.0521 26.3719L15.9828 26.3801C16.2208 26.1403 16.4565 25.903 16.6898 25.668L16.7136 25.6442L16.7455 25.6541C17.0908 25.7609 17.4463 25.8194 17.7988 25.8312L17.832 25.8324L17.8464 25.8622C17.9937 26.1682 18.1387 26.4694 18.2817 26.7667L18.2212 26.7377C18.7737 26.611 19.3137 26.4871 19.84 26.3664L19.7997 26.4173C19.799 26.0767 19.798 25.7419 19.7973 25.4134V25.3826L19.8244 25.3685C20.148 25.1983 20.441 24.9881 20.6966 24.7495L20.7182 24.7294L20.746 24.7392C21.0708 24.8532 21.3854 24.9638 21.6928 25.0718L21.6376 25.0913C21.9487 24.5966 22.2422 24.1296 22.5216 23.6851L22.5278 23.7386C22.278 23.4893 22.0435 23.2555 21.8174 23.0299L21.7999 23.0124L21.8071 22.9891C21.9208 22.6236 21.9748 22.2696 21.9873 21.9319L21.9883 21.9094L22.0084 21.8998C22.3377 21.7426 22.6341 21.601 22.9142 21.467L22.896 21.504C22.7546 20.8764 22.6341 20.3417 22.5309 19.8838L22.5556 19.9034C22.1548 19.902 21.826 19.901 21.5517 19.9001H21.5407L21.5356 19.8905C21.3672 19.567 21.204 19.349 21.0931 19.2079C21.0384 19.1414 20.9964 19.0903 20.9652 19.0522C20.9352 19.0169 20.922 19.0001 20.9234 18.9998C20.9248 18.9996 20.9416 19.0154 20.9721 19.0459C21.0028 19.0781 21.0492 19.127 21.1075 19.1959C21.2234 19.3337 21.3926 19.5497 21.5676 19.8732L21.5515 19.8636C21.8258 19.8607 22.1546 19.8571 22.5554 19.8526L22.5756 19.8523L22.5804 19.8722C22.6881 20.3292 22.8136 20.863 22.9612 21.4889L22.9672 21.5148L22.943 21.5266C22.6639 21.6624 22.3684 21.8064 22.0404 21.966L22.0612 21.9338C22.0509 22.2778 21.9981 22.639 21.8841 23.0126L21.874 22.9718C22.1013 23.1962 22.337 23.429 22.5883 23.677L22.6128 23.7012L22.5945 23.7307C22.3171 24.1766 22.0255 24.6449 21.7168 25.141L21.6972 25.1726L21.6616 25.1604C21.354 25.0536 21.0386 24.9442 20.7136 24.8314L20.7631 24.8208C20.502 25.0663 20.2022 25.2828 19.8712 25.458L19.8981 25.4131C19.8998 25.7419 19.9015 26.0765 19.9032 26.417L19.9034 26.4586L19.8628 26.4679C19.3368 26.5898 18.7972 26.7149 18.245 26.8428L18.2032 26.8524L18.1845 26.8138C18.0408 26.5166 17.8953 26.2157 17.7475 25.9099L17.795 25.9409C17.4328 25.9294 17.0673 25.8696 16.7124 25.7602L16.768 25.7462C16.5348 25.9814 16.2993 26.219 16.0617 26.459L16.0303 26.4907L15.9924 26.467C15.5294 26.1778 15.0597 25.8842 14.5836 25.5866L14.5454 25.5626L14.5603 25.5202C14.615 25.3634 14.67 25.206 14.7252 25.0478L14.8082 24.8102L14.8497 24.6912L14.8706 24.6314L14.8809 24.6017L14.8862 24.5868L14.8888 24.5794L14.89 24.5758L14.8908 24.5738L14.891 24.5729C14.9152 24.6871 14.8977 24.6046 14.903 24.63L14.9028 24.6298L14.9023 24.6293C14.6443 24.3545 14.4285 24.0444 14.2663 23.7358L14.3162 23.7658C13.9716 23.767 13.6293 23.7682 13.312 23.7694L13.2672 23.7696L13.2571 23.7259C13.1289 23.1691 13.0027 22.6198 12.8848 22.1071L12.875 22.0639L12.9148 22.0447C13.2271 21.8945 13.5362 21.7457 13.8196 21.6094L13.7887 21.6566C13.8009 21.276 13.8688 20.903 13.9706 20.5747L13.984 20.6285C13.7376 20.3832 13.4942 20.1413 13.2727 19.921L13.2429 19.8912L13.2652 19.8557C13.5717 19.3673 13.8705 18.8904 14.1477 18.4486L14.1691 18.4145L14.207 18.4277C14.5368 18.5434 14.8603 18.6571 15.1538 18.7601L15.1046 18.7706C15.3847 18.5086 15.6964 18.2947 15.9981 18.1368L15.9732 18.1781C15.9727 17.8272 15.972 17.485 15.9715 17.1742V17.1384L16.006 17.1305C16.5741 17.0011 17.1153 16.8778 17.6253 16.7616L17.6568 16.7544L17.6707 16.7832C17.8228 17.101 17.969 17.4067 18.1041 17.689L18.072 17.6681C18.4584 17.682 18.8215 17.7499 19.1486 17.8522L19.1157 17.8608C19.3713 17.6054 19.6106 17.3666 19.8256 17.1516L19.842 17.1353L19.8612 17.1475C20.4321 17.5097 20.9042 17.809 21.2637 18.0372L21.276 18.0451L21.2712 18.0586C21.1612 18.3612 21.0763 18.5947 21.017 18.7579C20.9884 18.834 20.9661 18.8935 20.9493 18.9384C20.9337 18.9787 20.9251 18.9996 20.9234 18.9998Z" fill="#E0E0E0"/>
<path d="M78.3749 10.002L71.3187 9.96959C70.3726 9.96527 69.6017 10.7638 69.5979 11.7528L69.5921 13.0327C69.5883 14.022 68.8174 14.8205 67.8713 14.8162L54.1169 14.7526C53.1708 14.7482 52.4069 13.9428 52.411 12.9535L52.4165 11.6736C52.4206 10.6843 51.6567 9.87863 50.7106 9.87455L48.229 9.86303L42.0531 9.83447C38.9859 9.82055 36.4882 12.2959 36.4752 15.3633L36.0989 104.422C36.086 107.488 38.5599 109.984 41.6254 109.998L77.9475 110.166C81.0144 110.18 83.5121 107.704 83.5253 104.637L83.9019 15.5779C83.9144 12.5121 81.4404 10.0164 78.3749 10.002Z" fill="white"/>
<path d="M78.3749 10.002C78.3749 10.002 78.4388 10.0034 78.565 10.0092C78.6905 10.0219 78.8815 10.0082 79.1276 10.056C79.6193 10.1165 80.3669 10.2797 81.2062 10.7849C81.63 11.0263 82.0606 11.3734 82.4676 11.8164C82.873 12.2602 83.2488 12.8143 83.5169 13.4774C83.7886 14.1384 83.9338 14.9093 83.9225 15.7315C83.9199 16.5514 83.9172 17.4242 83.9144 18.349C83.8877 25.7472 83.8493 36.4507 83.8018 49.6764C83.7497 62.903 83.6876 78.6516 83.6187 96.1387C83.6098 98.3246 83.6009 100.538 83.5918 102.776C83.5896 103.336 83.5872 103.897 83.5848 104.46C83.5762 105.024 83.5375 105.602 83.3657 106.149C83.2039 106.696 82.975 107.23 82.6522 107.707C82.3306 108.184 81.9401 108.615 81.4935 108.982C80.5901 109.701 79.4602 110.158 78.2907 110.211C77.9976 110.23 77.7089 110.226 77.4192 110.224L76.549 110.22C75.968 110.218 75.3857 110.215 74.802 110.212C72.4668 110.202 70.1093 110.191 67.7307 110.18C62.9734 110.159 58.1319 110.137 53.2183 110.114C50.7617 110.103 48.2871 110.092 45.7959 110.08C44.5503 110.075 43.3006 110.069 42.0471 110.063C40.7897 110.122 39.4908 109.786 38.4439 109.053C37.3927 108.325 36.6192 107.228 36.2611 106.012C36.0684 105.406 36.0351 104.761 36.0375 104.137C36.0401 103.512 36.0427 102.888 36.0454 102.265C36.0559 99.7735 36.0665 97.2982 36.0771 94.8408C36.0982 89.9261 36.1188 85.0831 36.1395 80.3246C36.181 70.8077 36.2211 61.6277 36.2592 52.8828C36.2981 44.1379 36.3353 35.8282 36.3699 28.0512C36.3876 24.1627 36.4047 20.4074 36.421 16.7978C36.4231 16.3466 36.4251 15.8976 36.4272 15.451C36.4313 15.2273 36.4481 15.0019 36.4611 14.7787C36.5009 14.5584 36.5189 14.3342 36.577 14.1187C36.7832 13.2521 37.1878 12.4416 37.7518 11.7756C38.3199 11.1132 39.031 10.589 39.8129 10.2478C40.5943 9.89881 41.4509 9.77809 42.2784 9.79153C43.9318 9.79993 45.5455 9.80809 47.1185 9.81601C47.905 9.82009 48.6812 9.82393 49.447 9.82801C49.8298 9.82993 50.2102 9.83185 50.5877 9.83377C50.9683 9.81649 51.3622 9.92209 51.6737 10.1417C51.985 10.3613 52.2238 10.6766 52.3457 11.0314C52.4859 11.3866 52.4506 11.7694 52.4535 12.125C52.4525 12.3058 52.4518 12.486 52.4508 12.6655C52.4506 12.8455 52.4434 13.0243 52.4662 13.1962C52.5091 13.5418 52.6539 13.8734 52.8792 14.1322C53.1 14.395 53.4036 14.5831 53.7305 14.6654C53.8951 14.7072 54.0605 14.7197 54.2331 14.717C54.4044 14.718 54.5748 14.7187 54.7447 14.7197C55.424 14.7233 56.0921 14.7266 56.7488 14.7302C59.3756 14.7442 61.82 14.7574 64.0702 14.7694C65.1953 14.7756 66.2717 14.7814 67.2982 14.7869C67.5533 14.7835 67.8115 14.8006 68.0551 14.7802C68.3002 14.7533 68.5347 14.6695 68.7384 14.5428C69.1486 14.2896 69.428 13.8682 69.5237 13.423C69.5756 13.2002 69.5676 12.973 69.5698 12.7476C69.571 12.523 69.5722 12.3014 69.5734 12.0835C69.577 11.8668 69.5645 11.6489 69.6048 11.437C69.642 11.2262 69.7143 11.0254 69.8158 10.8446C70.0167 10.481 70.3419 10.207 70.7026 10.0668C71.0664 9.91009 71.4533 9.95953 71.8037 9.95353C73.2269 9.96241 74.4315 9.97009 75.4054 9.97609C76.3781 9.98329 77.1202 9.98881 77.6201 9.99241C78.1193 9.99649 78.3749 10.002 78.3749 10.002C78.3749 10.002 78.1193 10.0051 77.6203 10.0049C77.1204 10.0039 76.3783 10.0027 75.4054 10.0008C74.4315 9.99793 73.2269 9.99433 71.8037 9.99025C71.45 9.99697 71.0703 9.94993 70.7172 10.1035C70.3656 10.2413 70.0486 10.5094 69.8532 10.865C69.7546 11.0417 69.6843 11.238 69.6485 11.4439C69.6096 11.6491 69.6221 11.8646 69.619 12.083C69.6183 12.3012 69.6176 12.5225 69.6168 12.7471C69.6149 12.9701 69.6238 13.2031 69.571 13.4326C69.4735 13.8898 69.1877 14.3239 68.7653 14.5855C68.5555 14.7166 68.3134 14.8034 68.0607 14.8318C67.8051 14.8531 67.5555 14.8361 67.2977 14.8402C66.2715 14.8363 65.1948 14.8322 64.0697 14.8279C61.8195 14.819 59.3748 14.8094 56.748 14.7994C56.0914 14.7967 55.4232 14.7941 54.744 14.7912C54.5741 14.7905 54.4037 14.7898 54.2326 14.789C54.0629 14.7922 53.8824 14.7797 53.7125 14.736C53.3705 14.6503 53.0532 14.4538 52.8226 14.1802C52.5874 13.9104 52.4359 13.565 52.3908 13.205C52.3668 13.0234 52.3745 12.8429 52.3743 12.6646C52.375 12.485 52.3757 12.305 52.3762 12.1241C52.3731 11.7624 52.4064 11.3952 52.2716 11.0568C52.1544 10.717 51.9252 10.4155 51.6279 10.2062C51.3276 9.99697 50.9614 9.89713 50.587 9.91369C50.2092 9.91201 49.8291 9.91057 49.4463 9.90889C48.6804 9.90577 47.9043 9.90241 47.1178 9.89929C45.5448 9.89281 43.9311 9.88609 42.2777 9.87913C41.4559 9.86689 40.6183 9.98593 39.8484 10.3301C39.0797 10.6666 38.3803 11.1828 37.8221 11.8346C37.2679 12.4903 36.871 13.2874 36.6689 14.1394C36.6118 14.351 36.5947 14.5716 36.5554 14.7881C36.5431 15.0082 36.5263 15.2275 36.5225 15.4505C36.5208 15.8971 36.5191 16.3462 36.5172 16.7974C36.5031 20.4072 36.4884 24.1625 36.4733 28.0507C36.4421 35.8277 36.409 44.1374 36.3742 52.8823C36.3384 61.6272 36.3007 70.8072 36.2619 80.3242C36.2419 85.0826 36.2218 89.9254 36.2014 94.8403C36.1911 97.2977 36.1807 99.7733 36.1702 102.265C36.1675 102.888 36.1649 103.512 36.1623 104.137C36.1601 104.76 36.1923 105.381 36.3809 105.977C36.7311 107.165 37.4873 108.238 38.5152 108.949C39.5431 109.666 40.7988 109.995 42.0473 109.937C43.3008 109.943 44.5505 109.949 45.7961 109.955C48.2873 109.966 50.762 109.978 53.2186 109.989C58.1321 110.012 62.9734 110.035 67.7309 110.057C70.1096 110.068 72.4673 110.079 74.8023 110.09C75.3859 110.093 75.9684 110.096 76.5492 110.099L77.4195 110.103C77.7094 110.105 77.9993 110.109 78.2837 110.09C79.4285 110.039 80.5337 109.592 81.4184 108.889C81.8556 108.529 82.238 108.107 82.5528 107.641C82.8692 107.174 83.0931 106.652 83.2517 106.116C83.4204 105.579 83.4579 105.018 83.4668 104.459C83.4692 103.896 83.4718 103.335 83.4742 102.775C83.484 100.537 83.4939 98.3237 83.5035 96.1378C83.5824 78.6509 83.6535 62.9021 83.7132 49.6757C83.7775 36.45 83.8296 25.7465 83.8656 18.3485C83.8704 17.4238 83.8752 16.5509 83.8795 15.731C83.8925 14.9126 83.7504 14.1487 83.4823 13.4911C83.2181 12.8318 82.8461 12.2798 82.4444 11.8373C82.0412 11.3954 81.6142 11.0484 81.193 10.8065C80.3597 10.3001 79.6157 10.133 79.1256 10.0687C78.8806 10.019 78.69 10.0308 78.5648 10.0159C78.4388 10.0078 78.3749 10.002 78.3749 10.002Z" fill="#010101"/>
<path d="M71.8527 38.0434L71.3072 37.3959L72.9308 36.5261L65.3926 33.9747L67.944 41.2808L68.8719 40.063C68.8719 40.063 73.7494 48.6459 68.8719 53.8635C64.028 59.0451 58.3186 57.9223 58.3186 57.9223L59.4202 61.5175C59.4202 61.5175 68.408 62.1555 73.2207 54.0375C78.0334 45.9197 71.8527 38.0434 71.8527 38.0434Z" fill="#D1000C"/>
<path d="M49.2492 56.0513L49.7948 56.6988L48.1712 57.5686L55.7093 60.12L53.1579 52.8139L52.23 54.0317C52.23 54.0317 47.3525 45.4488 52.23 40.2312C57.074 35.0496 62.7833 36.1721 62.7833 36.1721L61.6815 32.5769C61.6815 32.5769 52.6937 31.939 47.881 40.057C43.0685 48.175 49.2492 56.0513 49.2492 56.0513Z" fill="#D1000C"/>
<path d="M71.8527 38.0434L71.3072 37.3959L72.9308 36.5261L65.3926 33.9747L67.944 41.2808L68.8719 40.063C68.8719 40.063 73.7494 48.6459 68.8719 53.8635C64.028 59.0451 58.3186 57.9223 58.3186 57.9223L59.4202 61.5175C59.4202 61.5175 68.408 62.1555 73.2207 54.0375C78.0334 45.9197 71.8527 38.0434 71.8527 38.0434Z" fill="#D1000C"/>
<path d="M49.2492 56.0513L49.7948 56.6988L48.1712 57.5686L55.7093 60.12L53.1579 52.8139L52.23 54.0317C52.23 54.0317 47.3525 45.4488 52.23 40.2312C57.074 35.0496 62.7833 36.1721 62.7833 36.1721L61.6815 32.5769C61.6815 32.5769 52.6937 31.939 47.881 40.057C43.0685 48.175 49.2492 56.0513 49.2492 56.0513Z" fill="#D1000C"/>
<g opacity="0.8">
<path d="M71.8527 38.0434L71.3072 37.3959L72.9308 36.5261L65.3926 33.9747L67.944 41.2808L68.8719 40.063C68.8719 40.063 73.7494 48.6459 68.8719 53.8635C64.028 59.0451 58.3186 57.9223 58.3186 57.9223L59.4202 61.5175C59.4202 61.5175 68.408 62.1555 73.2207 54.0375C78.0334 45.9197 71.8527 38.0434 71.8527 38.0434Z" fill="white"/>
</g>
<g opacity="0.8">
<path d="M49.2492 56.0513L49.7948 56.6988L48.1712 57.5686L55.7093 60.12L53.1579 52.8139L52.23 54.0317C52.23 54.0317 47.3525 45.4488 52.23 40.2312C57.074 35.0496 62.7833 36.1721 62.7833 36.1721L61.6815 32.5769C61.6815 32.5769 52.6937 31.939 47.881 40.057C43.0685 48.175 49.2492 56.0513 49.2492 56.0513Z" fill="white"/>
</g>
<path fill-rule="evenodd" clip-rule="evenodd" d="M64.8498 42.7855C65.2113 43.1719 65.5146 43.6008 65.7563 44.058L67.2047 44.0525L67.743 46.3879L66.4384 47.0172C66.4216 47.5342 66.3366 48.0526 66.1806 48.5585L67.2086 49.5785L65.9375 51.6103L64.5705 51.133C64.1841 51.4949 63.7552 51.798 63.2977 52.0395L63.3033 53.4881L60.9681 54.0264L60.3385 52.7218C59.8216 52.705 59.3034 52.6198 58.7975 52.4635L57.7777 53.4915L55.7454 52.2207L56.223 50.8536C55.8611 50.4672 55.5582 50.0383 55.3165 49.5809L53.8677 49.5864L53.3293 47.251L54.6345 46.6217C54.6513 46.1047 54.7365 45.5866 54.8922 45.0807L53.8645 44.0607L55.1353 42.0286L56.5021 42.5062C56.8885 42.1443 57.3177 41.8411 57.7749 41.5997L57.7693 40.1511L60.1045 39.6127L60.7338 40.9176C61.2508 40.9344 61.769 41.0194 62.2751 41.1756L63.2949 40.1477L65.327 41.4183L64.8498 42.7855ZM61.9917 44.6976C60.7878 43.9447 59.2014 44.3103 58.4485 45.5143C57.6957 46.7182 58.0614 48.3046 59.2653 49.0575C60.4693 49.8103 62.0555 49.4446 62.8084 48.2407C63.5613 47.0367 63.1958 45.4505 61.9917 44.6976Z" fill="#D1000C"/>
<g opacity="0.6">
<path fill-rule="evenodd" clip-rule="evenodd" d="M61.9914 44.6976C60.7875 43.9447 59.2011 44.3103 58.4482 45.5143C57.6953 46.7182 58.0611 48.3046 59.2649 49.0575C60.469 49.8103 62.0552 49.4446 62.8081 48.2407C63.5609 47.0367 63.1954 45.4505 61.9914 44.6976Z" fill="white"/>
</g>
<path d="M52.7256 70.7501V69.2114H53.0096V70.7385C53.0096 71.3755 53.3088 71.6671 53.8306 71.6671C54.3562 71.6671 54.6555 71.3755 54.6555 70.7385V69.2114H54.9317V70.7501C54.9317 71.5212 54.5172 71.9203 53.8304 71.9203C53.144 71.9205 52.7256 71.5214 52.7256 70.7501Z" fill="#010101"/>
<path d="M57.8888 70.1325C57.8888 70.7042 57.4745 71.0496 56.7915 71.0496H56.0701V71.8975H55.7861V69.2114H56.7915C57.4745 69.2114 57.8888 69.5568 57.8888 70.1325ZM57.6051 70.1325C57.6051 69.7027 57.3209 69.4572 56.7838 69.4572H56.0701V70.8002H56.7838C57.3209 70.8002 57.6051 70.5547 57.6051 70.1325Z" fill="#010101"/>
<path d="M58.501 69.2114H59.5947C60.4542 69.2114 61.0338 69.7641 61.0338 70.5545C61.0338 71.3448 60.4544 71.8973 59.5947 71.8973H58.501V69.2114ZM59.5794 71.652C60.2931 71.652 60.7534 71.1991 60.7534 70.5547C60.7534 69.9101 60.2931 69.4572 59.5794 69.4572H58.7852V71.652H59.5794Z" fill="#010101"/>
<path d="M63.3151 71.1799H61.8188L61.4964 71.8973H61.2012L62.4291 69.2112H62.7092L63.937 71.8973H63.6377L63.3151 71.1799ZM63.2117 70.9497L62.5671 69.5071L61.9224 70.9497H63.2117Z" fill="#010101"/>
<path d="M64.7684 69.4569H63.8242V69.2114H65.996V69.4569H65.0518V71.8975H64.7681V69.4569H64.7684Z" fill="#010101"/>
<path d="M68.3467 71.652V71.8975H66.4473V69.2114H68.2891V69.4569H66.7315V70.4124H68.1204V70.6543H66.7315V71.652H68.3467Z" fill="#010101"/>
<path d="M80.4805 18.6427C80.4807 18.6679 79.508 18.6967 78.3082 18.7066C77.108 18.7164 76.135 18.7042 76.135 18.6787C76.1348 18.6535 77.1073 18.6247 78.3075 18.6149C79.507 18.605 80.4802 18.6175 80.4805 18.6427Z" fill="#010101"/>
<path d="M80.4892 19.7547C80.4895 19.7799 79.5168 19.8084 78.317 19.8185C77.1168 19.8286 76.1438 19.8159 76.1438 19.7907C76.1436 19.7655 77.116 19.7369 78.3163 19.7268C79.516 19.717 80.489 19.7295 80.4892 19.7547Z" fill="#010101"/>
<path d="M80.499 20.8666C80.4992 20.8918 79.5265 20.9203 78.3268 20.9304C77.1265 20.9402 76.1536 20.9278 76.1536 20.9026C76.1533 20.8774 77.1258 20.8488 78.326 20.8387C79.5258 20.8286 80.4988 20.8414 80.499 20.8666Z" fill="#010101"/>
<path d="M40.9556 22.1357C40.9573 22.134 40.9882 22.1321 41.0458 22.1297C41.1171 22.1273 41.1997 22.1246 41.2971 22.1213C41.5342 22.1158 41.8443 22.1083 42.2249 22.0992L42.1993 22.1254C42.1959 21.9197 42.1923 21.695 42.1885 21.4526C42.1897 21.3276 42.1777 21.2098 42.1899 21.0653C42.2149 20.9213 42.3433 20.7941 42.5012 20.7792C42.6507 20.7763 42.7825 20.7696 42.9445 20.777C43.1117 20.7974 43.2538 20.9582 43.2488 21.1354C43.2524 21.449 43.256 21.7769 43.2598 22.1167L43.2169 22.0745C43.5927 22.0706 43.9841 22.0668 44.3873 22.0625L44.3429 22.1078C44.3389 21.6365 44.3345 21.1488 44.33 20.6494C44.329 20.5248 44.3278 20.401 44.3269 20.2778C44.3264 20.1634 44.2568 20.0868 44.1622 20.0014C43.9889 19.8307 43.8183 19.6625 43.6505 19.4969C43.483 19.3315 43.3184 19.169 43.1569 19.0097C43.0762 18.93 42.9965 18.8513 42.9176 18.7733C42.8353 18.6941 42.7707 18.6122 42.6754 18.5926C42.583 18.5676 42.4813 18.5873 42.4069 18.6439C42.3361 18.7039 42.2605 18.7886 42.1889 18.8582C42.0447 19.0037 41.9048 19.145 41.7689 19.2818C41.5047 19.5562 41.2297 19.807 41.0295 20.0438C40.9453 20.1746 40.9767 20.335 40.9707 20.4806C40.9705 20.6256 40.9702 20.7634 40.9697 20.893C40.9683 21.1459 40.9669 21.3674 40.9657 21.5573C40.9637 21.727 40.9623 21.8674 40.9609 21.9821C40.9597 22.0805 40.9577 22.1333 40.9556 22.1357C40.9534 22.1378 40.9508 22.0896 40.9474 21.995C40.9443 21.882 40.9405 21.744 40.9357 21.5767C40.9313 21.3852 40.9263 21.162 40.9205 20.9069C40.9181 20.7746 40.9155 20.6342 40.9129 20.4864C40.9117 20.4115 40.9105 20.3347 40.9093 20.2562C40.9085 20.1732 40.9299 20.0873 40.9738 20.0112C41.1903 19.7458 41.4488 19.511 41.7149 19.2286C41.8496 19.0906 41.9888 18.948 42.1316 18.8016C42.2067 18.7279 42.2681 18.6545 42.3574 18.5777C42.451 18.5057 42.5797 18.48 42.6968 18.511C42.8213 18.5383 42.9025 18.6406 42.9778 18.7121C43.057 18.7896 43.1372 18.8681 43.2181 18.9473C43.3801 19.1059 43.5452 19.2679 43.7132 19.4328C43.8814 19.5979 44.0523 19.7657 44.2258 19.9361C44.2671 19.9795 44.3165 20.0165 44.3566 20.0777C44.3945 20.136 44.4161 20.2051 44.4181 20.275C44.4193 20.3986 44.4202 20.5231 44.4214 20.6482C44.4253 21.1476 44.4289 21.6353 44.4325 22.1066L44.4329 22.1515L44.3881 22.1518C43.9849 22.1544 43.5934 22.1568 43.2176 22.1592L43.1746 22.1594L43.1744 22.1167C43.1727 21.7769 43.171 21.449 43.1693 21.1354C43.1744 20.994 43.0642 20.8692 42.9329 20.8512C42.7983 20.844 42.6394 20.8488 42.5084 20.85C42.3826 20.8603 42.2775 20.9614 42.2559 21.0775C42.2446 21.1951 42.2533 21.3324 42.2509 21.4514C42.2509 21.6938 42.2511 21.9185 42.2511 22.1244V22.1508L42.2254 22.1506C41.8383 22.1479 41.5232 22.1455 41.282 22.1438C41.1865 22.1422 41.1058 22.1407 41.0362 22.1395C40.9815 22.1388 40.9539 22.1374 40.9556 22.1357Z" fill="#010101"/>
<path d="M69.7196 21.187C69.7196 21.2215 66.0625 21.2494 61.5521 21.2494C57.0404 21.2494 53.384 21.2213 53.384 21.187C53.384 21.1527 57.0404 21.1246 61.5521 21.1246C66.0625 21.1243 69.7196 21.1524 69.7196 21.187Z" fill="#010101"/>
<path d="M69.2961 97.0392H52.1467C49.9564 97.0392 48.1809 95.2637 48.1809 93.0734C48.1809 90.8832 49.9564 89.1074 52.1467 89.1074H69.2961C71.4863 89.1074 73.2619 90.8829 73.2619 93.0734C73.2621 95.2637 71.4866 97.0392 69.2961 97.0392Z" fill="#D1000C"/>
<path d="M57.4492 93.6535L57.5925 93.336C57.7463 93.448 57.9753 93.526 58.1939 93.526C58.444 93.526 58.5455 93.4428 58.5455 93.3307C58.5455 92.9896 57.4859 93.2239 57.4859 92.5468C57.4859 92.237 57.7358 91.9792 58.2539 91.9792C58.4829 91.9792 58.7174 92.034 58.8866 92.1408L58.7565 92.4609C58.5873 92.3647 58.4128 92.3176 58.2515 92.3176C58.0015 92.3176 57.9052 92.4115 57.9052 92.526C57.9052 92.8617 58.9651 92.6301 58.9651 93.2995C58.9651 93.6038 58.7123 93.8642 58.1915 93.8642C57.9021 93.8644 57.6107 93.7788 57.4492 93.6535Z" fill="white"/>
<path d="M60.1276 93.7655C60.0441 93.8255 59.9219 93.8541 59.7969 93.8541C59.4662 93.8541 59.2734 93.6849 59.2734 93.3515V92.776H59.0574V92.4633H59.2734V92.1223H59.6795V92.4633H60.0285V92.776H59.6795V93.3463C59.6795 93.466 59.7446 93.5311 59.854 93.5311C59.914 93.5311 59.9738 93.5131 60.0182 93.479L60.1276 93.7655Z" fill="white"/>
<path d="M61.5952 93.0338V93.8333H61.2151V93.6588C61.1397 93.7862 60.9938 93.8541 60.7881 93.8541C60.46 93.8541 60.2646 93.6717 60.2646 93.4298C60.2646 93.1826 60.4391 93.0105 60.8661 93.0105H61.1891C61.1891 92.8361 61.0847 92.7348 60.8661 92.7348C60.7178 92.7348 60.5642 92.7842 60.4624 92.8649L60.3167 92.5809C60.4706 92.4717 60.6969 92.4117 60.921 92.4117C61.348 92.4115 61.5952 92.6095 61.5952 93.0338ZM61.1891 93.3905V93.2472H60.9105C60.7204 93.2472 60.6607 93.3175 60.6607 93.4113C60.6607 93.5131 60.7463 93.5805 60.8896 93.5805C61.025 93.5805 61.1421 93.5181 61.1891 93.3905Z" fill="white"/>
<path d="M62.8312 92.4115V92.7866C62.7974 92.784 62.7714 92.7816 62.7402 92.7816C62.5161 92.7816 62.3678 92.904 62.3678 93.1721V93.8335H61.9617V92.4326H62.3495V92.6177C62.4484 92.4818 62.615 92.4115 62.8312 92.4115Z" fill="white"/>
<path d="M64.0252 93.7655C63.9417 93.8255 63.8196 93.8541 63.6945 93.8541C63.3638 93.8541 63.1711 93.6849 63.1711 93.3515V92.776H62.9551V92.4633H63.1711V92.1223H63.5772V92.4633H63.9261V92.776H63.5772V93.3463C63.5772 93.466 63.6424 93.5311 63.7516 93.5311C63.8116 93.5311 63.8714 93.5131 63.9158 93.479L64.0252 93.7655Z" fill="white"/>
<path d="M77.0189 78.2223C77.0189 78.2568 69.6456 78.2847 60.5522 78.2847C51.4558 78.2847 44.0842 78.2566 44.0842 78.2223C44.0842 78.1877 51.4558 78.1599 60.5522 78.1599C69.6456 78.1599 77.0189 78.1879 77.0189 78.2223Z" fill="#010101"/>
<path d="M70.4581 80.2411C70.4581 80.2757 66.0226 80.3035 60.5523 80.3035C55.08 80.3035 50.6456 80.2754 50.6456 80.2411C50.6456 80.2066 55.08 80.1787 60.5523 80.1787C66.0224 80.1787 70.4581 80.2066 70.4581 80.2411Z" fill="#010101"/>
<path d="M24.8868 109.978L23.4288 115.369L28.1676 115.802L29.1633 110.67L24.8868 109.978Z" fill="#D1000C"/>
<path d="M28.3051 115.363C28.3036 115.381 28.0382 115.374 27.611 115.339C27.1838 115.305 26.5958 115.24 25.9483 115.157C25.3245 115.073 24.76 114.997 24.292 114.934C23.8687 114.875 23.6068 114.835 23.6085 114.816C23.6102 114.799 23.8754 114.806 24.3024 114.841C24.7293 114.877 25.3173 114.943 25.9651 115.026C26.5888 115.109 27.1531 115.184 27.6213 115.247C28.0449 115.305 28.307 115.344 28.3051 115.363Z" fill="#010101"/>
<g opacity="0.6">
<path d="M23.4288 115.369L28.1676 115.802L28.2441 115.407L23.5656 114.812L23.4336 115.316" fill="white"/>
</g>
<path d="M25.7832 115.13C25.7535 115.122 25.9551 114.198 26.2337 113.064C26.5126 111.93 26.7627 111.018 26.7924 111.025C26.8222 111.033 26.6206 111.957 26.3417 113.091C26.0633 114.224 25.8132 115.137 25.7832 115.13Z" fill="#010101"/>
<path d="M28.0432 115.328C28.0142 115.326 28.1944 114.941 28.054 114.325C27.9818 114.025 27.8243 113.676 27.5354 113.387C27.251 113.096 26.8243 112.893 26.356 112.845C25.8868 112.8 25.4296 112.913 25.0869 113.134C24.7399 113.351 24.5011 113.648 24.3489 113.918C24.0475 114.471 24.0767 114.886 24.0496 114.879C24.0458 114.879 24.0434 114.855 24.0427 114.808C24.0403 114.761 24.0443 114.692 24.0537 114.603C24.0736 114.425 24.1334 114.168 24.2793 113.881C24.4276 113.597 24.6693 113.281 25.0317 113.047C25.3903 112.81 25.8731 112.687 26.3668 112.735C26.8598 112.785 27.3105 113.003 27.6081 113.315C27.9093 113.625 28.0653 113.994 28.1306 114.309C28.193 114.626 28.1711 114.891 28.1323 115.065C28.1119 115.153 28.0927 115.219 28.0739 115.263C28.0574 115.307 28.0468 115.329 28.0432 115.328Z" fill="#010101"/>
<path d="M44.4532 108.532L44.136 113.321C44.136 113.321 48.9033 114.903 48.9307 115.794L39.6163 115.862L39.8044 108.378L44.4532 108.532Z" fill="#D1000C"/>
<g opacity="0.6">
<path d="M41.2696 112.831C41.0879 112.875 40.9574 113.074 40.9936 113.257C41.0299 113.44 41.231 113.575 41.4134 113.534C41.5958 113.494 41.7599 113.26 41.7033 113.082C41.6467 112.904 41.4021 112.758 41.2348 112.842" fill="white"/>
</g>
<g opacity="0.6">
<path d="M39.6165 115.862L39.6355 115.107L48.6316 115.356C48.6316 115.356 48.9309 115.485 48.9782 115.862H39.6165Z" fill="white"/>
</g>
<path d="M44.2887 113.279C44.2858 113.324 44.0578 113.338 43.8298 113.477C43.598 113.611 43.4768 113.804 43.4355 113.785C43.3938 113.775 43.4699 113.505 43.749 113.341C44.0267 113.175 44.2998 113.237 44.2887 113.279Z" fill="#010101"/>
<path d="M45.2529 113.712C45.262 113.756 45.0628 113.828 44.9025 114.015C44.7369 114.198 44.6915 114.405 44.6464 114.402C44.6035 114.407 44.5799 114.14 44.7837 113.911C44.9853 113.68 45.2534 113.669 45.2529 113.712Z" fill="#010101"/>
<path d="M45.7722 114.897C45.7307 114.906 45.6743 114.677 45.7984 114.431C45.9208 114.185 46.1382 114.093 46.1562 114.132C46.1807 114.17 46.0386 114.299 45.9398 114.502C45.8363 114.703 45.8174 114.894 45.7722 114.897Z" fill="#010101"/>
<path d="M44.2399 112.179C44.2195 112.22 44.0129 112.151 43.7554 112.16C43.4979 112.165 43.2953 112.245 43.2727 112.205C43.2473 112.172 43.4477 112.009 43.7511 112.002C44.0544 111.993 44.2632 112.144 44.2399 112.179Z" fill="#010101"/>
<path d="M44.286 111.211C44.286 111.23 44.1055 111.253 43.8199 111.195C43.6778 111.166 43.5108 111.114 43.3368 111.03C43.2497 110.988 43.1611 110.939 43.0733 110.88C43.0313 110.851 42.9811 110.822 42.9358 110.766C42.8868 110.717 42.8618 110.596 42.9223 110.524C42.9722 110.454 43.0574 110.425 43.1246 110.426C43.1933 110.426 43.2485 110.441 43.2989 110.455C43.4018 110.484 43.4978 110.521 43.5857 110.564C43.7611 110.65 43.9025 110.757 44.0071 110.859C44.2171 111.066 44.2855 111.237 44.2699 111.246C44.2488 111.26 44.148 111.115 43.9332 110.943C43.8262 110.857 43.6886 110.768 43.5245 110.696C43.4422 110.66 43.3534 110.629 43.2593 110.605C43.1614 110.576 43.0776 110.573 43.051 110.616C43.0414 110.633 43.0399 110.639 43.0596 110.669C43.08 110.696 43.1194 110.723 43.1606 110.752C43.2413 110.808 43.3229 110.857 43.4028 110.9C43.5629 110.986 43.7165 111.046 43.8482 111.087C44.1125 111.169 44.2874 111.187 44.286 111.211Z" fill="#010101"/>
<path d="M44.2248 111.275C44.2085 111.281 44.1233 111.116 44.1156 110.821C44.1123 110.675 44.1327 110.498 44.1946 110.312C44.226 110.219 44.2678 110.125 44.322 110.033C44.3794 109.942 44.4497 109.821 44.6266 109.806C44.7188 109.805 44.7932 109.88 44.8174 109.942C44.8462 110.006 44.8508 110.06 44.8601 110.114C44.874 110.224 44.8688 110.33 44.851 110.428C44.8157 110.626 44.7296 110.788 44.6374 110.904C44.448 111.14 44.2568 111.188 44.2534 111.173C44.239 111.149 44.4 111.066 44.5462 110.839C44.6182 110.727 44.684 110.578 44.707 110.405C44.7188 110.319 44.7202 110.228 44.7065 110.136C44.695 110.036 44.6602 109.955 44.623 109.964C44.5767 109.962 44.4958 110.034 44.4552 110.112C44.4048 110.194 44.3643 110.278 44.3321 110.361C44.2688 110.528 44.2383 110.688 44.2277 110.824C44.2064 111.097 44.2498 111.269 44.2248 111.275Z" fill="#010101"/>
<path d="M44.4535 66.9197L30.2613 66.8129L23.4033 111.856L29.2934 112.603L36.8421 75.5674L39.1012 112.735L39.1072 112.846L45.4771 112.734L44.4535 66.9197Z" fill="#010101"/>
<path d="M37.9985 70.5698C37.9939 70.5655 38.0961 70.5592 38.2917 70.5508C38.5044 70.5429 38.7902 70.5326 39.1454 70.5194C39.906 70.4978 40.961 70.468 42.2126 70.4325L42.2709 70.4308L42.2712 70.4899C42.2733 71.3798 42.2757 72.3753 42.2784 73.4318V73.4601L42.2575 73.4796C42.0871 73.636 41.9061 73.8026 41.7233 73.9708C41.1768 74.4717 40.6483 74.956 40.1486 75.414L40.1069 75.4521L40.0649 75.4147C39.2844 74.7192 38.5723 74.0844 37.9653 73.5434L37.9481 73.528L37.9483 73.5057C37.9593 72.611 37.9682 71.8761 37.9749 71.3472C37.9802 71.1067 37.9845 70.9132 37.9877 70.7656C37.9913 70.6336 37.9949 70.5662 37.9985 70.5698C38.0021 70.5734 38.0057 70.6478 38.0095 70.7851C38.0126 70.9356 38.0169 71.1326 38.0222 71.3779C38.0287 71.8994 38.0378 72.6237 38.0489 73.5057L38.0318 73.468C38.6433 74.0037 39.3609 74.6323 40.1474 75.3211L40.0637 75.3218C40.5624 74.8627 41.0899 74.3769 41.6352 73.8751C41.8183 73.7071 41.9995 73.5408 42.1699 73.3843L42.149 73.4318C42.1517 72.3753 42.1541 71.38 42.1562 70.4899L42.2148 70.5472C40.9776 70.5588 39.9348 70.5688 39.1831 70.5758C38.8224 70.5763 38.532 70.5768 38.316 70.577C38.2233 70.576 38.1468 70.5753 38.0829 70.5746C38.0294 70.5736 38.0006 70.572 37.9985 70.5698Z" fill="#828282"/>
<path d="M31.3193 70.3747C31.3155 70.3699 31.4065 70.3749 31.5812 70.3881C31.7729 70.4037 32.0283 70.4246 32.3449 70.4505C33.0286 70.5125 33.9757 70.5984 35.1049 70.7006L35.162 70.7059L35.155 70.7637C35.0511 71.6342 34.9325 72.6264 34.8061 73.6848L34.8029 73.7109L34.7823 73.7275C34.5869 73.8835 34.3801 74.0486 34.1705 74.2159C33.6483 74.6316 33.1421 75.0343 32.6612 75.4171L32.6117 75.4565L32.5729 75.4073C31.9633 74.6364 31.4038 73.9293 30.9229 73.3212L30.9092 73.3039L30.9121 73.2828C31.0313 72.3996 31.1295 71.6714 31.2005 71.1456C31.2351 70.9075 31.2629 70.7155 31.2843 70.5686C31.3042 70.4376 31.3162 70.3706 31.3193 70.3747C31.3227 70.3788 31.3172 70.4537 31.3042 70.5909C31.2891 70.7417 31.2694 70.9385 31.2449 71.1825C31.1881 71.7024 31.1093 72.4221 31.0138 73.295L31.003 73.2569C31.4893 73.8609 32.0547 74.5632 32.671 75.3288L32.5829 75.3189C33.0632 74.9349 33.5684 74.531 34.0897 74.1144C34.2994 73.9473 34.5065 73.7822 34.7019 73.6265L34.6781 73.6692C34.8104 72.6115 34.9347 71.6201 35.0434 70.7501L35.0938 70.8129C33.9814 70.6889 33.0485 70.5847 32.3749 70.5096C32.0542 70.4709 31.796 70.44 31.6018 70.4167C31.4216 70.3937 31.3232 70.3795 31.3193 70.3747Z" fill="#828282"/>
<path d="M40.0019 77.2116C39.9926 77.2277 39.7492 77.1031 39.3585 76.8989C38.9678 76.6946 38.4283 76.4129 37.8271 76.1126C37.2254 75.8126 36.6758 75.5513 36.2774 75.3619C35.8792 75.1725 35.6335 75.053 35.6407 75.036C35.6474 75.0201 35.9059 75.1097 36.3146 75.2779C36.7233 75.4461 37.2811 75.6953 37.8849 75.9962C38.4883 76.2974 39.023 76.5931 39.4031 76.8185C39.7835 77.0438 40.0108 77.1965 40.0019 77.2116Z" fill="#828282"/>
<path d="M39.8193 78.3053C39.814 78.3194 39.622 78.2669 39.3352 78.1231C39.0489 77.9803 38.6733 77.735 38.3229 77.3909C37.9732 77.0455 37.7222 76.6737 37.5753 76.3896C37.4272 76.1049 37.3718 75.9139 37.3859 75.9084C37.4234 75.888 37.725 76.6279 38.4143 77.2982C39.0945 77.9769 39.839 78.2673 39.8193 78.3053Z" fill="#828282"/>
<path d="M43.8259 91.3205C43.8333 91.3229 43.8146 91.4078 43.7616 91.5556C43.709 91.7035 43.6147 91.912 43.4657 92.1516C43.1736 92.6284 42.6129 93.2251 41.8094 93.5652C41.0049 93.9038 40.1863 93.8889 39.6408 93.7656C39.3653 93.7053 39.15 93.6273 39.0074 93.5618C38.8644 93.4965 38.7907 93.4507 38.7941 93.4437C38.8037 93.4202 39.1147 93.5803 39.6581 93.6753C40.1952 93.773 40.9845 93.7713 41.7588 93.4454C42.5323 93.118 43.0841 92.5538 43.3889 92.1009C43.6999 91.6454 43.8024 91.3109 43.8259 91.3205Z" fill="#828282"/>
<path d="M42.8925 90.9367C42.8989 90.9502 42.7002 91.0634 42.3501 91.176C42.0013 91.2902 41.4983 91.3891 40.9384 91.409C40.3785 91.4328 39.8728 91.3802 39.5121 91.3253C39.1511 91.2677 38.9327 91.2079 38.9356 91.1921C38.9418 91.1477 39.831 91.3202 40.9331 91.2792C41.4829 91.2595 41.9759 91.1774 42.3246 91.0877C42.6745 90.9996 42.8843 90.9173 42.8925 90.9367Z" fill="#828282"/>
<path d="M32.3409 91.2045C32.3507 91.2151 32.177 91.403 31.8472 91.6516C31.5186 91.9005 31.025 92.1979 30.4329 92.4192C29.8401 92.639 29.272 92.7369 28.8609 92.7636C28.4488 92.7912 28.1944 92.7626 28.1951 92.7482C28.1954 92.7268 28.4488 92.7225 28.852 92.6721C29.255 92.6227 29.8074 92.5125 30.3878 92.2972C30.9674 92.0803 31.4572 91.8024 31.7944 91.5763C32.1323 91.3512 32.327 91.1884 32.3409 91.2045Z" fill="#828282"/>
<path d="M31.0972 91.1498C31.1052 91.1812 30.5232 91.3168 29.7957 91.2566C29.0678 91.2009 28.5148 90.9748 28.5276 90.9448C28.5391 90.9072 29.0971 91.073 29.806 91.127C30.5145 91.1863 31.0917 91.1109 31.0972 91.1498Z" fill="#828282"/>
<path d="M36.758 75.8781C36.7642 75.8925 36.5261 76.0164 36.1198 76.1671C35.714 76.3183 35.1365 76.4868 34.4825 76.5921C33.8281 76.6963 33.2266 76.7164 32.7941 76.6996C32.3609 76.6833 32.0962 76.6399 32.0977 76.6243C32.0993 76.6041 32.3657 76.6149 32.7949 76.6077C33.224 76.601 33.8161 76.5667 34.4621 76.464C35.1075 76.36 35.6809 76.2076 36.0905 76.0802C36.5002 75.9528 36.7501 75.8594 36.758 75.8781Z" fill="#828282"/>
<path d="M36.37 74.424C36.4058 74.4237 36.4365 74.5351 36.4384 74.6726C36.4403 74.8101 36.4127 74.9222 36.3767 74.9229C36.341 74.9236 36.3102 74.8123 36.3086 74.6743C36.3066 74.5363 36.3342 74.4242 36.37 74.424Z" fill="#828282"/>
<path d="M36.3712 73.426C36.4069 73.4265 36.4355 73.5384 36.4346 73.6759C36.4338 73.8134 36.4041 73.925 36.3681 73.925C36.3323 73.925 36.3038 73.8132 36.3047 73.6752C36.3057 73.5372 36.3354 73.4255 36.3712 73.426Z" fill="#828282"/>
<path d="M36.3919 72.4284C36.4277 72.4296 36.4541 72.5419 36.4505 72.6794C36.4469 72.8169 36.415 72.9278 36.3792 72.9271C36.3434 72.9264 36.317 72.814 36.3206 72.676C36.3242 72.5383 36.3562 72.4274 36.3919 72.4284Z" fill="#828282"/>
<path d="M36.4317 71.4314C36.4674 71.4333 36.4914 71.5461 36.4854 71.6837C36.4792 71.8212 36.4451 71.9313 36.4094 71.9299C36.3736 71.9285 36.3496 71.8157 36.3556 71.6777C36.3616 71.5399 36.3957 71.4295 36.4317 71.4314Z" fill="#828282"/>
<path d="M36.4907 70.4352C36.5265 70.4376 36.5483 70.5511 36.5397 70.6884C36.5308 70.8256 36.4945 70.9353 36.4588 70.9332C36.423 70.931 36.4012 70.8177 36.4101 70.68C36.4187 70.5424 36.4549 70.4328 36.4907 70.4352Z" fill="#828282"/>
<path d="M36.5694 69.4406C36.6052 69.4437 36.6249 69.5575 36.6134 69.6945C36.6018 69.8316 36.5634 69.9405 36.5277 69.9377C36.4919 69.9348 36.4722 69.8213 36.4838 69.6837C36.4955 69.5462 36.5337 69.4375 36.5694 69.4406Z" fill="#828282"/>
<path d="M36.6483 68.6258C36.6841 68.6296 36.7057 68.7038 36.6968 68.7914C36.6879 68.879 36.6517 68.9474 36.6159 68.9438C36.5801 68.9404 36.5585 68.8663 36.5674 68.7782C36.5765 68.6904 36.6128 68.6222 36.6483 68.6258Z" fill="#828282"/>
<path d="M28.625 111.615C28.6603 111.622 28.6668 111.738 28.6399 111.873C28.6128 112.008 28.5624 112.111 28.5273 112.105C28.4923 112.098 28.4856 111.982 28.5127 111.847C28.5396 111.712 28.59 111.608 28.625 111.615Z" fill="#828282"/>
<path d="M28.8209 110.637C28.8559 110.644 28.8626 110.759 28.8355 110.894C28.8084 111.03 28.758 111.133 28.723 111.126C28.6877 111.119 28.6812 111.004 28.7081 110.869C28.7352 110.734 28.7856 110.63 28.8209 110.637Z" fill="#828282"/>
<path d="M29.0164 109.659C29.0517 109.666 29.0582 109.781 29.0313 109.916C29.0042 110.051 28.9538 110.155 28.9188 110.148C28.8837 110.141 28.877 110.026 28.9041 109.89C28.931 109.755 28.9814 109.652 29.0164 109.659Z" fill="#828282"/>
<path d="M29.212 108.68C29.247 108.687 29.2537 108.803 29.2269 108.938C29.1997 109.073 29.1493 109.177 29.1143 109.17C29.0793 109.163 29.0726 109.047 29.0994 108.912C29.1263 108.777 29.1767 108.673 29.212 108.68Z" fill="#828282"/>
<path d="M29.4082 107.702C29.4435 107.709 29.45 107.824 29.4231 107.959C29.396 108.094 29.3456 108.198 29.3106 108.191C29.2755 108.184 29.2688 108.069 29.2959 107.934C29.3228 107.799 29.3732 107.695 29.4082 107.702Z" fill="#828282"/>
<path d="M29.6037 106.724C29.639 106.731 29.6455 106.846 29.6186 106.981C29.5917 107.116 29.5411 107.22 29.506 107.213C29.4708 107.206 29.4643 107.091 29.4912 106.956C29.518 106.82 29.5684 106.716 29.6037 106.724Z" fill="#828282"/>
<path d="M29.7998 105.745C29.8351 105.752 29.8416 105.867 29.8147 106.002C29.7876 106.138 29.7372 106.241 29.7022 106.234C29.6671 106.227 29.6604 106.112 29.6875 105.977C29.7144 105.842 29.7648 105.738 29.7998 105.745Z" fill="#828282"/>
<path d="M29.9952 104.767C30.0305 104.774 30.037 104.889 30.0101 105.024C29.983 105.159 29.9326 105.263 29.8975 105.256C29.8622 105.249 29.8558 105.134 29.8826 104.999C29.9095 104.864 29.9599 104.76 29.9952 104.767Z" fill="#828282"/>
<path d="M30.1905 103.788C30.2255 103.795 30.2322 103.911 30.2053 104.046C30.1782 104.181 30.1278 104.285 30.0928 104.278C30.0577 104.271 30.051 104.155 30.0781 104.02C30.105 103.885 30.1554 103.782 30.1905 103.788Z" fill="#828282"/>
<path d="M30.3866 102.81C30.4219 102.817 30.4284 102.932 30.4015 103.068C30.3744 103.203 30.324 103.306 30.289 103.299C30.2537 103.292 30.2472 103.177 30.2743 103.042C30.301 102.907 30.3514 102.803 30.3866 102.81Z" fill="#828282"/>
<path d="M30.5822 101.832C30.6175 101.839 30.624 101.954 30.5971 102.089C30.57 102.224 30.5196 102.328 30.4846 102.321C30.4495 102.314 30.4428 102.199 30.4699 102.064C30.4968 101.928 30.5472 101.825 30.5822 101.832Z" fill="#828282"/>
<path d="M30.7785 100.854C30.8137 100.86 30.8202 100.976 30.7933 101.111C30.7662 101.246 30.7158 101.35 30.6808 101.343C30.6455 101.336 30.639 101.22 30.6659 101.085C30.6928 100.95 30.7432 100.846 30.7785 100.854Z" fill="#828282"/>
<path d="M30.9737 99.875C31.0089 99.882 31.0154 99.9972 30.9883 100.132C30.9612 100.267 30.9108 100.371 30.8757 100.364C30.8407 100.357 30.834 100.242 30.8611 100.107C30.8882 99.9717 30.9386 99.8681 30.9737 99.875Z" fill="#828282"/>
<path d="M31.1692 98.8966C31.2045 98.9035 31.211 99.0187 31.1839 99.1538C31.1567 99.289 31.1063 99.3926 31.0713 99.3857C31.0363 99.3787 31.0295 99.2635 31.0567 99.1284C31.0835 98.9935 31.1339 98.8896 31.1692 98.8966Z" fill="#828282"/>
<path d="M31.3651 97.9183C31.4004 97.9253 31.4068 98.0407 31.38 98.1756C31.3528 98.3107 31.3024 98.4144 31.2674 98.4074C31.2324 98.4005 31.2256 98.2853 31.2528 98.1501C31.2796 98.015 31.33 97.9113 31.3651 97.9183Z" fill="#828282"/>
<path d="M31.5606 96.9398C31.5959 96.9468 31.6023 97.062 31.5755 97.1971C31.5483 97.3322 31.4979 97.4359 31.4629 97.429C31.4279 97.422 31.4211 97.3068 31.4483 97.1717C31.4749 97.0368 31.5253 96.9329 31.5606 96.9398Z" fill="#828282"/>
<path d="M31.7569 95.9616C31.792 95.9685 31.7987 96.0837 31.7718 96.2189C31.7447 96.354 31.6943 96.4577 31.6592 96.4507C31.6242 96.4437 31.6175 96.3285 31.6444 96.1934C31.6715 96.0583 31.7219 95.9546 31.7569 95.9616Z" fill="#828282"/>
<path d="M31.9524 94.9831C31.9876 94.9901 31.9941 95.1053 31.9672 95.2404C31.9401 95.3755 31.8897 95.4792 31.8547 95.4722C31.8196 95.4653 31.8129 95.3501 31.84 95.215C31.8667 95.0801 31.9171 94.9762 31.9524 94.9831Z" fill="#828282"/>
<path d="M32.1477 94.0049C32.1828 94.0119 32.1895 94.1271 32.1624 94.2622C32.1352 94.3973 32.0848 94.5012 32.0498 94.494C32.0148 94.4871 32.008 94.3719 32.0352 94.2367C32.062 94.1016 32.1127 93.9979 32.1477 94.0049Z" fill="#828282"/>
<path d="M32.3438 93.0264C32.3791 93.0334 32.3856 93.1486 32.3587 93.2837C32.3316 93.4188 32.2812 93.5225 32.2462 93.5155C32.2111 93.5086 32.2044 93.3934 32.2315 93.2582C32.2582 93.1234 32.3086 93.0194 32.3438 93.0264Z" fill="#828282"/>
<path d="M32.5391 92.0482C32.5744 92.0551 32.5808 92.1703 32.554 92.3055C32.5268 92.4406 32.4765 92.5445 32.4414 92.5373C32.4064 92.5303 32.3996 92.4151 32.4268 92.28C32.4534 92.1449 32.5041 92.0412 32.5391 92.0482Z" fill="#828282"/>
<path d="M32.7352 91.0697C32.7705 91.0766 32.777 91.1918 32.7501 91.3269C32.723 91.4621 32.6726 91.5657 32.6376 91.5588C32.6025 91.5518 32.5958 91.4366 32.6227 91.3015C32.6496 91.1666 32.7 91.0627 32.7352 91.0697Z" fill="#828282"/>
<path d="M32.9309 90.0915C32.9662 90.0984 32.9726 90.2136 32.9458 90.3487C32.9186 90.4839 32.8682 90.5875 32.8332 90.5806C32.7979 90.5736 32.7914 90.4584 32.8186 90.3233C32.8452 90.1882 32.8958 90.0845 32.9309 90.0915Z" fill="#828282"/>
<path d="M33.127 89.1129C33.1623 89.1199 33.1687 89.2353 33.1419 89.3702C33.1147 89.5053 33.0643 89.609 33.0293 89.6021C32.9943 89.5951 32.9875 89.4799 33.0147 89.3448C33.0413 89.2099 33.0917 89.106 33.127 89.1129Z" fill="#828282"/>
<path d="M33.3227 88.1347C33.3579 88.1417 33.3644 88.2568 33.3373 88.392C33.3102 88.5271 33.2598 88.6308 33.2247 88.6238C33.1895 88.6168 33.183 88.5017 33.2099 88.3665C33.237 88.2314 33.2876 88.1275 33.3227 88.1347Z" fill="#828282"/>
<path d="M33.5186 87.1562C33.5539 87.1632 33.5603 87.2784 33.5335 87.4135C33.5063 87.5486 33.4559 87.6523 33.4209 87.6453C33.3859 87.6384 33.3791 87.5232 33.4063 87.3881C33.4329 87.2532 33.4833 87.1493 33.5186 87.1562Z" fill="#828282"/>
<path d="M33.7133 86.178C33.7483 86.185 33.755 86.3002 33.7279 86.4353C33.7008 86.5704 33.6504 86.6741 33.6154 86.6671C33.5801 86.6602 33.5736 86.545 33.6005 86.4098C33.6276 86.2747 33.6782 86.171 33.7133 86.178Z" fill="#828282"/>
<path d="M33.9093 85.1995C33.9446 85.2064 33.9511 85.3217 33.9242 85.4568C33.8971 85.5919 33.8467 85.6956 33.8116 85.6886C33.7766 85.6817 33.7699 85.5664 33.797 85.4313C33.8239 85.2964 33.8743 85.1925 33.9093 85.1995Z" fill="#828282"/>
<path d="M34.1055 84.2213C34.1405 84.2283 34.1473 84.3435 34.1204 84.4786C34.0933 84.6137 34.0429 84.7176 34.0078 84.7104C33.9728 84.7035 33.9661 84.5883 33.9932 84.4531C34.0198 84.318 34.0705 84.2141 34.1055 84.2213Z" fill="#828282"/>
<path d="M34.301 83.2428C34.3363 83.2498 34.3428 83.365 34.3157 83.5001C34.2886 83.6352 34.2382 83.7391 34.2031 83.7319C34.1681 83.725 34.1614 83.6098 34.1885 83.4747C34.2154 83.3398 34.2658 83.2359 34.301 83.2428Z" fill="#828282"/>
<path d="M34.4971 82.2646C34.5321 82.2715 34.5389 82.3867 34.512 82.5219C34.4849 82.657 34.4345 82.7607 34.3994 82.7537C34.3644 82.7467 34.3577 82.6315 34.3848 82.4964C34.4114 82.3613 34.4621 82.2574 34.4971 82.2646Z" fill="#828282"/>
<path d="M34.6925 81.2861C34.7275 81.2931 34.7342 81.4083 34.7071 81.5434C34.68 81.6785 34.6296 81.7822 34.5945 81.7752C34.5595 81.7683 34.5528 81.6531 34.5799 81.5179C34.6068 81.3828 34.6572 81.2791 34.6925 81.2861Z" fill="#828282"/>
<path d="M34.8881 80.3078C34.9234 80.3148 34.9299 80.43 34.9027 80.5651C34.8759 80.7002 34.8252 80.8039 34.7902 80.797C34.7549 80.79 34.7484 80.6748 34.7755 80.5397C34.8024 80.4046 34.8531 80.3006 34.8881 80.3078Z" fill="#828282"/>
<path d="M35.0839 79.3294C35.1189 79.3363 35.1257 79.4515 35.0988 79.5866C35.0717 79.7218 35.0212 79.8257 34.9862 79.8185C34.9512 79.8115 34.9445 79.6963 34.9716 79.5612C34.9982 79.4263 35.0486 79.3224 35.0839 79.3294Z" fill="#828282"/>
<path d="M35.2795 78.3511C35.3148 78.3581 35.3213 78.4733 35.2944 78.6084C35.2673 78.7435 35.2169 78.8472 35.1818 78.8402C35.1466 78.8333 35.1401 78.7181 35.1672 78.583C35.1938 78.4478 35.2445 78.3439 35.2795 78.3511Z" fill="#828282"/>
<path d="M35.4756 77.3726C35.5107 77.3796 35.5174 77.4948 35.4905 77.6299C35.4634 77.7651 35.413 77.8687 35.3779 77.8618C35.3429 77.8548 35.3362 77.7396 35.3633 77.6045C35.3899 77.4694 35.4403 77.3657 35.4756 77.3726Z" fill="#828282"/>
<path d="M35.6712 76.3944C35.7065 76.4014 35.713 76.5166 35.6859 76.6517C35.6588 76.7868 35.6084 76.8905 35.5733 76.8835C35.538 76.8766 35.5316 76.7614 35.5587 76.6262C35.5856 76.4911 35.636 76.3872 35.6712 76.3944Z" fill="#828282"/>
<path d="M55.2344 46.2226C55.2344 46.2226 56.8949 43.733 56.9391 43.7112C56.9391 43.7112 58.4381 41.1869 58.9364 41.1864C59.4377 41.1859 59.2549 41.6978 58.7403 42.6024C58.2891 43.3951 58.2435 43.8902 58.2435 43.8902L59.4747 44.6338C59.4747 44.6338 60.2969 44.3155 60.3313 45.0821C60.3428 45.3384 60.2751 45.6557 60.1897 46.123C60.1397 46.3958 60.0161 46.687 59.7586 46.5842C59.6405 46.5372 59.5441 46.4462 59.5383 46.2761C59.5225 45.8225 59.6072 45.6562 59.5493 45.6559C59.4754 45.6557 58.6633 48.0348 58.6633 48.0348L55.2344 46.2226Z" fill="#FFBE9D"/>
<path d="M58.5879 44.2682C58.7146 44.1813 58.842 44.094 58.9829 44.0328C59.1236 43.9716 59.28 43.9377 59.4312 43.9632C59.5263 43.979 59.6204 44.0208 59.6809 44.0959C59.7637 44.1989 59.7692 44.3481 59.7281 44.4739C59.6871 44.5997 59.606 44.7077 59.5263 44.813" fill="#FFBE9D"/>
<path d="M58.0254 43.7659C58.1454 43.6841 58.2664 43.6017 58.3998 43.5441C58.5332 43.4865 58.6813 43.4546 58.8246 43.4784C58.9146 43.4933 59.0036 43.5324 59.061 43.6034C59.1395 43.7004 59.1445 43.841 59.1056 43.9593C59.0665 44.0779 58.7984 44.3525 58.7231 44.4518" fill="#FFBE9D"/>
<path d="M55.8126 44.8174L53.4131 49.9493L56.0584 52.6529L57.4369 48.8283C57.4369 48.8283 58.1756 48.9754 58.4768 48.4855C58.8131 47.9386 59.2544 46.3579 59.2544 46.3579L55.8126 44.8174Z" fill="#FFBE9D"/>
<path d="M57.5272 44.6758C57.5012 44.6678 57.5612 44.3242 57.8111 43.9661C57.9383 43.789 58.1 43.6682 58.2224 43.602C58.3456 43.5348 58.4296 43.5125 58.4372 43.5274C58.46 43.5655 58.15 43.7191 57.9157 44.0431C57.6858 44.3695 57.5672 44.6928 57.5272 44.6758Z" fill="#EB996E"/>
<path d="M60.1892 44.6971C60.1784 44.7142 60.0963 44.6695 59.9567 44.6453C59.8196 44.6206 59.6161 44.6242 59.4325 44.7255C59.2491 44.8272 59.1296 44.9947 59.0427 45.1119C58.9568 45.2319 58.9002 45.3075 58.8839 45.2983C58.869 45.2899 58.8959 45.2004 58.9643 45.0639C59.0339 44.9316 59.1493 44.7355 59.3696 44.6115C59.5911 44.4895 59.8316 44.5042 59.9792 44.5563C60.1314 44.6088 60.1986 44.6854 60.1892 44.6971Z" fill="#EB996E"/>
<path d="M59.296 43.9733C59.303 44.0122 58.9996 44.0635 58.7322 44.3047C58.4639 44.5418 58.3322 44.8205 58.2954 44.8022C58.2662 44.7948 58.3478 44.4742 58.6466 44.207C58.7949 44.0765 58.9636 44.0026 59.0884 43.9754C59.2142 43.9478 59.2938 43.9574 59.296 43.9733Z" fill="#EB996E"/>
<path d="M59.8852 45.0819C59.919 45.0687 59.9819 45.2679 59.8559 45.4668C59.7316 45.667 59.525 45.6967 59.5221 45.6607C59.5113 45.6255 59.6514 45.5542 59.746 45.3979C59.8454 45.2448 59.8487 45.0874 59.8852 45.0819Z" fill="#EB996E"/>
<path d="M55.2397 46.1227C55.2397 46.1227 55.1559 44.5913 55.526 44.2445C55.8961 43.8977 56.9569 44.2579 56.9569 44.2579" fill="#FFBE9D"/>
<path d="M57.1069 43.5278C57.135 43.5502 56.8892 43.9409 56.558 44.4007C56.2266 44.8606 55.9338 45.2172 55.9038 45.1975C55.8738 45.1778 56.1195 44.7871 56.4527 44.3246C56.7858 43.8624 57.0788 43.5055 57.1069 43.5278Z" fill="#EB996E"/>
<path d="M35.8636 31.9169L35.8271 43.8679L40.9545 44.1125L41.1028 41.2056C41.1028 41.2056 42.9239 41.5673 43.3939 39.8758C43.6941 38.7953 43.619 30.4459 43.619 30.4459L35.8636 31.9169Z" fill="#FFBE9D"/>
<path d="M44.2927 31.2876C43.4851 31.5187 43.3096 32.8387 43.3096 32.8387L42.0429 35.6366C41.3976 35.1314 40.5312 35.1605 40.367 36.2942C40.2484 37.1136 41.2672 37.2794 41.2672 37.2794C40.6742 38.2886 40.2717 39.1051 39.4082 40.0651C38.4736 41.1041 37.95 41.209 36.9364 41.2258H35.8188C35.8188 41.2258 35.2716 39.4498 34.2585 35.0083C33.1344 30.0809 38.9611 30.7157 40.0413 29.4578C41.8008 27.4094 46.8386 30.5587 44.2927 31.2876Z" fill="#010101"/>
<path d="M34.3653 35.4727C33.4209 34.8384 33.3357 33.0631 33.8865 31.9987C34.4376 30.9343 35.5973 30.2131 36.7956 30.1898C36.9559 30.1867 37.1213 30.1944 37.2708 30.1365C37.4925 30.0509 37.6361 29.8409 37.781 29.6525C38.6251 28.5549 39.4545 27.4766 41.0277 27.4769C41.2833 27.4769 41.5661 27.4769 42.0168 27.7221C42.2412 27.8443 42.5577 28.2585 42.6108 28.5084C42.9065 28.3682 43.2074 28.2264 43.5309 28.1774C43.8545 28.1285 44.2097 28.1851 44.454 28.4025C44.6983 28.6202 44.789 29.0205 44.5992 29.2869C45.1293 29.2533 45.6319 29.6923 45.7154 30.2169C45.7989 30.7416 45.047 31.1105 44.9688 31.1513C44.9688 31.1513 45.3816 32.0153 44.3973 32.5332C44.0011 32.7417 43.4858 32.4905 43.4273 32.4602" fill="#010101"/>
<path d="M38.1084 36.6218C38.1415 36.6185 38.1924 37.033 38.0791 37.5293C37.9687 38.0263 37.7453 38.3791 37.7167 38.3618C37.6824 38.3446 37.8468 37.9786 37.9524 37.5007C38.0616 37.0241 38.07 36.6228 38.1084 36.6218Z" fill="#828282"/>
<path d="M38.7288 36.0355C38.7633 36.037 38.7708 36.4323 38.681 36.9091C38.5927 37.3865 38.4432 37.7525 38.4103 37.7412C38.375 37.7299 38.4667 37.3534 38.5533 36.8854C38.6416 36.4176 38.6918 36.0331 38.7288 36.0355Z" fill="#828282"/>
<path d="M40.5052 34.063C40.5174 34.08 40.3722 34.1858 40.1879 34.4021C40.0019 34.6159 39.7902 34.9502 39.6354 35.3558C39.4801 35.7617 39.3949 36.1502 39.3289 36.4306C39.2646 36.7116 39.2202 36.8858 39.202 36.8825C39.1849 36.8796 39.1972 36.7006 39.2387 36.4135C39.2819 36.1274 39.3539 35.7286 39.5142 35.309C39.6743 34.8893 39.9092 34.5456 40.1204 34.3399C40.3304 34.1309 40.4977 34.0505 40.5052 34.063Z" fill="#828282"/>
<path d="M41.2226 32.7201C41.2377 32.7161 41.29 32.8358 41.3222 33.0434C41.3546 33.2503 41.3556 33.5465 41.2776 33.8594C41.1986 34.1724 41.058 34.433 40.9317 34.6001C40.8055 34.7683 40.7028 34.8489 40.6915 34.8381C40.6593 34.8137 41.0064 34.4277 41.1516 33.8277C41.3066 33.2306 41.1828 32.7266 41.2226 32.7201Z" fill="#828282"/>
<path d="M35.1033 35.7051C35.0858 35.7365 34.9288 35.682 34.7527 35.5836C34.5765 35.4852 34.4479 35.3801 34.4654 35.3487C34.4829 35.3175 34.6399 35.3717 34.816 35.4703C34.9922 35.5685 35.1208 35.6739 35.1033 35.7051Z" fill="#828282"/>
<path d="M37.5803 34.4289C37.6141 34.434 37.593 34.6872 37.4339 34.9488C37.2762 35.2116 37.0619 35.3479 37.0417 35.3203C37.0172 35.2917 37.1785 35.123 37.3225 34.8816C37.4694 34.6418 37.5436 34.4208 37.5803 34.4289Z" fill="#828282"/>
<path d="M38.3421 34.02C38.3753 34.0274 38.3215 34.3308 38.1139 34.6411C37.9085 34.9531 37.6497 35.1204 37.6301 35.0928C37.6058 35.0637 37.8132 34.8624 38.0056 34.5693C38.2008 34.2785 38.3059 34.0089 38.3421 34.02Z" fill="#828282"/>
<path d="M42.1278 29.0148C42.1189 29.0251 42.0316 28.9416 41.8468 28.8365C41.6617 28.7349 41.3665 28.6238 40.9878 28.6145C40.6127 28.6027 40.1521 28.692 39.7273 28.9531C39.3025 29.2137 38.9267 29.6383 38.6538 30.1488C38.4551 30.5198 38.3176 30.9062 38.2182 31.2694L38.1976 31.3445L38.1287 31.3082C37.7481 31.1083 37.3449 31.0205 36.9849 31.0157C36.6234 31.0058 36.3054 31.0721 36.0537 31.1563C35.547 31.3293 35.3065 31.5571 35.2933 31.5367C35.2895 31.5321 35.3464 31.475 35.4649 31.3848C35.5842 31.2962 35.7712 31.181 36.0275 31.0829C36.2831 30.9857 36.6102 30.9072 36.9863 30.9094C37.3607 30.9065 37.7843 30.9912 38.1875 31.1986L38.0982 31.2374C38.1961 30.8662 38.3349 30.4697 38.5398 30.0871C38.8213 29.5605 39.2152 29.1189 39.6659 28.8504C40.1176 28.5811 40.6009 28.4983 40.9921 28.5223C41.3872 28.5442 41.6905 28.6745 41.8732 28.7928C41.9632 28.8557 42.0309 28.9066 42.0702 28.949C42.111 28.9894 42.1309 29.0117 42.1278 29.0148Z" fill="#828282"/>
<path d="M44.8241 29.6652C44.815 29.6628 44.9667 29.6268 45.1183 29.7984C45.1875 29.8809 45.2513 30.0115 45.2364 30.1728C45.2208 30.3336 45.1097 30.4994 44.9383 30.5985C44.7696 30.702 44.5387 30.7363 44.3155 30.6842C44.0909 30.6353 43.8751 30.5162 43.6728 30.3727C43.4691 30.2301 43.2732 30.0645 43.0443 29.9419C42.8158 29.8178 42.5585 29.7273 42.2868 29.6757C41.7411 29.574 41.1989 29.6354 40.741 29.7816C40.2804 29.9292 39.8981 30.1509 39.5983 30.3624C38.9998 30.7927 38.7043 31.1529 38.6861 31.1342C38.6801 31.1289 38.7485 31.0361 38.8889 30.8815C39.0305 30.7289 39.2446 30.5136 39.5441 30.288C39.8427 30.0631 40.2298 29.8267 40.7038 29.6676C41.1763 29.5097 41.7396 29.4415 42.3108 29.5478C42.5952 29.6018 42.8654 29.6978 43.1054 29.8301C43.3478 29.9623 43.5458 30.1341 43.7422 30.2748C43.937 30.4173 44.1365 30.5301 44.3393 30.5789C44.5411 30.63 44.7401 30.6043 44.8925 30.5184C45.0456 30.4363 45.145 30.2964 45.1642 30.1634C45.1836 30.0283 45.1351 29.9076 45.0785 29.8293C44.9566 29.6666 44.8174 29.6796 44.8241 29.6652Z" fill="#828282"/>
<path d="M30.4041 45.1195L25.8249 52.8098C25.3125 53.7067 24.8383 54.6633 24.3859 55.6545C24.0208 56.6042 24.2318 57.8438 24.8692 58.632L24.7399 58.4457C25.2477 59.0738 26.0121 59.4389 26.8199 59.4389H26.9383C28.0029 59.4389 28.966 58.8077 29.3908 57.8313L30.862 55.5989L30.4041 45.1195Z" fill="#D1000C"/>
<path d="M44.2211 43.6502C42.9919 43.0224 41.7782 42.8805 40.4539 42.8419C38.9119 42.797 36.7379 42.5813 35.0762 42.7579C35.0762 42.7579 30.3415 43.1083 30.0127 46.3531L30.6592 61.5931L29.5751 68.0503L44.7489 68.5087L44.6402 60.8909C44.8276 56.9273 44.4275 51.3149 44.4275 51.3149C44.6611 49.1841 45.827 48.2249 45.9926 46.8393C46.1387 45.6144 45.3199 44.2113 44.2211 43.6502Z" fill="#D1000C"/>
<path d="M39.9442 61.8122C39.9492 61.818 39.8729 61.8967 39.7209 62.0237C39.5693 62.1509 39.337 62.3208 39.0293 62.4979C38.4194 62.8538 37.4698 63.2107 36.3768 63.2299C35.2836 63.2493 34.3217 62.9261 33.6996 62.592C33.3859 62.4257 33.1476 62.2644 32.9916 62.1425C32.8351 62.021 32.7561 61.9452 32.7609 61.9392C32.7761 61.9183 33.1118 62.2029 33.7409 62.5099C34.3639 62.8178 35.3073 63.1188 36.3744 63.0998C37.4409 63.0809 38.3731 62.747 38.9849 62.4173C39.6026 62.088 39.9286 61.7918 39.9442 61.8122Z" fill="#010101"/>
<path d="M29.9894 46.5273C29.9939 46.5271 29.9997 46.5782 30.0071 46.6757C30.0138 46.787 30.0222 46.9281 30.0328 47.1014C30.0508 47.4888 30.0755 48.0197 30.1058 48.6684C30.1617 50.0071 30.238 51.8273 30.3222 53.8385C30.4134 55.8497 30.4958 57.6696 30.5565 59.0081C30.5896 59.6563 30.6165 60.1872 30.6362 60.5743C30.6436 60.7478 30.6496 60.8889 30.6544 61.0005C30.657 61.098 30.6563 61.1496 30.652 61.1498C30.6474 61.1503 30.6395 61.0994 30.6285 61.0025C30.6174 60.8913 30.6033 60.7507 30.586 60.5779C30.5505 60.209 30.5111 59.6745 30.465 59.0136C30.375 57.6917 30.2781 55.8641 30.1929 53.844C30.1074 51.8249 30.0484 49.9958 30.0146 48.6717C30.0014 48.0225 29.9908 47.4909 29.9829 47.1033C29.9824 46.9296 29.9819 46.7882 29.9814 46.6766C29.9819 46.5789 29.9848 46.5276 29.9894 46.5273Z" fill="#010101"/>
<path d="M29.0395 47.3342C29.0433 47.3364 29.0253 47.3772 28.9871 47.4528C28.9408 47.5408 28.8842 47.6493 28.8151 47.7808C28.6619 48.0636 28.4342 48.4696 28.1421 48.965C27.5661 49.9605 26.6999 51.2937 25.8247 52.8096C25.3874 53.5668 25.0163 54.3163 24.695 55.001C24.3763 55.685 24.2119 56.356 24.2539 56.9241C24.286 57.4917 24.4545 57.9328 24.6052 58.211C24.7555 58.4925 24.8798 58.6231 24.869 58.6317C24.8656 58.6346 24.8342 58.6032 24.7771 58.5398C24.7219 58.475 24.6441 58.3756 24.5613 58.236C24.394 57.9602 24.2073 57.5133 24.1622 56.9301C24.1065 56.346 24.2687 55.6464 24.5858 54.9523C24.9038 54.2589 25.2719 53.5072 25.7121 52.7452C26.591 51.2234 27.4682 49.9 28.0639 48.9177C28.355 48.4396 28.5943 48.0468 28.7716 47.7556C28.8491 47.6289 28.9127 47.5248 28.9646 47.4398C29.0099 47.3685 29.0356 47.332 29.0395 47.3342Z" fill="#010101"/>
<path d="M56.951 51.5179L53.4398 49.2214L51.2239 53.0602C51.2239 53.0602 48.1514 48.7898 46.7558 46.2878C45.4714 43.985 43.8096 43.3649 43.0078 43.1981C42.7709 43.1486 42.5561 43.3459 42.5822 43.5864L43.7933 51.8899C43.9457 52.3222 46.4801 55.9963 47.8966 57.845C50.2603 60.9307 53.743 58.956 54.6994 56.7962C55.4585 55.0824 56.64 52.4782 56.951 51.5179Z" fill="#D1000C"/>
<path d="M52.233 56.525C52.2145 56.5257 52.1934 56.3155 52.1658 55.9771C52.1365 55.6392 52.102 55.1714 51.9964 54.6693C51.891 54.1673 51.7153 53.7343 51.5481 53.4439C51.3829 53.1516 51.243 52.9934 51.2589 52.9793C51.2687 52.9687 51.4355 53.1069 51.6265 53.3961C51.8193 53.6827 52.0156 54.1269 52.1236 54.6422C52.2318 55.157 52.252 55.632 52.2577 55.9725C52.2616 56.3138 52.2503 56.5243 52.233 56.525Z" fill="#010101"/>
<path d="M53.2603 54.8093C53.2397 54.811 53.2229 54.6312 53.1355 54.3598C53.0482 54.0905 52.8744 53.7286 52.5739 53.4182C52.278 53.1041 51.9185 52.913 51.6403 52.9075C51.36 52.8931 51.2045 53.0054 51.1951 52.986C51.1819 52.9786 51.3293 52.8264 51.6413 52.8158C51.9531 52.7971 52.3579 52.9978 52.6675 53.3285C52.9863 53.6578 53.1562 54.0485 53.2239 54.335C53.2918 54.6245 53.2752 54.8093 53.2603 54.8093Z" fill="#010101"/>
<path d="M42.7787 44.2236C42.7816 44.227 42.7523 44.2606 42.6945 44.321C42.6621 44.3542 42.6266 44.3906 42.5865 44.4314C42.5457 44.4804 42.501 44.5344 42.4521 44.5934C42.2572 44.8402 42.0011 45.2302 41.8442 45.7738C41.6769 46.3114 41.6106 46.9954 41.711 47.7341C41.7623 48.103 41.8528 48.4865 42.0126 48.857C42.1679 49.2322 42.3736 49.6039 42.5802 49.9843C43.4399 51.4934 44.3248 52.7998 44.9646 53.742C45.2817 54.1978 45.5423 54.5724 45.7355 54.8501C45.9189 55.1107 46.0223 55.2538 46.0144 55.26C46.0108 55.2626 45.9806 55.2305 45.9261 55.1664C45.8716 55.1023 45.7924 55.0068 45.695 54.8803C45.4972 54.6295 45.2217 54.2587 44.8893 53.7946C44.2288 52.8638 43.331 51.565 42.4667 50.0477C42.2584 49.6639 42.0527 49.2902 41.895 48.906C41.7316 48.5218 41.6414 48.1272 41.5922 47.7497C41.4962 46.9927 41.5739 46.2934 41.7563 45.7462C41.9286 45.193 42.2032 44.801 42.4132 44.5606C42.4662 44.5034 42.5145 44.4514 42.5584 44.4041C42.6021 44.3662 42.641 44.3321 42.6762 44.3014C42.741 44.2471 42.7758 44.2202 42.7787 44.2236Z" fill="#010101"/>
<path d="M42.7874 66.2858C42.7888 66.2902 42.7519 66.306 42.6803 66.3322C42.5937 66.3622 42.4898 66.3982 42.365 66.4414C42.2279 66.4886 42.059 66.5431 41.86 66.5962C41.6613 66.6504 41.4367 66.719 41.183 66.7735C40.6792 66.8976 40.0708 67.0109 39.3907 67.1026C38.7095 67.1866 37.9559 67.2444 37.1635 67.2494C36.3707 67.249 35.6167 67.1952 34.9348 67.115C34.2539 67.0272 33.6451 66.9175 33.1406 66.7961C32.8867 66.743 32.6615 66.6756 32.4626 66.6226C32.2631 66.5707 32.0942 66.5172 31.9567 66.4706C31.8316 66.4282 31.7275 66.3929 31.6406 66.3634C31.5688 66.3374 31.5319 66.3218 31.5333 66.3175C31.5347 66.3132 31.5743 66.3206 31.6485 66.3384C31.7368 66.3614 31.8434 66.389 31.9708 66.4222C32.11 66.4613 32.2804 66.5074 32.4808 66.5522C32.6807 66.5986 32.9063 66.6593 33.1603 66.7063C33.6647 66.8155 34.2717 66.9154 34.9487 66.996C35.6267 67.069 36.3755 67.1186 37.1627 67.1194C37.9497 67.1143 38.698 67.0606 39.3755 66.9835C40.0521 66.899 40.6583 66.7958 41.1623 66.6838C41.416 66.6353 41.6411 66.5731 41.8408 66.5258C42.041 66.4798 42.2111 66.4325 42.3501 66.3926C42.4775 66.3588 42.5839 66.3305 42.6722 66.307C42.7461 66.2892 42.7859 66.2815 42.7874 66.2858Z" fill="#010101"/>
<g opacity="0.3">
<path d="M29.7158 57.3389L30.4013 56.2754L30.0437 47.9006L29.7158 57.3389Z" fill="#010101"/>
</g>
<g opacity="0.3">
<path d="M41.5508 47.334C41.5508 47.334 41.5729 50.3861 42.2785 51.5949C42.9838 52.8038 44.6343 55.4165 44.6285 55.2605C44.623 55.1045 44.5345 53.1065 44.5345 53.1065C44.5345 53.1065 41.5652 49.0423 41.5508 47.334Z" fill="#010101"/>
</g>
<path d="M29.1093 57.5933C29.1112 57.5981 29.0373 57.636 28.8902 57.6566C28.7442 57.678 28.5227 57.6679 28.2722 57.577C28.0221 57.4867 27.7487 57.3142 27.5046 57.0626C27.2598 56.8097 27.0578 56.4828 26.8646 56.1374C26.6718 55.7918 26.4976 55.4597 26.2989 55.188C26.1009 54.9161 25.8818 54.7022 25.673 54.5594C25.2506 54.2666 24.9066 54.2856 24.9131 54.2599C24.9129 54.2544 24.9945 54.2412 25.1409 54.2614C25.2868 54.2808 25.4961 54.3451 25.7214 54.4855C25.9463 54.6254 26.1813 54.8417 26.3913 55.1194C26.6022 55.3975 26.7818 55.7326 26.9735 56.0762C27.165 56.419 27.3599 56.7389 27.5879 56.9832C27.8159 57.2273 28.071 57.3989 28.3038 57.4946C28.7795 57.6934 29.11 57.5657 29.1093 57.5933Z" fill="white"/>
<path d="M30.0376 52.3341C30.0162 52.3401 29.9641 52.1529 29.8175 51.8829C29.6728 51.6132 29.4143 51.2693 29.042 50.9865C28.6681 50.7055 28.2668 50.5509 27.9676 50.4854C27.668 50.4182 27.4736 50.4192 27.4736 50.3971C27.4724 50.3849 27.6688 50.3517 27.9844 50.3985C28.2983 50.4437 28.7262 50.5925 29.1174 50.8867C29.5072 51.1824 29.7673 51.5534 29.8964 51.8431C30.0277 52.134 30.0496 52.3322 30.0376 52.3341Z" fill="white"/>
<path d="M41.6056 47.8394C41.6028 47.8517 41.441 47.808 41.1427 47.7838C40.8451 47.76 40.408 47.7701 39.8884 47.898C39.3684 48.0216 38.7729 48.2585 38.148 48.594C37.5192 48.9226 36.8536 49.3402 36.1 49.6848C35.3484 50.0364 34.5621 50.2145 33.8457 50.2586C33.1269 50.299 32.4787 50.215 31.9531 50.0825C31.4258 49.9526 31.0202 49.7774 30.7512 49.6404C30.6144 49.5758 30.515 49.5125 30.4464 49.4724C30.3782 49.4314 30.3436 49.4081 30.3458 49.4042C30.3516 49.3937 30.4975 49.475 30.772 49.5962C31.0454 49.7186 31.4512 49.8794 31.9737 49.9963C32.4948 50.1161 33.1332 50.1893 33.8385 50.1437C34.5427 50.0933 35.308 49.9171 36.0487 49.5708C36.7917 49.2312 37.4587 48.8172 38.0949 48.4915C38.7278 48.1589 39.3374 47.9258 39.869 47.8114C40.4006 47.6923 40.8475 47.6957 41.148 47.7348C41.2984 47.7547 41.4141 47.7778 41.4907 47.8006C41.5672 47.8222 41.6068 47.8354 41.6056 47.8394Z" fill="white"/>
<path d="M44.5562 56.143C44.5574 56.147 44.5098 56.1629 44.4177 56.1893C44.325 56.2118 44.1909 56.2608 44.0114 56.2903C43.6559 56.3688 43.1282 56.4281 42.4766 56.4122C41.8245 56.399 41.0534 56.286 40.2155 56.0942C39.3772 55.9022 38.4736 55.6274 37.5256 55.3488C36.5781 55.0721 35.6613 54.8563 34.815 54.7464C33.9693 54.6406 33.1955 54.6324 32.5586 54.7286C31.9214 54.821 31.4202 54.9828 31.0922 55.1321C30.7624 55.2775 30.5886 55.3793 30.5819 55.3678C30.5798 55.3642 30.6215 55.3366 30.7038 55.2876C30.7881 55.243 30.904 55.1585 31.072 55.0877C31.397 54.9235 31.901 54.7462 32.5454 54.6413C33.19 54.5326 33.9741 54.5314 34.8292 54.6322C35.6848 54.7366 36.609 54.9509 37.5606 55.2288C38.5101 55.5079 39.4101 55.7851 40.2417 55.9822C41.073 56.1787 41.835 56.2997 42.4797 56.3239C43.1238 56.3508 43.647 56.3057 44.0025 56.2426C44.3584 56.1818 44.553 56.131 44.5562 56.143Z" fill="white"/>
<path d="M44.6405 60.8909C44.629 60.931 43.9292 60.4788 42.644 60.3528C42.0065 60.2832 41.2388 60.3209 40.3973 60.4306C39.5552 60.545 38.6386 60.738 37.6707 60.9197C36.7033 61.1004 35.7759 61.2598 34.9229 61.3342C34.0707 61.4107 33.2945 61.4052 32.6516 61.319C32.0084 61.2355 31.4993 61.0939 31.1624 60.9619C30.9908 60.9046 30.8667 60.8359 30.7791 60.7992C30.6929 60.7589 30.6485 60.7361 30.6505 60.7322C30.6553 60.721 30.8386 60.8011 31.1787 60.9163C31.5181 61.0332 32.0247 61.1602 32.6621 61.2314C33.2996 61.3054 34.0671 61.3018 34.9126 61.2194C35.7589 61.1393 36.6812 60.9775 37.6481 60.7968C38.6136 60.6154 39.5338 60.4253 40.3827 60.3163C41.2313 60.2122 42.0087 60.1834 42.6538 60.265C43.2987 60.3422 43.8073 60.4942 44.1389 60.6396C44.3091 60.7018 44.4293 60.7781 44.5155 60.8179C44.5992 60.8621 44.6425 60.887 44.6405 60.8909Z" fill="white"/>
<path d="M36.8392 67.0099C36.834 67.0166 36.7488 66.9624 36.5997 66.8589C36.4514 66.7543 36.2347 66.606 35.9642 66.4272C35.424 66.0691 34.6574 65.6045 33.7689 65.1715C32.8795 64.7397 32.0407 64.4234 31.4253 64.2194C31.1179 64.1172 30.8673 64.0382 30.6933 63.9861C30.5198 63.9329 30.4245 63.8993 30.4267 63.8909C30.4288 63.8825 30.528 63.9 30.7058 63.9391C30.8841 63.9768 31.1392 64.043 31.4517 64.1352C32.0769 64.3183 32.9272 64.6241 33.8234 65.0592C34.7184 65.4955 35.484 65.9757 36.0139 66.3545C36.2793 66.5436 36.4888 66.7034 36.6288 66.8203C36.7694 66.936 36.8445 67.0032 36.8392 67.0099Z" fill="white"/>
<path d="M44.2271 66.9285C44.2336 66.9401 44.0522 67.0608 43.7229 67.1815C43.395 67.3027 42.9131 67.4066 42.376 67.3908C41.8386 67.3733 41.3642 67.2398 41.0445 67.0987C40.7234 66.9578 40.5496 66.8261 40.5568 66.815C40.5674 66.7965 40.7553 66.9 41.0769 67.0164C41.3975 67.1335 41.8593 67.2487 42.3798 67.266C42.9002 67.2809 43.3682 67.1947 43.6955 67.0975C44.0238 67.0013 44.2178 66.9096 44.2271 66.9285Z" fill="white"/>
<path d="M49.4789 51.0845C49.4846 51.085 49.4875 51.163 49.451 51.2976C49.4153 51.4318 49.3294 51.6197 49.1705 51.8131C49.0118 52.0063 48.7807 52.199 48.4958 52.3618C48.2102 52.5252 47.8759 52.6529 47.5334 52.793C47.1917 52.9332 46.8715 53.0813 46.621 53.2704C46.3706 53.4598 46.1873 53.6834 46.0783 53.8934C45.8525 54.3221 45.9518 54.642 45.9247 54.6396C45.9197 54.641 45.888 54.5693 45.8782 54.4296C45.8676 54.2909 45.8933 54.0828 45.9991 53.8543C46.1042 53.6266 46.2907 53.3842 46.5509 53.1792C46.8125 52.9738 47.141 52.8192 47.4862 52.6776C47.8313 52.5365 48.1622 52.4134 48.4399 52.2612C48.7178 52.1098 48.9444 51.9322 49.1038 51.7553C49.4294 51.3984 49.4549 51.0754 49.4789 51.0845Z" fill="white"/>
<path d="M46.5307 45.9907C46.5391 45.9929 46.5242 46.0699 46.4901 46.2084C46.4743 46.278 46.4515 46.3622 46.416 46.4573C46.3814 46.5525 46.3478 46.6637 46.2924 46.7789C46.1942 47.015 46.0478 47.2833 45.8601 47.5651C45.6669 47.843 45.4293 48.1317 45.1461 48.4015C44.8593 48.6679 44.5567 48.8875 44.2675 49.0632C43.9747 49.2333 43.6977 49.3629 43.4563 49.4465C43.338 49.4947 43.2249 49.5216 43.128 49.5501C43.031 49.5799 42.9456 49.5974 42.875 49.6089C42.7346 49.6344 42.6568 49.6445 42.6552 49.6361C42.6501 49.6128 42.9592 49.553 43.4244 49.3641C43.6576 49.2717 43.9248 49.1364 44.2077 48.9648C44.4873 48.7874 44.7806 48.5705 45.0604 48.3105C45.3372 48.047 45.5714 47.7677 45.7656 47.4996C45.9542 47.2277 46.1054 46.9694 46.212 46.7421C46.4292 46.2893 46.5079 45.9842 46.5307 45.9907Z" fill="white"/>
<path d="M41.9104 42.8419C41.9136 42.8498 41.7897 42.9053 41.5622 42.9986C41.3356 43.0944 41.0004 43.2144 40.5806 43.3454C40.1613 43.4786 39.653 43.6087 39.0828 43.7254C38.5113 43.8358 37.8772 43.9287 37.2072 43.9803C36.5366 44.0271 35.8956 44.0278 35.314 44.0021C34.7328 43.9699 34.211 43.9152 33.7768 43.8449C33.3424 43.7765 32.9932 43.7066 32.7552 43.645C32.5166 43.5859 32.3858 43.5492 32.3877 43.5408C32.3896 43.5324 32.524 43.553 32.765 43.5972C33.0052 43.644 33.3554 43.7004 33.7891 43.7573C34.2225 43.8161 34.7416 43.8614 35.3191 43.8869C35.8968 43.9061 36.5325 43.902 37.198 43.8554C37.8628 43.8043 38.4924 43.7155 39.0609 43.6123C39.6283 43.5029 40.1352 43.3824 40.5554 43.2607C40.9759 43.1412 41.3143 43.0344 41.5452 42.9528C41.7772 42.8741 41.9073 42.834 41.9104 42.8419Z" fill="white"/>
<path d="M51.3412 53.2886C51.3479 53.2865 51.3839 53.3712 51.4259 53.5317C51.4687 53.6918 51.5138 53.9297 51.5291 54.2265C51.5709 54.8222 51.4571 55.6392 51.2932 56.5212C51.2135 56.9642 51.1166 57.3883 50.9668 57.7548C50.8199 58.1222 50.6183 58.4258 50.4093 58.6406C50.2017 58.8585 49.9905 58.9872 49.8386 59.0556C49.6857 59.124 49.594 59.1393 49.5921 59.1331C49.5784 59.1101 49.9555 59.0181 50.3443 58.5806C50.5375 58.3656 50.723 58.0706 50.8595 57.7123C50.9987 57.3547 51.0909 56.9393 51.1701 56.4986C51.334 55.6161 51.4593 54.8145 51.4408 54.2297C51.4322 53.645 51.3172 53.2944 51.3412 53.2886Z" fill="white"/>
<path d="M56.1528 53.9037C56.1319 53.9133 56.0191 53.6587 55.7673 53.2934C55.5175 52.9279 55.1073 52.4637 54.5537 52.0752C53.9981 51.689 53.4211 51.4637 52.9917 51.3549C52.5619 51.2443 52.2842 51.2261 52.2861 51.2033C52.2866 51.1946 52.3562 51.1932 52.4822 51.1982C52.6085 51.2006 52.7906 51.2236 53.0119 51.2688C53.2341 51.3122 53.4931 51.3914 53.771 51.504C54.0465 51.6218 54.3398 51.7759 54.6252 51.9727C54.9081 52.1728 55.1537 52.3951 55.3591 52.6133C55.5605 52.8355 55.7239 53.0513 55.8413 53.2449C55.9601 53.4372 56.0443 53.6004 56.0899 53.718C56.1381 53.8344 56.1607 53.9001 56.1528 53.9037Z" fill="white"/>
<g opacity="0.3">
<path d="M42.0497 66.4752C42.3005 66.3621 42.3749 66.0196 42.2177 65.8219C42.0605 65.6241 41.779 65.58 41.5263 65.585C40.2867 65.6095 39.2045 66.4392 37.9849 66.6619C37.057 66.8316 36.1009 66.6403 35.1982 66.3664C34.2956 66.0926 33.415 65.7352 32.4881 65.5603C32.2945 65.5238 32.0924 65.4955 31.9021 65.5468C31.7117 65.5982 31.5353 65.7484 31.5113 65.9443C31.4873 66.1399 31.5334 66.2848 31.8253 66.3847C31.8253 66.3847 34.8946 67.2379 37.117 67.2048C39.4748 67.1695 42.0497 66.4752 42.0497 66.4752Z" fill="#010101"/>
</g>
<path d="M106.007 101.705H89.2639V104.005H106.007V101.705Z" fill="#010101"/>
<path d="M106.035 104.034H89.2354V101.676H106.035V104.034ZM89.2925 103.977H105.978V101.734H89.2925V103.977Z" fill="#010101"/>
<path d="M90.8163 103.24L93.2264 115.129H102.143L104.473 104.005L90.8163 103.24Z" fill="#010101"/>
<path d="M90.8163 114.004L92.1017 115.771H102.94L104.473 114.004H90.8163Z" fill="#828282"/>
<path d="M97.0069 103.587C96.9741 103.587 96.9318 98.0791 96.9126 91.2862C96.8934 84.4908 96.9047 78.984 96.9376 78.984C96.9705 78.984 97.0127 84.4906 97.0319 91.2859C97.0511 98.0789 97.0398 103.587 97.0069 103.587Z" fill="#010101"/>
<path d="M100.736 89.8035C100.74 89.8054 100.724 89.8493 100.691 89.9316C100.652 90.025 100.603 90.1431 100.542 90.288C100.509 90.3665 100.472 90.4522 100.433 90.5446C100.398 90.6416 100.361 90.7459 100.321 90.8573C100.281 90.9699 100.238 91.0896 100.192 91.2159C100.147 91.3431 100.112 91.4818 100.068 91.6248C99.8852 92.1955 99.7398 92.8956 99.5999 93.6747C99.478 94.4576 99.3865 95.3244 99.3407 96.2381C99.2593 98.0674 99.3625 99.726 99.4729 100.921C99.5267 101.519 99.5809 102.002 99.6208 102.335C99.638 102.492 99.652 102.619 99.663 102.72C99.6714 102.808 99.6738 102.854 99.6697 102.855C99.6656 102.856 99.6553 102.81 99.6392 102.723C99.6224 102.623 99.6011 102.497 99.5747 102.341C99.5207 102.009 99.4537 101.527 99.3889 100.929C99.2567 99.7342 99.1396 98.0703 99.2214 96.2326C99.2675 95.3146 99.3628 94.4431 99.4914 93.6567C99.6383 92.8738 99.7931 92.1713 99.9875 91.6001C100.034 91.4568 100.072 91.3183 100.12 91.1914C100.169 91.0654 100.215 90.9461 100.259 90.8338C100.302 90.7232 100.342 90.6197 100.38 90.5232C100.421 90.4294 100.463 90.3456 100.499 90.2695C100.569 90.1279 100.625 90.0125 100.67 89.9213C100.71 89.8421 100.733 89.8016 100.736 89.8035Z" fill="#010101"/>
<path d="M100.308 85.3489C100.312 85.3503 100.293 85.4129 100.255 85.5305C100.211 85.658 100.153 85.8284 100.081 86.0427C100.042 86.1548 99.9989 86.2779 99.9526 86.4118C99.9111 86.5493 99.8659 86.6977 99.8179 86.8565C99.72 87.1753 99.6065 87.5374 99.5057 87.9449C99.4522 88.148 99.396 88.3606 99.3377 88.5817C99.2873 88.8053 99.235 89.0377 99.1807 89.2781C99.0636 89.7574 98.9794 90.2785 98.8714 90.8223C98.6868 91.9162 98.5243 93.1256 98.4123 94.4012C98.3064 95.6777 98.2603 96.8977 98.2443 98.0074C98.2409 99.1172 98.2551 100.117 98.3007 100.956C98.3155 101.375 98.3424 101.754 98.364 102.087C98.3832 102.42 98.4041 102.707 98.4255 102.94C98.4427 103.166 98.4562 103.346 98.4665 103.48C98.4747 103.603 98.4768 103.669 98.4727 103.669C98.4687 103.669 98.4583 103.605 98.4427 103.483C98.4269 103.349 98.4058 103.17 98.3794 102.945C98.3511 102.711 98.3232 102.425 98.2978 102.092C98.2697 101.759 98.2371 101.38 98.2167 100.96C98.1603 100.121 98.1375 99.1191 98.1346 98.0067C98.1447 96.8943 98.1876 95.6712 98.2937 94.3911C98.406 93.1119 98.5723 91.8992 98.7634 90.8031C98.8745 90.2581 98.9628 89.7363 99.0845 89.2563C99.1411 89.0156 99.1959 88.7833 99.2487 88.5593C99.3099 88.3381 99.3684 88.1257 99.4246 87.9226C99.5309 87.5153 99.6504 87.1539 99.7546 86.8361C99.8062 86.678 99.8544 86.5301 99.8991 86.3933C99.9492 86.2604 99.9953 86.138 100.037 86.0269C100.119 85.8157 100.184 85.6474 100.233 85.5217C100.278 85.4069 100.304 85.3472 100.308 85.3489Z" fill="#010101"/>
<path d="M95.9471 104.561C95.945 104.561 95.9418 104.54 95.9378 104.497C95.9337 104.448 95.9284 104.385 95.9219 104.307C95.9102 104.132 95.8936 103.888 95.8727 103.578C95.8324 102.936 95.7753 102.021 95.7047 100.895C95.5593 98.6302 95.3493 95.5011 94.9682 92.0602C94.7735 90.3397 94.5477 88.7057 94.3127 87.2244C94.1879 86.485 94.0746 85.7813 93.9462 85.1269C93.8284 84.4702 93.7014 83.8623 93.5848 83.3072C93.4749 82.7506 93.352 82.2524 93.2534 81.8127C93.1564 81.3725 93.0626 80.996 92.9841 80.6885C92.9102 80.3871 92.8521 80.1495 92.8101 79.9788C92.7928 79.9028 92.7789 79.8418 92.7678 79.7933C92.759 79.7513 92.7554 79.7295 92.7573 79.729C92.7592 79.7285 92.7669 79.7492 92.7796 79.79C92.7935 79.8375 92.8113 79.8977 92.8334 79.9724C92.8804 80.1418 92.9459 80.3775 93.029 80.6768C93.1144 80.9825 93.215 81.3579 93.3182 81.7971C93.423 82.2358 93.5517 82.7333 93.6671 83.2894C93.7893 83.8441 93.9213 84.452 94.0432 85.1084C94.1762 85.7629 94.293 86.4668 94.421 87.2067C94.6619 88.6889 94.8914 90.3245 95.0865 92.047C95.4678 95.4917 95.6649 98.6235 95.7887 100.89C95.8502 102.024 95.8931 102.941 95.9188 103.576C95.9303 103.886 95.9392 104.131 95.9457 104.306C95.9474 104.384 95.9486 104.447 95.9498 104.496C95.9502 104.539 95.9493 104.561 95.9471 104.561Z" fill="#010101"/>
<path d="M96.8697 81.6319C96.797 80.8517 96.0083 80.263 95.2247 80.2548C94.4411 80.2466 93.7106 80.7166 93.2313 81.3367C92.752 81.9569 92.4878 82.7138 92.2715 83.467C91.7438 85.3054 91.4553 87.2366 91.6809 89.136C91.9065 91.0351 92.6771 92.9052 94.0399 94.2471C94.2614 94.4652 94.5484 94.6834 94.8525 94.6186C95.0188 94.583 95.1551 94.4676 95.2811 94.3536C97.9583 91.9351 99.5044 88.3128 99.3983 84.7063C99.3772 83.9842 99.2824 83.2325 98.8823 82.6308C98.4827 82.0291 97.5506 81.3902 96.8697 81.6319Z" fill="#D1000C"/>
<path d="M91.0187 75.3819C90.6508 76.0481 90.2829 76.7144 89.915 77.3808C89.8893 77.4274 89.8552 77.4797 89.8022 77.484C89.7441 77.4888 89.7009 77.4341 89.669 77.3852C88.6962 75.8924 87.7235 74.3996 86.751 72.9068L87.4233 72.5259L91.0187 75.3819Z" fill="#D1000C"/>
<g opacity="0.2">
<path d="M91.0187 75.3819C90.6508 76.0481 90.2829 76.7144 89.915 77.3808C89.8893 77.4274 89.8552 77.4797 89.8022 77.484C89.7441 77.4888 89.7009 77.4341 89.669 77.3852C88.6962 75.8924 87.7235 74.3996 86.751 72.9068L87.4233 72.5259L91.0187 75.3819Z" fill="#010101"/>
</g>
<path d="M96.9372 78.9838C93.6192 77.0259 90.3012 75.068 86.9832 73.11C86.8817 73.05 86.7715 72.9792 86.7408 72.8655C86.701 72.7181 86.8116 72.576 86.9179 72.4666C88.2869 71.0542 90.2755 70.2356 92.2375 70.3767C94.1995 70.5178 96.0862 71.6511 97.0466 73.3676C98.0071 75.0845 98.039 77.3544 96.9372 78.9838Z" fill="#D1000C"/>
<path d="M88.4179 71.2352C88.4177 71.2311 88.4625 71.2256 88.5482 71.2188C88.6341 71.2145 88.7609 71.1989 88.9243 71.2008C89.2514 71.1929 89.7269 71.2143 90.3055 71.3105C90.8837 71.4056 91.5629 71.5916 92.2725 71.9081C92.9817 72.223 93.7154 72.679 94.3838 73.278C95.0467 73.8836 95.5738 74.5685 95.9578 75.2427C96.3434 75.9173 96.5962 76.5744 96.7483 77.1404C96.9017 77.7063 96.9705 78.1774 96.995 78.5036C97.013 78.666 97.0101 78.7937 97.0145 78.8796C97.0164 78.9656 97.0154 79.0109 97.0113 79.0109C97.0008 79.0114 96.9883 78.8312 96.949 78.5084C96.9103 78.1856 96.8294 77.7207 96.6672 77.1634C96.3526 76.0548 95.6218 74.5604 94.3037 73.3664C92.9846 72.1743 91.4249 71.5961 90.2906 71.3936C89.7199 71.2877 89.249 71.2536 88.9241 71.2474C88.5991 71.2402 88.4184 71.2457 88.4179 71.2352Z" fill="#010101"/>
<path d="M95.5904 74.9297C95.5962 74.9449 95.4044 75.0334 95.0871 75.1585C94.7701 75.2835 94.3268 75.4431 93.8312 75.6008C93.3354 75.7582 92.881 75.8835 92.5498 75.9644C92.2186 76.0453 92.011 76.0834 92.007 76.0678C92.0026 76.0515 92.2026 75.9845 92.5273 75.883C92.8942 75.7683 93.3222 75.6346 93.795 75.487C94.2663 75.3349 94.6928 75.1971 95.0588 75.079C95.3823 74.9746 95.5844 74.9139 95.5904 74.9297Z" fill="#010101"/>
<path d="M94.0226 70.7194C94.0548 70.7165 94.1253 71.2128 94.1405 71.8298C94.1565 72.4471 94.1112 72.9463 94.079 72.9449C94.0454 72.9437 94.0373 72.4459 94.0212 71.833C94.0061 71.22 93.989 70.7223 94.0226 70.7194Z" fill="#010101"/>
<path d="M86.8966 72.9987C86.892 72.9835 87.1673 72.8835 87.6197 72.7443C88.0719 72.6048 88.7019 72.4284 89.4039 72.259C90.1064 72.09 90.7474 71.9602 91.2135 71.8783C91.6796 71.7965 91.9702 71.76 91.9731 71.7756C91.9762 71.7924 91.6911 71.8582 91.23 71.9611C90.769 72.0639 90.1323 72.2064 89.432 72.3749C88.7316 72.5439 88.1002 72.7068 87.643 72.8254C87.1853 72.9437 86.9016 73.015 86.8966 72.9987Z" fill="#010101"/>
<path d="M92.3475 79.7849C91.4914 79.1357 90.5861 79.0078 89.5126 79.0505C88.4391 79.093 87.3941 79.4201 86.4099 79.8512C84.7313 80.5863 83.1536 81.6699 82.1508 83.2035C81.1479 84.7371 80.7989 86.7672 81.5499 88.4388C81.6247 88.6054 81.7219 88.7794 81.8897 88.8514C82.0663 88.927 82.2687 88.868 82.4515 88.8084C84.3605 88.1856 86.2831 87.5571 88.0385 86.5817C89.7939 85.6064 91.3915 84.2508 92.3335 82.4772C92.5596 82.0517 92.7487 81.5957 92.7857 81.1152C92.8224 80.6348 92.6897 80.1243 92.3475 79.7849Z" fill="#D1000C"/>
<path d="M92.3642 79.5836C92.3654 79.5876 92.3179 79.6066 92.2267 79.6395C92.1235 79.675 91.9907 79.7206 91.8266 79.777C91.7383 79.8065 91.6415 79.8387 91.5369 79.8735C91.4318 79.9112 91.3199 79.9584 91.1985 80.0052C90.9571 80.1029 90.6765 80.2006 90.3813 80.3439C90.2318 80.412 90.0758 80.4831 89.9133 80.557C89.7511 80.6319 89.5888 80.724 89.4175 80.8114C89.0714 80.9813 88.7215 81.1985 88.3485 81.4186C87.6167 81.8813 86.842 82.4384 86.0882 83.095C85.3406 83.7593 84.6895 84.4568 84.1372 85.124C83.8713 85.4657 83.6114 85.7854 83.3987 86.107C83.2903 86.2661 83.1782 86.4152 83.0831 86.5666C82.9891 86.7183 82.8986 86.8642 82.8119 87.0036C82.6322 87.2782 82.4997 87.5439 82.372 87.7709C82.3099 87.8854 82.2491 87.9905 82.1983 88.0899C82.1503 88.1892 82.1061 88.2809 82.0656 88.3649C81.9888 88.5204 81.9266 88.6462 81.8781 88.7441C81.8339 88.8303 81.809 88.8749 81.8051 88.8732C81.8013 88.8716 81.8188 88.8238 81.856 88.7345C81.8992 88.634 81.9547 88.5051 82.0233 88.3452C82.061 88.2598 82.1023 88.1662 82.1471 88.0649C82.1951 87.9636 82.2535 87.8568 82.3128 87.7404C82.4354 87.5096 82.5633 87.2396 82.7392 86.9607C82.8242 86.8191 82.913 86.671 83.0051 86.5169C83.0987 86.3633 83.2094 86.2121 83.3169 86.0508C83.5274 85.7249 83.7861 85.4009 84.0513 85.0551C84.6023 84.3797 85.2561 83.6748 86.009 83.0057C86.7684 82.3443 87.5505 81.786 88.2904 81.3255C88.6672 81.1064 89.0215 80.8913 89.3716 80.7238C89.5451 80.6379 89.7093 80.5472 89.8735 80.474C90.0379 80.402 90.196 80.3328 90.3472 80.2666C90.6463 80.1276 90.9302 80.035 91.175 79.9426C91.2981 79.8984 91.4116 79.8543 91.5179 79.8197C91.6243 79.7883 91.7222 79.7592 91.8119 79.7326C91.9792 79.6848 92.1143 79.6462 92.2195 79.6162C92.3135 79.591 92.3632 79.5797 92.3642 79.5836Z" fill="#010101"/>
<path d="M85.6762 83.2049C85.6855 83.2366 84.7529 83.5371 83.5937 83.876C82.434 84.2151 81.487 84.4642 81.4776 84.4325C81.4682 84.4009 82.4006 84.1006 83.5601 83.7615C84.7195 83.4226 85.6671 83.1735 85.6762 83.2049Z" fill="#010101"/>
<path d="M85.5903 87.8004C85.5742 87.8007 85.5555 87.5528 85.5445 87.1515C85.5334 86.7505 85.5317 86.1958 85.5488 85.5838C85.5661 84.9716 85.5987 84.4179 85.6321 84.0181C85.6654 83.618 85.6981 83.3717 85.7139 83.3729C85.7307 83.3741 85.7278 83.6223 85.7161 84.0229C85.7026 84.4625 85.6861 84.9965 85.6678 85.5872C85.6529 86.1778 85.6397 86.7121 85.6287 87.1515C85.6181 87.5523 85.6071 87.8002 85.5903 87.8004Z" fill="#010101"/>
<path d="M89.5272 85.795C89.4944 85.7971 89.3897 84.6703 89.2935 83.2786C89.1972 81.8861 89.1459 80.7559 89.1788 80.7535C89.2116 80.7514 89.3163 81.8779 89.4125 83.2702C89.5088 84.6622 89.5601 85.7926 89.5272 85.795Z" fill="#010101"/>
<path d="M84.6269 80.6441C84.6279 80.6275 84.8827 80.6211 85.2943 80.624C85.7059 80.6268 86.274 80.6388 86.9011 80.6595C87.5285 80.6801 88.0963 80.7058 88.5072 80.73C88.9181 80.7545 89.1723 80.7778 89.172 80.7941C89.1718 80.8107 88.9171 80.8172 88.5055 80.8143C88.0939 80.8114 87.5254 80.7994 86.8973 80.7785C86.2695 80.7576 85.7014 80.7322 85.2905 80.7079C84.8796 80.6839 84.6259 80.6607 84.6269 80.6441Z" fill="#010101"/>
<path d="M94.4672 94.7832C94.4631 94.7832 94.4583 94.7364 94.453 94.6471C94.4484 94.5447 94.4427 94.4153 94.4355 94.2562C94.4204 93.9166 94.417 93.4243 94.43 92.8164C94.4408 92.2085 94.4813 91.4849 94.5528 90.6838C94.6304 89.8834 94.7424 89.0057 94.9032 88.0913C95.0684 87.1774 95.2661 86.3148 95.4696 85.5365C95.6792 84.7599 95.8911 84.067 96.0908 83.4924C96.2888 82.9176 96.4618 82.4568 96.5931 82.1431C96.6548 81.9963 96.7049 81.8767 96.7445 81.7822C96.7803 81.7001 96.8009 81.6579 96.8048 81.6595C96.8086 81.661 96.7954 81.7063 96.7668 81.7911C96.7328 81.8875 96.6896 82.0097 96.6363 82.1597C96.5184 82.4779 96.3576 82.9421 96.1704 83.5188C95.9813 84.0951 95.7785 84.7884 95.5757 85.5641C95.3784 86.3412 95.1848 87.2014 95.0204 88.1119C94.8603 89.023 94.7451 89.8971 94.662 90.6941C94.5848 91.4919 94.5358 92.2126 94.5142 92.8188C94.4907 93.4248 94.4813 93.9159 94.482 94.2552C94.4801 94.4143 94.4784 94.5439 94.4772 94.6462C94.4746 94.7359 94.4715 94.783 94.4672 94.7832Z" fill="#010101"/>
<path d="M94.9918 87.9917C95.0031 88.0032 94.8524 88.1707 94.5949 88.4275C94.3373 88.6843 93.9718 89.029 93.5545 89.395C93.1371 89.7607 92.7473 90.0782 92.4591 90.3C92.1709 90.5218 91.9851 90.6492 91.975 90.6365C91.9645 90.6233 92.1315 90.4726 92.4056 90.2347C92.7116 89.969 93.0745 89.6539 93.4757 89.3054C93.8737 88.9534 94.2337 88.6346 94.537 88.3663C94.8089 88.1254 94.9801 87.9794 94.9918 87.9917Z" fill="#010101"/>
<path d="M98.1426 90.5297C98.1282 90.5388 97.9703 90.3123 97.7198 89.9439C97.4476 89.5469 97.1097 89.0537 96.7362 88.5084C96.3546 87.9684 96.0098 87.48 95.7321 87.0869C95.4738 86.7238 95.3164 86.4972 95.3298 86.4867C95.3426 86.4768 95.5235 86.6856 95.7995 87.0363C96.0755 87.3869 96.4449 87.8811 96.8342 88.44C97.223 88.9992 97.5578 89.5171 97.7908 89.8978C98.0236 90.2787 98.1563 90.5211 98.1426 90.5297Z" fill="#010101"/>
<path d="M96.4925 82.5478C96.5103 82.5756 95.4636 83.28 94.1551 84.1215C92.8462 84.9631 91.771 85.6227 91.753 85.5948C91.7352 85.5672 92.7816 84.8626 94.0906 84.0211C95.3993 83.1797 96.4747 82.5199 96.4925 82.5478Z" fill="#010101"/>
<path d="M99.4435 85.7331C99.4205 85.7566 98.7118 85.1017 97.8605 84.2703C97.009 83.4387 96.3377 82.7456 96.3607 82.722C96.3838 82.6985 97.0925 83.3533 97.9438 84.1851C98.7951 85.0162 99.4666 85.7093 99.4435 85.7331Z" fill="#010101"/>
<path d="M100.185 85.669L101.084 85.5946C101.722 85.5418 102.341 85.3529 102.898 85.0392C103.174 84.8842 103.451 84.7322 103.744 84.6144C104.855 84.1685 106.094 84.2482 107.289 84.1882C109.241 84.0902 111.171 83.5968 112.93 82.746C113.031 82.6968 113.121 82.6219 113.176 82.523C113.36 82.1868 113.018 81.8875 112.722 81.7058C111.209 80.7732 109.668 79.8286 107.951 79.3656C106.235 78.9026 104.286 78.9809 102.822 79.9889C101.103 81.1721 100.476 83.6023 100.185 85.669Z" fill="#D1000C"/>
<path d="M113.196 82.4126C113.194 82.4162 113.142 82.3917 113.044 82.3416C112.936 82.2852 112.795 82.211 112.618 82.1186C112.249 81.9245 111.717 81.6377 111.045 81.3156C110.373 80.9969 109.558 80.6371 108.61 80.3772C107.667 80.1149 106.578 79.9776 105.455 80.1216C104.337 80.2689 103.307 80.7041 102.578 81.3569C101.845 82.0075 101.397 82.7933 101.08 83.4609C100.765 84.1344 100.57 84.7073 100.428 85.0992C100.362 85.2871 100.309 85.4376 100.269 85.5523C100.231 85.6557 100.209 85.7093 100.206 85.7081C100.202 85.7069 100.216 85.6507 100.246 85.5449C100.281 85.4285 100.327 85.2753 100.384 85.0843C100.513 84.6871 100.695 84.1089 101.004 83.4254C101.313 82.7481 101.759 81.9456 102.505 81.2745C103.248 80.6009 104.301 80.1528 105.439 80.0033C106.581 79.8566 107.688 80.0004 108.64 80.2713C109.596 80.5399 110.412 80.9102 111.082 81.2397C111.752 81.5729 112.278 81.8712 112.64 82.0781C112.812 82.1786 112.95 82.2593 113.055 82.3207C113.15 82.3776 113.199 82.409 113.196 82.4126Z" fill="#010101"/>
<path d="M111.038 83.5718C111.019 83.5992 109.844 82.8391 108.414 81.8743C106.982 80.9093 105.837 80.105 105.856 80.0777C105.874 80.0503 107.049 80.8104 108.48 81.7754C109.911 82.7402 111.056 83.5447 111.038 83.5718Z" fill="#010101"/>
<path d="M109.909 79.9651C109.915 79.9963 109.508 80.1024 108.992 80.1492C108.476 80.1972 108.056 80.1677 108.057 80.1358C108.057 80.1017 108.472 80.0779 108.981 80.0304C109.49 79.9843 109.903 79.9318 109.909 79.9651Z" fill="#010101"/>
<path d="M104.641 79.0212C104.67 79.038 104.497 79.3831 104.256 79.7921C104.015 80.201 103.796 80.519 103.768 80.5025C103.739 80.4859 103.912 80.1406 104.153 79.7316C104.394 79.3224 104.613 79.0044 104.641 79.0212Z" fill="#010101"/>
<path d="M105.694 84.264C105.686 84.2774 105.468 84.1634 105.129 83.9575C104.789 83.7516 104.33 83.4497 103.84 83.0937C103.35 82.7376 102.918 82.4011 102.607 82.1549C102.297 81.9081 102.11 81.7497 102.119 81.7365C102.129 81.7233 102.335 81.858 102.658 82.0874C103.011 82.3435 103.438 82.6541 103.91 82.9973C104.399 83.352 104.848 83.6633 105.174 83.8867C105.501 84.1101 105.703 84.2493 105.694 84.264Z" fill="#010101"/>
<path d="M101.509 89.4862C100.652 89.2599 99.6303 90.0934 99.4537 90.962C99.277 91.8305 99.6027 92.7188 99.984 93.5189C100.828 95.2901 101.993 96.9329 103.528 98.1557C105.062 99.3785 106.984 100.16 108.946 100.151C108.584 98.468 109.042 96.71 108.84 95.0004C108.664 93.5084 107.968 92.0828 106.901 91.0258C105.833 89.9688 104.401 89.2875 102.907 89.126C102.36 89.0669 101.727 88.981 101.509 89.4862Z" fill="#D1000C"/>
<path d="M108.947 100.151C108.945 100.154 108.903 100.135 108.825 100.094C108.747 100.052 108.636 99.9838 108.504 99.8787C108.235 99.6744 107.927 99.2808 107.658 98.7471C107.521 98.4819 107.368 98.1936 107.219 97.8749C107.075 97.555 106.92 97.214 106.758 96.8559C106.595 96.4988 106.415 96.1282 106.192 95.7665C105.969 95.4044 105.705 95.0504 105.412 94.7062C104.825 94.0169 104.196 93.4208 103.65 92.8512C103.101 92.2839 102.64 91.7374 102.307 91.2394C101.97 90.7433 101.766 90.2988 101.65 89.9856C101.595 89.8275 101.555 89.7041 101.536 89.618C101.514 89.5328 101.505 89.4874 101.509 89.4864C101.52 89.4833 101.568 89.6614 101.693 89.9686C101.821 90.2741 102.034 90.7068 102.376 91.1916C102.715 91.6781 103.178 92.2138 103.729 92.7747C104.277 93.3382 104.91 93.9329 105.503 94.6292C105.799 94.9769 106.066 95.3364 106.291 95.7058C106.517 96.0747 106.697 96.4508 106.858 96.8108C107.017 97.1703 107.167 97.5125 107.309 97.8339C107.453 98.1514 107.601 98.4423 107.733 98.7089C107.991 99.2441 108.279 99.6317 108.534 99.8436C108.784 100.059 108.954 100.139 108.947 100.151Z" fill="#010101"/>
<path d="M104.515 98.7521C104.499 98.749 104.527 98.5282 104.594 98.1752C104.661 97.8224 104.771 97.3378 104.919 96.8101C105.068 96.2821 105.227 95.8114 105.354 95.4754C105.481 95.1392 105.573 94.9369 105.588 94.9424C105.604 94.9484 105.54 95.1608 105.434 95.5028C105.328 95.8448 105.182 96.3171 105.034 96.8425C104.886 97.3678 104.764 97.8466 104.676 98.1937C104.588 98.5407 104.532 98.7555 104.515 98.7521Z" fill="#010101"/>
<path d="M108.785 94.6217C108.779 94.6381 108.55 94.5795 108.181 94.483C107.812 94.3865 107.302 94.2545 106.734 94.1266C106.167 93.9989 105.65 93.8996 105.275 93.8285C104.9 93.7575 104.668 93.7121 104.67 93.6951C104.672 93.6795 104.909 93.6953 105.288 93.7453C105.668 93.7952 106.19 93.8821 106.761 94.0102C107.331 94.1389 107.84 94.2843 108.205 94.4019C108.569 94.5197 108.789 94.6066 108.785 94.6217Z" fill="#010101"/>
<path d="M101.335 95.8217C101.319 95.8186 101.352 95.5632 101.428 95.154C101.503 94.7451 101.623 94.1825 101.783 93.5681C101.944 92.9535 102.114 92.4041 102.248 92.0105C102.383 91.6167 102.479 91.3779 102.494 91.3829C102.51 91.3882 102.442 91.6363 102.329 92.0357C102.216 92.4351 102.059 92.9861 101.899 93.5983C101.739 94.2106 101.607 94.7679 101.51 95.1715C101.414 95.5755 101.352 95.825 101.335 95.8217Z" fill="#010101"/>
<path d="M106.818 91.0222C106.815 91.0549 105.745 90.9685 104.429 90.8288C103.112 90.6891 102.049 90.5497 102.052 90.5168C102.055 90.4841 103.125 90.5705 104.441 90.7102C105.757 90.8497 106.822 90.9893 106.818 91.0222Z" fill="#010101"/>
<path d="M106.034 103.996C106.034 104.029 102.274 104.056 97.6356 104.056C92.9962 104.056 89.2361 104.029 89.2361 103.996C89.2361 103.963 92.9959 103.936 97.6356 103.936C102.274 103.936 106.034 103.963 106.034 103.996Z" fill="#828282"/>
<path d="M103.417 108.835C103.417 108.868 100.884 108.895 97.7587 108.895C94.6327 108.895 92.0995 108.868 92.0995 108.835C92.0995 108.802 94.6327 108.776 97.7587 108.776C100.884 108.776 103.417 108.802 103.417 108.835Z" fill="#828282"/>
<path d="M103.517 109.527C103.517 109.56 100.983 109.587 97.8584 109.587C94.7324 109.587 92.1992 109.56 92.1992 109.527C92.1992 109.494 94.7324 109.468 97.8584 109.468C100.983 109.468 103.517 109.494 103.517 109.527Z" fill="#828282"/>
<path d="M103.516 108.265C103.516 108.298 100.895 108.325 97.6634 108.325C94.4298 108.325 91.8095 108.298 91.8095 108.265C91.8095 108.232 94.4298 108.205 97.6634 108.205C100.895 108.205 103.516 108.232 103.516 108.265Z" fill="#828282"/>
<path d="M110.695 115.771C110.695 115.806 87.9965 115.834 60.0024 115.834C31.9985 115.834 9.30457 115.806 9.30457 115.771C9.30457 115.737 31.9987 115.709 60.0024 115.709C87.9965 115.709 110.695 115.737 110.695 115.771Z" fill="#010101"/>
</svg>
