<svg width="18" height="18" viewBox="0 0 18 18" fill="none" xmlns="http://www.w3.org/2000/svg">
<path d="M8.8125 1.125C13.0582 1.125 16.5 4.56681 16.5 8.8125C16.5 13.0582 13.0582 16.5 8.8125 16.5C7.5081 16.5 6.27829 16.1742 5.20093 15.5998C3.87031 15.0271 2.56168 15.3006 1.73657 15.3728C1.5269 15.3911 1.32463 15.2907 1.21216 15.1128C1.09978 14.9349 1.09616 14.7091 1.20264 14.5276C1.34021 14.293 1.52999 13.7817 1.62598 13.1484C1.72118 12.52 1.7138 11.8342 1.51611 11.2397C1.26218 10.4761 1.125 9.6597 1.125 8.8125C1.125 4.56681 4.56681 1.125 8.8125 1.125ZM5.81909 8.0625C5.40496 8.06257 5.06909 8.39835 5.06909 8.8125C5.06909 9.22665 5.40496 9.56242 5.81909 9.5625H5.82568L5.90259 9.55882C6.28074 9.52042 6.57568 9.20077 6.57568 8.8125C6.57568 8.42422 6.28074 8.10457 5.90259 8.06617L5.82568 8.0625H5.81909ZM8.81542 8.0625C8.40142 8.06272 8.06542 8.39842 8.06542 8.8125C8.06542 9.22657 8.40142 9.56227 8.81542 9.5625H8.82277C9.23685 9.56235 9.57277 9.22657 9.57277 8.8125C9.57277 8.39842 9.23685 8.06265 8.82277 8.0625H8.81542ZM11.8125 8.0625C11.3983 8.06257 11.0625 8.39835 11.0625 8.8125C11.0625 9.22665 11.3983 9.56242 11.8125 9.5625H11.8191C12.2333 9.5625 12.5691 9.22672 12.5691 8.8125C12.5691 8.39827 12.2333 8.0625 11.8191 8.0625H11.8125Z" fill="#010101"/>
</svg>
