<svg width="22" height="22" viewBox="0 0 22 22" fill="none" xmlns="http://www.w3.org/2000/svg">
<path d="M11.0001 1.60352C11.7217 1.60352 12.358 1.85079 13.0277 2.25431C13.6749 2.64425 14.4132 3.21845 15.3327 3.93367L15.3614 3.95606L17.1948 5.38208L17.9942 6.0087C18.7209 6.5926 19.2316 7.07621 19.5411 7.70866L19.6136 7.8689C19.9516 8.6751 19.9376 9.60803 19.9376 10.9895V13.3438C19.9376 14.8119 19.9376 15.984 19.814 16.903C19.6943 17.7938 19.4486 18.5371 18.9081 19.1366L18.7963 19.2538C18.1773 19.8727 17.3953 20.1439 16.4455 20.2716C15.5264 20.3952 14.3543 20.3952 12.8862 20.3952H9.11393C7.64581 20.3952 6.47377 20.3952 5.55469 20.2716C4.66399 20.1519 3.92062 19.9061 3.3212 19.3658L3.20394 19.2538C2.58509 18.635 2.31382 17.853 2.18611 16.903C2.09233 16.2055 2.06982 15.3623 2.06437 14.3545L2.06258 13.291V10.9895C2.06258 9.51591 2.04664 8.55211 2.45915 7.70866C2.87174 6.8654 3.64232 6.28671 4.80542 5.38208L6.63876 3.95606L7.30477 3.43953C7.93911 2.95113 8.48204 2.54984 8.97249 2.25431C9.64225 1.85078 10.2785 1.60353 11.0001 1.60352ZM14.4734 15.0196C14.1819 14.6452 13.6575 14.5588 13.264 14.8056L13.187 14.8593C12.618 15.3022 11.8541 15.5827 11.0001 15.5827C10.2528 15.5826 9.57423 15.3683 9.03515 15.0178L8.81315 14.8593L8.73616 14.8056C8.3426 14.5589 7.81828 14.6451 7.52678 15.0196C7.2353 15.3942 7.28018 15.9242 7.61629 16.2452L7.68701 16.306L7.85799 16.4331C8.72911 17.0537 9.82375 17.4159 11.0001 17.416C12.2547 17.416 13.4164 17.004 14.3131 16.306L14.3839 16.2452C14.7201 15.9241 14.765 15.3943 14.4734 15.0196Z" fill="white"/>
</svg>
