<svg width="30" height="30" viewBox="0 0 30 30" fill="none" xmlns="http://www.w3.org/2000/svg">
<path fill-rule="evenodd" clip-rule="evenodd" d="M12.6875 5.28564C7.31252 5.28564 3 9.75988 3 15.2231C3 18.5625 4.78219 21.2293 6.69851 23.1345C8.61996 25.0448 10.7724 26.2884 11.7445 26.7994C12.3387 27.1118 13.0363 27.1118 13.6305 26.7994C14.6026 26.2884 16.755 25.0448 18.6765 23.1345C20.5929 21.2293 22.375 18.5625 22.375 15.2231C22.375 9.75988 18.0625 5.28564 12.6875 5.28564ZM12.6875 11.2231C10.6164 11.2231 8.9375 12.9021 8.9375 14.9731C8.9375 17.0443 10.6164 18.7231 12.6875 18.7231C14.7586 18.7231 16.4375 17.0443 16.4375 14.9731C16.4375 12.9021 14.7586 11.2231 12.6875 11.2231Z" fill="#D1000C"/>
</svg>
