<svg width="22" height="22" viewBox="0 0 22 22" fill="none" xmlns="http://www.w3.org/2000/svg">
<path d="M11.0043 11H11.0126M14.6669 11H14.6751M7.3418 11H7.35002" stroke="#828282" stroke-width="1.5" stroke-linecap="round" stroke-linejoin="round"/>
<path d="M19.7087 10.9993C19.7087 15.8088 15.8098 19.7077 11.0003 19.7077C9.5079 19.7077 8.10311 19.3322 6.87533 18.6707C5.16278 17.7479 4.01039 18.6058 2.99409 18.7597C2.83992 18.783 2.68638 18.727 2.57613 18.6168C2.40878 18.4495 2.37693 18.1907 2.46937 17.9728C2.86825 17.0327 3.23451 15.251 2.73512 13.7493C2.44764 12.8849 2.29199 11.9603 2.29199 10.9993C2.29199 6.18987 6.19084 2.29102 11.0003 2.29102C15.8098 2.29102 19.7087 6.18987 19.7087 10.9993Z" stroke="#828282" stroke-width="1.5" stroke-linecap="round" stroke-linejoin="round"/>
</svg>
