<svg width="13" height="13" viewBox="0 0 13 13" fill="none" xmlns="http://www.w3.org/2000/svg">
<path d="M11.2684 0.268483C11.6263 -0.0894942 12.2066 -0.0894942 12.5646 0.268483C12.9225 0.626468 12.9225 1.20673 12.5646 1.56471L7.71181 6.41661L12.5636 11.2685L12.6273 11.3383C12.9206 11.6984 12.8991 12.2292 12.5636 12.5647C12.228 12.9003 11.6973 12.9211 11.3372 12.6274L11.2675 12.5647L6.41555 7.71278L1.56546 12.5638C1.20748 12.9218 0.627224 12.9217 0.269238 12.5638C-0.0887384 12.2058 -0.0887384 11.6256 0.269238 11.2676L5.11929 6.41661L0.26834 1.5656L0.205676 1.49578C-0.0880144 1.13576 -0.0672241 0.605009 0.26834 0.269381C0.603831 -0.0661101 1.13471 -0.0875053 1.49474 0.205819L1.56457 0.269381L6.41555 5.12035L11.2684 0.268483Z" fill="black"/>
</svg>
