<svg width="18" height="18" viewBox="0 0 18 18" fill="none" xmlns="http://www.w3.org/2000/svg">
<path d="M16.4749 8.07459L13.3109 10.8048L14.2749 14.8879C14.328 15.1095 14.3143 15.342 14.2355 15.5558C14.1566 15.7697 14.0162 15.9554 13.8318 16.0895C13.6475 16.2236 13.4276 16.3 13.1998 16.3091C12.9721 16.3183 12.7467 16.2597 12.5522 16.1408L9.00142 13.9555L5.44853 16.1408C5.25407 16.259 5.02898 16.317 4.80161 16.3076C4.57425 16.2981 4.35477 16.2215 4.17081 16.0876C3.98686 15.9536 3.84665 15.7682 3.76785 15.5547C3.68905 15.3413 3.67518 15.1092 3.72798 14.8879L4.69548 10.8048L1.53142 8.07459C1.35936 7.92589 1.23493 7.72979 1.17366 7.51079C1.11239 7.29179 1.11699 7.05959 1.1869 6.84319C1.25681 6.62679 1.38892 6.43578 1.56674 6.29401C1.74456 6.15225 1.9602 6.06601 2.18673 6.04607L6.33517 5.71139L7.93548 1.83857C8.0221 1.62751 8.16953 1.44697 8.35903 1.31991C8.54852 1.19284 8.77151 1.125 8.99966 1.125C9.22781 1.125 9.45081 1.19284 9.6403 1.31991C9.82979 1.44697 9.97722 1.62751 10.0638 1.83857L11.6635 5.71139L15.8119 6.04607C16.0389 6.06527 16.2551 6.15103 16.4336 6.29259C16.6121 6.43416 16.7448 6.62525 16.8151 6.84191C16.8855 7.05857 16.8903 7.29118 16.8291 7.51058C16.7678 7.72998 16.6431 7.92642 16.4707 8.07529L16.4749 8.07459Z" fill="#FAC216"/>
</svg>
