<svg width="120" height="120" viewBox="0 0 120 120" fill="none" xmlns="http://www.w3.org/2000/svg">
<circle cx="60" cy="60" r="60" fill="#DFF5E0"/>
<circle cx="60.0004" cy="59.9994" r="42.3529" fill="#AAE8AC"/>
<circle cx="59.9998" cy="60.0008" r="24.7059" fill="white"/>
<path fill-rule="evenodd" clip-rule="evenodd" d="M59.9998 84.7067C46.3551 84.7067 35.2939 73.6456 35.2939 60.0008C35.2939 46.3561 46.3551 35.2949 59.9998 35.2949C73.6446 35.2949 84.7057 46.3561 84.7057 60.0008C84.7057 73.6456 73.6446 84.7067 59.9998 84.7067ZM70.2959 53.9739C71.4093 53.3648 71.8184 51.9684 71.2094 50.8548C70.6004 49.7411 69.204 49.332 68.0905 49.9411C63.8877 52.2394 60.4126 56.675 58.076 60.2527C57.2125 61.5751 56.4748 62.8269 55.8846 63.8873C55.3341 63.3532 54.7888 62.8897 54.3011 62.504C53.6629 61.9996 53.0887 61.6015 52.6699 61.3273L51.9459 60.8776C50.8434 60.2488 49.4398 60.6328 48.811 61.7355C48.1823 62.8377 48.566 64.2408 49.668 64.87L50.1513 65.1723C50.4795 65.3871 50.9394 65.7057 51.4504 66.1097C52.5019 66.941 53.6366 68.0308 54.3508 69.2247C54.789 69.9574 55.5974 70.3867 56.4498 70.3398C57.3019 70.2927 58.0581 69.7765 58.4131 69.0004L58.6391 68.5284C58.7946 68.2103 59.0277 67.7451 59.331 67.1722C59.9389 66.0238 60.8228 64.4529 61.9244 62.766C64.1844 59.3056 67.1441 55.6974 70.2959 53.9739Z" fill="#00BD06"/>
</svg>
