<svg width="20" height="20" viewBox="0 0 20 20" fill="none" xmlns="http://www.w3.org/2000/svg">
<path fill-rule="evenodd" clip-rule="evenodd" d="M10.0001 1.04163C6.41676 1.04163 3.54175 4.02445 3.54175 7.66663C3.54175 9.89288 4.72987 11.6707 6.00742 12.9409C7.28839 14.2144 8.72333 15.0435 9.37141 15.3841C9.76758 15.5924 10.2326 15.5924 10.6287 15.3841C11.2768 15.0435 12.7117 14.2144 13.9927 12.9409C15.2703 11.6707 16.4584 9.89288 16.4584 7.66663C16.4584 4.02445 13.5834 1.04163 10.0001 1.04163ZM10.0001 4.99996C8.61933 4.99996 7.50008 6.11925 7.50008 7.49996C7.50008 8.88071 8.61933 9.99996 10.0001 9.99996C11.3808 9.99996 12.5001 8.88071 12.5001 7.49996C12.5001 6.11925 11.3808 4.99996 10.0001 4.99996Z" fill="#010101"/>
<path fill-rule="evenodd" clip-rule="evenodd" d="M5.00008 15C5.46031 15 5.83341 15.3731 5.83341 15.8333C5.83341 16.038 6.02099 16.4477 6.83722 16.8558C7.60361 17.2389 8.72066 17.5 10.0001 17.5C11.2795 17.5 12.3966 17.2389 13.1629 16.8558C13.9792 16.4477 14.1667 16.038 14.1667 15.8333C14.1667 15.3731 14.5398 15 15.0001 15C15.4603 15 15.8334 15.3731 15.8334 15.8333C15.8334 17.0094 14.9017 17.8497 13.9083 18.3464C12.865 18.8681 11.4821 19.1667 10.0001 19.1667C8.51808 19.1667 7.13512 18.8681 6.09187 18.3464C5.09846 17.8497 4.16675 17.0094 4.16675 15.8333C4.16675 15.3731 4.53985 15 5.00008 15Z" fill="#010101"/>
</svg>
