<svg width="22" height="22" viewBox="0 0 22 22" fill="none" xmlns="http://www.w3.org/2000/svg">
<path d="M2.75 10.9905V13.2917C2.75 16.3166 2.75 17.829 3.6897 18.7687C4.6294 19.7084 6.14182 19.7084 9.16667 19.7084H12.8333C15.8582 19.7084 17.3706 19.7084 18.3103 18.7687C19.25 17.829 19.25 16.3166 19.25 13.2917V10.9905C19.25 9.44936 19.25 8.67883 18.9238 8.01179C18.5975 7.34475 17.9893 6.87167 16.7728 5.92552L14.9395 4.49959C13.047 3.02769 12.1008 2.29175 11 2.29175C9.89918 2.29175 8.95298 3.02769 7.06055 4.49959L5.22721 5.92552C4.01072 6.87167 3.40247 7.34475 3.07624 8.01179C2.75 8.67883 2.75 9.44936 2.75 10.9905Z" stroke="#828282" stroke-width="1.5" stroke-linecap="round" stroke-linejoin="round"/>
<path d="M13.75 15.5833C13.0171 16.1538 12.0544 16.4999 11 16.4999C9.94558 16.4999 8.9829 16.1538 8.25 15.5833" stroke="#828282" stroke-width="1.5" stroke-linecap="round" stroke-linejoin="round"/>
</svg>
