<svg width="44" height="44" viewBox="0 0 44 44" fill="none" xmlns="http://www.w3.org/2000/svg">
<rect width="44" height="44" rx="22" fill="#FCEDEE"/>
<path d="M27.0021 31C28.1063 31 29.0014 30.1046 29.0014 29C29.0014 27.8954 28.1063 27 27.0021 27C25.898 27 25.0029 27.8954 25.0029 29C25.0029 30.1046 25.898 31 27.0021 31Z" stroke="#D1000C" stroke-width="1.5"/>
<path d="M17.006 31C18.1102 31 19.0053 30.1046 19.0053 29C19.0053 27.8954 18.1102 27 17.006 27C15.9019 27 15.0068 27.8954 15.0068 29C15.0068 30.1046 15.9019 31 17.006 31Z" stroke="#D1000C" stroke-width="1.5"/>
<path d="M22.0039 22L16.0063 13M16.0063 13L18.0055 23M16.0063 13H13.8379C13.6489 13 13.4894 13.161 13.466 13.3755L13.1326 16.4286C13.7536 16.4286 14.257 17.0042 14.257 17.7143C14.257 18.4244 13.7536 19 13.1326 19C12.6431 19 12.1622 18.6422 12.0078 18.1429M29.0012 29C31.6834 29 32 28.072 32 25.5125C32 24.2875 32 23.675 31.76 23.1578C31.5094 22.6178 31.0578 22.2814 30.108 21.5931C29.1647 20.9095 28.494 20.141 27.8549 19.0824C26.9435 17.5726 26.4878 16.8178 25.8043 16.4089C25.1209 16 24.3148 16 22.7026 16H22.0039V23" stroke="#D1000C" stroke-width="1.5"/>
<path d="M15.0065 28.996C15.0065 28.996 13.847 29.0063 13.4872 28.96C13.1873 28.84 12.8229 28.5585 12.5875 28.402C11.8678 27.9235 12.0117 28.12 12.0117 27.688C12.0117 27.0126 12.0077 24.0063 12.0077 24.0063V23.0463C12.0077 22.9863 11.946 22.9991 12.4075 23.0063H31.4801M19.0051 29.002H25.0027" stroke="#D1000C" stroke-width="1.5"/>
</svg>
